<svg width="157" height="40" viewBox="0 0 157 40" fill="none" xmlns="http://www.w3.org/2000/svg">
<path d="M75.7735 11.9624L74.5042 6.72363H72.1521L70.8828 11.9624H71.6664L72.7491 7.4346H73.9066L74.9893 11.9624H75.7735Z" fill="white"/>
<path d="M81.0806 6.72375L78.5419 10.6528H78.4672V6.72375H77.6836V11.9625H78.5419L81.0806 8.03344H81.1554V11.9625H81.9396V6.72375H81.0806Z" fill="white"/>
<path d="M85.9316 7.4346H87.0143L87.9104 11.2514H85.0355L85.9316 7.4346ZM84.4757 11.9624H88.4703V12.8604H89.2545V11.2514H88.6946L87.6119 6.72363H85.334L84.2513 11.2514H83.6914V12.8604H84.4757V11.9624Z" fill="white"/>
<path d="M94.8568 11.2514H91.7953V9.67978H94.2221V8.96883H91.7953V7.4346H94.8568V6.72363H91.0117V11.9624H94.8568V11.2514Z" fill="white"/>
<path d="M101.173 8.63203C101.173 8.37009 101.12 8.12312 101.024 7.89112C100.919 7.65912 100.777 7.45705 100.59 7.28493C100.403 7.1128 100.187 6.9706 99.9334 6.87331C99.672 6.77602 99.388 6.72363 99.0819 6.72363H96.8047V11.9624H97.5882V10.5404H99.0819C99.388 10.5404 99.672 10.488 99.9334 10.3907C100.187 10.2934 100.403 10.1513 100.59 9.97915C100.777 9.80703 100.919 9.60493 101.024 9.37295C101.12 9.14096 101.173 8.89399 101.173 8.63203ZM100.389 8.63203C100.389 8.99127 100.276 9.28312 100.045 9.50012C99.814 9.7172 99.4929 9.82947 99.0819 9.82947H97.5882V7.4346H99.0819C99.4929 7.4346 99.814 7.54686 100.045 7.76389C100.276 7.98093 100.389 8.2728 100.389 8.63203Z" fill="white"/>
<path d="M105.205 11.2514H104.01V9.15587H105.205C105.384 9.15587 105.548 9.17838 105.698 9.23072C105.847 9.28312 105.974 9.35796 106.086 9.45525C106.198 9.55253 106.281 9.65734 106.348 9.78452C106.407 9.91177 106.437 10.0539 106.437 10.2036C106.437 10.3533 106.407 10.488 106.348 10.6153C106.281 10.7425 106.198 10.8548 106.086 10.9521C105.974 11.0493 105.847 11.1167 105.698 11.1691C105.548 11.2215 105.384 11.2514 105.205 11.2514ZM107.221 10.2036C107.221 9.95665 107.177 9.73218 107.079 9.51511C106.982 9.30556 106.848 9.11845 106.676 8.9613C106.504 8.80416 106.288 8.67691 106.041 8.57964C105.795 8.48983 105.511 8.44493 105.205 8.44493H104.01V6.72363H103.227V11.9624H105.205C105.511 11.9624 105.795 11.9174 106.041 11.8201C106.288 11.7303 106.504 11.6031 106.676 11.446C106.848 11.2888 106.982 11.1017 107.079 10.8847C107.177 10.6751 107.221 10.4506 107.221 10.2036ZM108.715 11.9624V6.72363H107.931V11.9624H108.715Z" fill="white"/>
<path d="M71.2578 20.5156H75.1406V21.4136H75.9248V19.8046H75.3272V15.2769H74.543V19.8046H72.0421V15.2769H71.2578V20.5156Z" fill="white"/>
<path d="M81.1516 15.2769L78.6122 19.2059H78.5381V15.2769H77.7539V20.5156H78.6122L81.1516 16.5866H81.2257V20.5156H82.0099V15.2769H81.1516Z" fill="white"/>
<path d="M86.7175 16.2119V19.5797C86.4115 19.5722 86.135 19.5198 85.8962 19.43C85.6499 19.3477 85.4481 19.228 85.2842 19.0783C85.1195 18.9286 84.9926 18.7489 84.9102 18.5469C84.821 18.3448 84.7757 18.1278 84.7757 17.8958C84.7757 17.6638 84.821 17.4468 84.9102 17.2447C84.9926 17.0426 85.1195 16.8705 85.2842 16.7208C85.4481 16.5711 85.6499 16.4514 85.8962 16.3616C86.135 16.2718 86.4115 16.2194 86.7175 16.2119ZM87.5017 19.5797V16.2119C87.8077 16.2194 88.0842 16.2718 88.3306 16.3616C88.5693 16.4514 88.7711 16.5711 88.935 16.7208C89.0997 16.8705 89.2266 17.0426 89.3158 17.2447C89.3982 17.4468 89.4428 17.6638 89.4428 17.8958C89.4428 18.1278 89.3982 18.3448 89.3158 18.5469C89.2266 18.7489 89.0997 18.9286 88.935 19.0783C88.7711 19.228 88.5693 19.3477 88.3306 19.43C88.0842 19.5198 87.8077 19.5722 87.5017 19.5797ZM87.5017 20.8145V20.2906C87.912 20.2832 88.2853 20.2083 88.6215 20.0736C88.9577 19.9464 89.2411 19.7668 89.4805 19.5497C89.7193 19.3327 89.9059 19.0857 90.0328 18.8013C90.1598 18.5169 90.227 18.2176 90.227 17.8958C90.227 17.574 90.1598 17.2746 90.0328 16.9902C89.9059 16.7058 89.7193 16.4514 89.4805 16.2343C89.2411 16.0173 88.9577 15.8452 88.6215 15.7105C88.2853 15.5833 87.912 15.5084 87.5017 15.501V14.9771H86.7175V15.501C86.3065 15.5084 85.9332 15.5833 85.5977 15.7105C85.2615 15.8452 84.9775 16.0173 84.7387 16.2343C84.4999 16.4514 84.3133 16.7058 84.1864 16.9902C84.0594 17.2746 83.9922 17.574 83.9922 17.8958C83.9922 18.2176 84.0594 18.5169 84.1864 18.8013C84.3133 19.0857 84.4999 19.3327 84.7387 19.5497C84.9775 19.7668 85.2615 19.9464 85.5977 20.0736C85.9332 20.2083 86.3065 20.2832 86.7175 20.2906V20.8145H87.5017Z" fill="white"/>
<path d="M96.5717 17.1852C96.5717 16.9234 96.5189 16.6764 96.4221 16.4443C96.3171 16.2123 96.1758 16.0103 95.9892 15.8382C95.8025 15.6661 95.5857 15.5238 95.3319 15.4265C95.0704 15.3293 94.7864 15.2769 94.4804 15.2769H92.2031V20.5156H92.9874V19.0936H94.4804C94.7864 19.0936 95.0704 19.0413 95.3319 18.944C95.5857 18.8466 95.8025 18.7045 95.9892 18.5324C96.1758 18.3602 96.3171 18.1581 96.4221 17.9261C96.5189 17.6942 96.5717 17.4472 96.5717 17.1852ZM95.7874 17.1852C95.7874 17.5445 95.6756 17.8363 95.4437 18.0534C95.2125 18.2704 94.8914 18.3827 94.4804 18.3827H92.9874V15.9878H94.4804C94.8914 15.9878 95.2125 16.1001 95.4437 16.3171C95.6756 16.5341 95.7874 16.826 95.7874 17.1852Z" fill="white"/>
<path d="M103.963 17.8952C103.963 17.4985 103.889 17.1318 103.74 16.7875C103.59 16.4433 103.388 16.144 103.135 15.882C102.881 15.6276 102.582 15.4255 102.246 15.2758C101.91 15.1261 101.544 15.0513 101.163 15.0513C100.783 15.0513 100.417 15.1261 100.081 15.2758C99.7445 15.4255 99.446 15.6276 99.1921 15.882C98.9383 16.144 98.7365 16.4433 98.587 16.7875C98.4381 17.1318 98.3633 17.4985 98.3633 17.8952C98.3633 18.2918 98.4381 18.6585 98.587 19.0028C98.7365 19.3471 98.9383 19.6464 99.1921 19.9009C99.446 20.1628 99.7445 20.3648 100.081 20.5145C100.417 20.6642 100.783 20.7391 101.163 20.7391C101.544 20.7391 101.91 20.6642 102.246 20.5145C102.582 20.3648 102.881 20.1628 103.135 19.9009C103.388 19.6464 103.59 19.3471 103.74 19.0028C103.889 18.6585 103.963 18.2918 103.963 17.8952ZM99.1475 17.8952C99.1475 17.5958 99.1997 17.3189 99.3115 17.057C99.4233 16.795 99.5654 16.5705 99.752 16.376C99.9386 16.1888 100.148 16.0392 100.394 15.9269C100.641 15.8146 100.894 15.7623 101.163 15.7623C101.432 15.7623 101.686 15.8146 101.933 15.9269C102.179 16.0392 102.388 16.1888 102.575 16.376C102.761 16.5705 102.903 16.795 103.015 17.057C103.127 17.3189 103.179 17.5958 103.179 17.8952C103.179 18.1945 103.127 18.4714 103.015 18.7334C102.903 18.9953 102.761 19.2198 102.575 19.4069C102.388 19.6015 102.179 19.7512 101.933 19.8634C101.686 19.9757 101.432 20.0281 101.163 20.0281C100.894 20.0281 100.641 19.9757 100.394 19.8634C100.148 19.7512 99.9386 19.6015 99.752 19.4069C99.5654 19.2198 99.4233 18.9953 99.3115 18.7334C99.1997 18.4714 99.1475 18.1945 99.1475 17.8952Z" fill="white"/>
<path d="M106.765 15.9878H108.221C108.482 15.9878 108.691 16.0552 108.833 16.1824C108.975 16.3096 109.042 16.4743 109.042 16.6614C109.042 16.8709 108.975 17.0431 108.833 17.1703C108.691 17.305 108.482 17.3723 108.221 17.3723H106.765V15.9878ZM108.594 19.8046H106.765V18.0833H108.594C108.93 18.0833 109.192 18.1657 109.371 18.3303C109.55 18.5024 109.64 18.7045 109.64 18.944C109.64 19.191 109.55 19.393 109.371 19.5577C109.192 19.7223 108.93 19.8046 108.594 19.8046ZM108.221 15.2769H105.98V20.5156H108.594C108.87 20.5156 109.124 20.4707 109.356 20.3883C109.579 20.306 109.773 20.1938 109.93 20.0516C110.088 19.9094 110.215 19.7448 110.296 19.5501C110.379 19.3631 110.423 19.161 110.423 18.944C110.423 18.6446 110.363 18.4051 110.237 18.233C110.11 18.0609 109.975 17.9337 109.826 17.8438C109.654 17.739 109.452 17.6717 109.229 17.6343V17.5969C109.34 17.5595 109.438 17.4921 109.527 17.4098C109.602 17.3424 109.669 17.2451 109.736 17.1254C109.796 17.0057 109.826 16.8485 109.826 16.6614C109.826 16.4743 109.788 16.2947 109.714 16.1226C109.632 15.9579 109.527 15.8082 109.386 15.681C109.244 15.5538 109.079 15.4565 108.885 15.3817C108.684 15.3143 108.467 15.2769 108.221 15.2769Z" fill="white"/>
<path d="M117.745 17.8952C117.745 17.4985 117.67 17.1318 117.521 16.7875C117.371 16.4433 117.17 16.144 116.916 15.882C116.662 15.6276 116.364 15.4255 116.027 15.2758C115.691 15.1261 115.325 15.0513 114.945 15.0513C114.564 15.0513 114.198 15.1261 113.862 15.2758C113.526 15.4255 113.227 15.6276 112.973 15.882C112.72 16.144 112.518 16.4433 112.368 16.7875C112.219 17.1318 112.145 17.4985 112.145 17.8952C112.145 18.2918 112.219 18.6585 112.368 19.0028C112.518 19.3471 112.72 19.6464 112.973 19.9009C113.227 20.1628 113.526 20.3648 113.862 20.5145C114.198 20.6642 114.564 20.7391 114.945 20.7391C115.325 20.7391 115.691 20.6642 116.027 20.5145C116.364 20.3648 116.662 20.1628 116.916 19.9009C117.17 19.6464 117.371 19.3471 117.521 19.0028C117.67 18.6585 117.745 18.2918 117.745 17.8952ZM112.928 17.8952C112.928 17.5958 112.981 17.3189 113.093 17.057C113.205 16.795 113.347 16.5705 113.533 16.376C113.72 16.1888 113.929 16.0392 114.175 15.9269C114.422 15.8146 114.676 15.7623 114.945 15.7623C115.214 15.7623 115.467 15.8146 115.714 15.9269C115.96 16.0392 116.169 16.1888 116.356 16.376C116.543 16.5705 116.685 16.795 116.796 17.057C116.908 17.3189 116.96 17.5958 116.96 17.8952C116.96 18.1945 116.908 18.4714 116.796 18.7334C116.685 18.9953 116.543 19.2198 116.356 19.4069C116.169 19.6015 115.96 19.7512 115.714 19.8634C115.467 19.9757 115.214 20.0281 114.945 20.0281C114.676 20.0281 114.422 19.9757 114.175 19.8634C113.929 19.7512 113.72 19.6015 113.533 19.4069C113.347 19.2198 113.205 18.9953 113.093 18.7334C112.981 18.4714 112.928 18.1945 112.928 17.8952Z" fill="white"/>
<path d="M121.893 14.6779C122.05 14.6779 122.2 14.648 122.334 14.5956C122.461 14.5432 122.581 14.4684 122.678 14.3711C122.775 14.2738 122.849 14.1616 122.902 14.0269C122.954 13.8996 122.977 13.7499 122.977 13.5928H122.379C122.379 13.7425 122.334 13.8622 122.252 13.9445C122.162 14.0343 122.043 14.0792 121.893 14.0792C121.744 14.0792 121.625 14.0343 121.543 13.9445C121.453 13.8622 121.408 13.7425 121.408 13.5928H120.811C120.811 13.7499 120.841 13.8996 120.893 14.0269C120.945 14.1616 121.02 14.2738 121.117 14.3711C121.214 14.4684 121.326 14.5432 121.46 14.5956C121.587 14.648 121.737 14.6779 121.893 14.6779ZM123.163 15.2766L120.624 19.2056H120.55V15.2766H119.766V20.5153H120.624L123.163 16.5863H123.237V20.5153H124.022V15.2766H123.163Z" fill="white"/>
<path d="M70.8086 24.5407H72.563V29.0684H73.3473V24.5407H75.1024V23.8297H70.8086V24.5407Z" fill="white"/>
<path d="M81.2976 25.7381C81.2976 25.4761 81.2454 25.2292 81.1487 24.9972C81.0437 24.7652 80.9024 24.5631 80.7157 24.391C80.5291 24.2188 80.3123 24.0767 80.0584 23.9793C79.797 23.882 79.513 23.8297 79.2069 23.8297H76.9297V29.0684H77.7139V27.6465H79.2069C79.513 27.6465 79.797 27.5941 80.0584 27.4968C80.3123 27.3995 80.5291 27.2573 80.7157 27.0851C80.9024 26.913 81.0437 26.711 81.1487 26.479C81.2454 26.2469 81.2976 26 81.2976 25.7381ZM80.514 25.7381C80.514 26.0973 80.4022 26.3892 80.1703 26.6062C79.939 26.8233 79.6179 26.9355 79.2069 26.9355H77.7139V24.5407H79.2069C79.6179 24.5407 79.939 24.6529 80.1703 24.8699C80.4022 25.087 80.514 25.3789 80.514 25.7381Z" fill="white"/>
<path d="M83.897 27.1224L84.5173 24.5405H85.6L86.212 27.1224H83.897ZM83.8826 23.8296L82.6133 29.0682H83.4346L83.7255 27.8335H86.3836L86.6827 29.0682H87.504L86.2347 23.8296H83.8826Z" fill="white"/>
<path d="M89.4062 23.8296V29.0682H90.1905V26.8231H92.8417V29.0682H93.6252V23.8296H92.8417V26.1121H90.1905V23.8296H89.4062Z" fill="white"/>
<path d="M98.3659 29.2932C98.7097 29.2932 99.0232 29.2409 99.3066 29.1435C99.5906 29.0388 99.837 28.9041 100.053 28.7319C100.27 28.5673 100.449 28.3801 100.591 28.1706C100.733 27.9611 100.837 27.7515 100.905 27.5345L100.12 27.4222C100.053 27.5719 99.9715 27.7141 99.8665 27.8563C99.7622 27.9985 99.6352 28.1183 99.4932 28.223C99.3512 28.3353 99.1872 28.4176 99.0006 28.485C98.814 28.5523 98.5971 28.5822 98.3659 28.5822C98.1121 28.5822 97.8657 28.5298 97.6338 28.4176C97.4026 28.3053 97.1933 28.1557 97.0142 27.9611C96.8352 27.774 96.6931 27.5495 96.5888 27.2875C96.4763 27.0256 96.4242 26.7487 96.4242 26.4493C96.4242 26.15 96.4763 25.8731 96.5888 25.6111C96.6931 25.3492 96.8352 25.1246 97.0142 24.9301C97.1933 24.743 97.4026 24.5934 97.6338 24.4811C97.8657 24.3688 98.1121 24.3164 98.3659 24.3164C98.5827 24.3164 98.7762 24.3464 98.9484 24.4062C99.12 24.4661 99.2771 24.5409 99.4116 24.6382C99.5385 24.7355 99.6503 24.8478 99.7471 24.975C99.8445 25.1022 99.9193 25.2369 99.9715 25.3642L100.755 25.2519C100.688 25.0499 100.591 24.8478 100.457 24.6457C100.322 24.4511 100.158 24.279 99.9564 24.1218C99.7546 23.9647 99.5159 23.8449 99.2545 23.7476C98.993 23.6503 98.6946 23.6055 98.3659 23.6055C98.0002 23.6055 97.6565 23.6803 97.3278 23.83C96.9992 23.9796 96.7082 24.1817 96.4619 24.4361C96.208 24.6981 96.0063 24.9975 95.8643 25.3417C95.7147 25.686 95.6406 26.0527 95.6406 26.4493C95.6406 26.846 95.7147 27.2127 95.8643 27.5569C96.0063 27.9012 96.208 28.2006 96.4619 28.455C96.7082 28.7169 96.9992 28.919 97.3278 29.0687C97.6565 29.2183 98.0002 29.2932 98.3659 29.2932Z" fill="white"/>
<path d="M105.276 24.7651V28.1328C104.97 28.1254 104.694 28.073 104.455 27.9832C104.208 27.9008 104.007 27.7811 103.842 27.6314C103.678 27.4817 103.551 27.3022 103.469 27.1001C103.38 26.898 103.334 26.681 103.334 26.449C103.334 26.217 103.38 25.9999 103.469 25.7979C103.551 25.5958 103.678 25.4237 103.842 25.274C104.007 25.1244 104.208 25.0046 104.455 24.9147C104.694 24.825 104.97 24.7726 105.276 24.7651ZM106.06 28.1328V24.7651C106.366 24.7726 106.642 24.825 106.889 24.9147C107.128 25.0046 107.33 25.1244 107.494 25.274C107.658 25.4237 107.785 25.5958 107.874 25.7979C107.957 25.9999 108.001 26.217 108.001 26.449C108.001 26.681 107.957 26.898 107.874 27.1001C107.785 27.3022 107.658 27.4817 107.494 27.6314C107.33 27.7811 107.128 27.9008 106.889 27.9832C106.642 28.073 106.366 28.1254 106.06 28.1328ZM106.06 29.3677V28.8438C106.471 28.8363 106.844 28.7615 107.18 28.6268C107.516 28.4996 107.8 28.3199 108.039 28.1029C108.278 27.8859 108.465 27.6389 108.591 27.3546C108.718 27.0702 108.786 26.7708 108.786 26.449C108.786 26.1272 108.718 25.8278 108.591 25.5434C108.465 25.2591 108.278 25.0046 108.039 24.7876C107.8 24.5705 107.516 24.3984 107.18 24.2637C106.844 24.1365 106.471 24.0616 106.06 24.0541V23.5303H105.276V24.0541C104.865 24.0616 104.492 24.1365 104.156 24.2637C103.82 24.3984 103.536 24.5705 103.297 24.7876C103.059 25.0046 102.872 25.2591 102.745 25.5434C102.617 25.8278 102.551 26.1272 102.551 26.449C102.551 26.7708 102.617 27.0702 102.745 27.3546C102.872 27.6389 103.059 27.8859 103.297 28.1029C103.536 28.3199 103.82 28.4996 104.156 28.6268C104.492 28.7615 104.865 28.8363 105.276 28.8438V29.3677H106.06Z" fill="white"/>
<path d="M116.1 26.4493C116.1 26.0527 116.025 25.686 115.876 25.3417C115.727 24.9975 115.525 24.6981 115.271 24.4361C115.017 24.1817 114.719 23.9796 114.383 23.83C114.047 23.6803 113.681 23.6055 113.3 23.6055C112.919 23.6055 112.554 23.6803 112.217 23.83C111.881 23.9796 111.583 24.1817 111.329 24.4361C111.075 24.6981 110.873 24.9975 110.724 25.3417C110.575 25.686 110.5 26.0527 110.5 26.4493C110.5 26.846 110.575 27.2127 110.724 27.5569C110.873 27.9012 111.075 28.2006 111.329 28.455C111.583 28.7169 111.881 28.919 112.217 29.0687C112.554 29.2183 112.919 29.2932 113.3 29.2932C113.681 29.2932 114.047 29.2183 114.383 29.0687C114.719 28.919 115.017 28.7169 115.271 28.455C115.525 28.2006 115.727 27.9012 115.876 27.5569C116.025 27.2127 116.1 26.846 116.1 26.4493ZM111.284 26.4493C111.284 26.15 111.336 25.8731 111.448 25.6111C111.56 25.3492 111.702 25.1246 111.889 24.9301C112.075 24.743 112.285 24.5934 112.531 24.4811C112.777 24.3688 113.031 24.3164 113.3 24.3164C113.569 24.3164 113.823 24.3688 114.069 24.4811C114.316 24.5934 114.525 24.743 114.711 24.9301C114.898 25.1246 115.04 25.3492 115.152 25.6111C115.264 25.8731 115.316 26.15 115.316 26.4493C115.316 26.7487 115.264 27.0256 115.152 27.2875C115.04 27.5495 114.898 27.774 114.711 27.9611C114.525 28.1557 114.316 28.3053 114.069 28.4176C113.823 28.5298 113.569 28.5822 113.3 28.5822C113.031 28.5822 112.777 28.5298 112.531 28.4176C112.285 28.3053 112.075 28.1557 111.889 27.9611C111.702 27.774 111.56 27.5495 111.448 27.2875C111.336 27.0256 111.284 26.7487 111.284 26.4493Z" fill="white"/>
<path d="M122.485 25.738C122.485 25.476 122.433 25.229 122.336 24.9971C122.231 24.7651 122.09 24.563 121.903 24.3909C121.717 24.2187 121.5 24.0766 121.246 23.9792C120.985 23.8819 120.7 23.8296 120.394 23.8296H118.117V29.0682H118.901V27.6463H120.394C120.7 27.6463 120.985 27.5939 121.246 27.4967C121.5 27.3994 121.717 27.2571 121.903 27.085C122.09 26.9129 122.231 26.7109 122.336 26.4789C122.433 26.2468 122.485 25.9999 122.485 25.738ZM121.702 25.738C121.702 26.0972 121.589 26.3891 121.358 26.6061C121.127 26.8231 120.805 26.9354 120.394 26.9354H118.901V24.5405H120.394C120.805 24.5405 121.127 24.6528 121.358 24.8698C121.589 25.0869 121.702 25.3787 121.702 25.738Z" fill="white"/>
<path d="M127.227 27.2347L129.057 24.9521H129.131V29.0682H129.915V23.8296H129.057L127.227 26.1121L125.397 23.8296H124.539V29.0682H125.323V24.9521H125.397L127.227 27.2347Z" fill="white"/>
<path d="M133.109 27.1224L133.729 24.5405H134.812L135.424 27.1224H133.109ZM133.094 23.8296L131.824 29.0682H132.646L132.937 27.8335H135.595L135.894 29.0682H136.716L135.446 23.8296H133.094Z" fill="white"/>
<path d="M138.621 29.0682H142.505V29.9664H143.288V28.3573H142.691V23.8296H141.907V28.3573H139.405V23.8296H138.621V29.0682Z" fill="white"/>
<path d="M148.519 23.8296L145.98 27.7586H145.905V23.8296H145.121V29.0682H145.98L148.519 25.1392H148.594V29.0682H149.378V23.8296H148.519Z" fill="white"/>
<path d="M155.049 23.8296L152.511 27.7586H152.436V23.8296H151.652V29.0682H152.511L155.049 25.1392H155.124V29.0682H155.908V23.8296H155.049Z" fill="white"/>
<path d="M29.8397 9.14649C29.3739 9.13768 28.9127 9.22835 28.4831 9.41136C28.2596 9.50654 28.1294 9.74595 28.1294 10.0007V23.2141C28.1294 23.2718 28.0853 23.3184 28.0308 23.3184C27.9763 23.3184 27.9321 23.2718 27.9321 23.2141V15.3632C27.9321 15.286 27.8729 15.2255 27.8005 15.2351C27.7707 15.2391 27.7408 15.243 27.7109 15.2451C27.6878 15.2468 27.669 15.2268 27.669 15.2022C27.669 15.1762 27.6478 15.1557 27.6233 15.158C26.9257 15.2234 26.3719 15.3657 26.164 15.7329C26.1224 15.8061 26.0815 15.881 26.0439 15.9566C26.0003 16.0445 25.9781 16.1434 25.9807 16.2441V23.5736C25.9807 23.6889 25.8923 23.7824 25.7833 23.7824H25.6956C25.6351 23.7824 25.586 23.8342 25.586 23.8984C25.586 23.9624 25.5369 24.0143 25.4764 24.0143H25.3887C25.2797 24.0143 25.1913 24.1078 25.1913 24.223V25.2553C25.1913 25.3001 25.157 25.3364 25.1145 25.3364C25.0722 25.3364 25.0378 25.3728 25.0378 25.4176V25.6959C25.0378 25.7151 25.0231 25.7307 25.005 25.7307C24.9868 25.7307 24.972 25.7463 24.972 25.7655V26.7861C24.972 26.895 24.8886 26.9832 24.7857 26.9832C24.6828 26.9832 24.5993 26.895 24.5993 26.7861V24.1206C24.5993 24.0963 24.5956 24.0721 24.5883 24.0491L24.5871 24.045C24.5807 24.0247 24.5774 24.0034 24.5774 23.9819V23.8182C24.5774 23.7985 24.5622 23.7824 24.5435 23.7824C24.5256 23.7824 24.5107 23.7676 24.5096 23.7487L24.4897 23.4113L24.4747 23.221C24.4703 23.1651 24.5116 23.1194 24.5116 23.0633C24.5116 23.0448 24.5046 23.0271 24.4923 23.0141C24.48 23.0011 24.4633 22.9937 24.4458 22.9937C24.4284 22.9937 24.4117 23.0011 24.3993 23.0141C24.387 23.0271 24.38 23.0448 24.38 23.0633C24.38 23.1176 24.4214 23.1641 24.4172 23.2182L24.4019 23.4113L24.382 23.7487C24.3809 23.7676 24.3661 23.7824 24.3482 23.7824C24.3295 23.7824 24.3143 23.7985 24.3143 23.8182V23.8288C24.3143 23.8544 24.2947 23.8751 24.2704 23.8751H24.1419C24.1039 23.8751 24.0731 23.8426 24.0731 23.8023C24.0731 23.7757 24.0594 23.7512 24.0373 23.7384L23.8719 23.6431C23.8456 23.6279 23.8163 23.62 23.7863 23.62C23.7586 23.62 23.7313 23.6268 23.7065 23.6399L23.5185 23.7393C23.4956 23.7515 23.4811 23.7763 23.4811 23.8034C23.4811 23.8431 23.4508 23.8751 23.4133 23.8751H23.2837C23.2595 23.8751 23.2399 23.8544 23.2399 23.8288V23.8182C23.2399 23.7985 23.2247 23.7824 23.206 23.7824C23.1881 23.7824 23.1732 23.7676 23.1721 23.7487L23.1522 23.4113L23.1372 23.221C23.1328 23.1651 23.1741 23.1194 23.1741 23.0633C23.1741 23.0448 23.1672 23.0271 23.1549 23.0141C23.1425 23.0011 23.1258 22.9937 23.1083 22.9937C23.0909 22.9937 23.0741 23.0011 23.0618 23.0141C23.0495 23.0271 23.0425 23.0448 23.0425 23.0633C23.0425 23.1176 23.084 23.1641 23.0797 23.2182L23.0645 23.4113L23.0433 23.7704C23.0429 23.7769 23.0477 23.7824 23.0539 23.7824C23.0597 23.7824 23.0645 23.7873 23.0645 23.7936V23.9819C23.0645 24.0034 23.0612 24.0247 23.0548 24.045L23.0536 24.0491C23.0463 24.0721 23.0425 24.0963 23.0425 24.1206V25.0813C23.0425 25.1837 22.964 25.2668 22.8672 25.2668C22.7702 25.2668 22.6917 25.1837 22.6917 25.0813V22.2631C22.6917 22.2567 22.6967 22.2515 22.7027 22.2515C22.7087 22.2515 22.7136 22.2463 22.7136 22.2399V21.8826C22.7136 21.8557 22.6931 21.834 22.6677 21.834C22.6441 21.834 22.6243 21.815 22.622 21.79L22.5821 21.3469L22.5677 21.119C22.5629 21.0427 22.626 20.9826 22.626 20.9062C22.626 20.8816 22.6167 20.858 22.6003 20.8406C22.5838 20.8232 22.5615 20.8135 22.5383 20.8135C22.515 20.8135 22.4927 20.8232 22.4762 20.8406C22.4598 20.858 22.4505 20.8816 22.4505 20.9062C22.4505 20.9812 22.5132 21.0477 22.5085 21.1225L22.4944 21.3469L22.4545 21.79C22.4522 21.815 22.4324 21.834 22.4088 21.834C22.3834 21.834 22.3629 21.8557 22.3629 21.8826V21.9848C22.3629 22.068 22.299 22.1355 22.2204 22.1355H22.1436C22.071 22.1355 22.012 22.0732 22.012 21.9964V21.9732C22.012 21.9091 21.963 21.8572 21.9024 21.8572C21.8418 21.8572 21.7928 21.8052 21.7928 21.7412V19.5733C21.7928 19.5664 21.7875 19.5609 21.781 19.5609C21.7752 19.5609 21.7702 19.5564 21.7694 19.5502L21.7506 19.4108C21.7495 19.4027 21.7489 19.3944 21.7489 19.3861V19.2989C21.7489 19.2885 21.7528 19.2784 21.7599 19.271C21.7669 19.2636 21.772 19.2523 21.7656 19.2443L21.7644 19.243L21.7632 19.2418C21.7556 19.2349 21.745 19.2404 21.7379 19.2478L21.7352 19.2507C21.7299 19.2563 21.7263 19.2666 21.7275 19.2744C21.7301 19.2905 21.7489 19.2958 21.7489 19.3121V19.3909C21.7489 19.396 21.7486 19.4011 21.7479 19.4062L21.7284 19.5502C21.7276 19.5564 21.7227 19.5609 21.7168 19.5609C21.7103 19.5609 21.7051 19.5664 21.7051 19.5733V19.6189C21.7051 19.6381 21.6903 19.6537 21.6722 19.6537C21.654 19.6537 21.6393 19.6381 21.6393 19.6189V19.6073C21.6393 19.5817 21.6196 19.5609 21.5954 19.5609H21.5625C21.5444 19.5609 21.5297 19.5454 21.5297 19.5261C21.5297 19.5069 21.5149 19.4913 21.4967 19.4913H21.4521C21.4106 19.4913 21.3764 19.4539 21.3919 19.4132C21.3957 19.4034 21.3984 19.3931 21.3984 19.3825C21.3985 19.3245 21.3858 19.2672 21.3612 19.2151C21.34 19.1702 21.3106 19.1306 21.2747 19.0982C21.2567 19.0819 21.2447 19.0588 21.2447 19.0338V18.9935C21.2447 18.9738 21.2296 18.9578 21.2109 18.9578C21.193 18.9578 21.1782 18.9429 21.1773 18.9239L21.113 17.4966L21.0705 16.7539C21.0699 16.7438 21.0799 16.7368 21.0884 16.7413L21.0923 16.7434C21.1042 16.7497 21.1153 16.7335 21.1059 16.7235C21.0994 16.7167 21.1025 16.7049 21.111 16.7015C21.1453 16.6879 21.1748 16.6632 21.1953 16.6306C21.2052 16.6151 21.2126 16.5981 21.2176 16.5805C21.2322 16.5282 21.2302 16.4695 21.2117 16.4186C21.2078 16.4077 21.2028 16.3972 21.1969 16.3872L21.1931 16.381C21.1877 16.3726 21.179 16.3833 21.1833 16.3925C21.1989 16.4254 21.205 16.4625 21.2008 16.4992C21.1969 16.5494 21.1778 16.597 21.1461 16.6347C21.1358 16.6469 21.1243 16.658 21.1119 16.6676C21.0609 16.7071 20.989 16.7118 20.9363 16.6749C20.9225 16.6652 20.9098 16.6536 20.8986 16.6403C20.8661 16.6015 20.8486 16.5511 20.8499 16.4992C20.8499 16.4632 20.8579 16.4277 20.8731 16.3955C20.8783 16.3844 20.8683 16.373 20.8617 16.3833L20.8577 16.3898C20.8383 16.4226 20.828 16.4605 20.828 16.4992C20.8287 16.5436 20.8415 16.587 20.8648 16.624C20.8848 16.6558 20.9119 16.6817 20.9435 16.6997C20.951 16.704 20.953 16.7149 20.9469 16.7213C20.9371 16.7317 20.9486 16.7485 20.961 16.742C20.9695 16.7375 20.9808 16.7438 20.9802 16.7539L20.9377 17.4966L20.8734 18.9239C20.8725 18.9429 20.8577 18.9578 20.8398 18.9578C20.8212 18.9578 20.8061 18.9738 20.8061 18.9935V19.0352C20.8061 19.0595 20.795 19.0821 20.778 19.0984C20.7431 19.132 20.7143 19.1722 20.6931 19.217C20.6665 19.2734 20.6526 19.3355 20.6526 19.3986C20.6526 19.4449 20.6526 19.4913 20.6746 19.4913H20.554C20.5358 19.4913 20.521 19.5069 20.521 19.5261C20.521 19.5454 20.5063 19.5609 20.4882 19.5609H20.4553C20.4311 19.5609 20.4115 19.5817 20.4115 19.6073V19.6189C20.4115 19.6381 20.3967 19.6537 20.3785 19.6537C20.3604 19.6537 20.3457 19.6381 20.3457 19.6189V19.5733C20.3457 19.5664 20.3404 19.5609 20.3339 19.5609C20.328 19.5609 20.3231 19.5564 20.3223 19.5502L20.3034 19.4108C20.3023 19.4027 20.3018 19.3944 20.3018 19.3861V19.2989C20.3018 19.2885 20.3057 19.2784 20.3128 19.271C20.3198 19.2636 20.3249 19.2523 20.3185 19.2443L20.3173 19.243C20.3132 19.2387 20.3076 19.2362 20.3018 19.2362C20.289 19.2381 20.2769 19.2433 20.2667 19.2514C20.2607 19.2561 20.2573 19.2666 20.2585 19.2743C20.2611 19.2905 20.2799 19.2958 20.2799 19.3122V19.3909C20.2799 19.396 20.2795 19.4011 20.2789 19.4062L20.2594 19.5502C20.2586 19.5564 20.2536 19.5609 20.2478 19.5609C20.2413 19.5609 20.236 19.5664 20.236 19.5733V21.7528C20.236 21.8233 20.1821 21.8804 20.1154 21.8804C20.0488 21.8804 19.9948 21.9375 19.9948 22.008V22.0195C19.9948 22.0964 19.9359 22.1587 19.8633 22.1587H19.7865C19.7078 22.1587 19.644 22.0912 19.644 22.008V21.9058C19.644 21.8789 19.6234 21.8572 19.5981 21.8572C19.5744 21.8572 19.5546 21.8381 19.5524 21.8132L19.5125 21.3701L19.4981 21.1422C19.4933 21.0659 19.5563 21.0058 19.5563 20.9294C19.5563 20.9048 19.547 20.8812 19.5306 20.8638C19.5142 20.8464 19.4919 20.8366 19.4686 20.8366C19.4453 20.8366 19.423 20.8464 19.4066 20.8638C19.3902 20.8812 19.3809 20.9048 19.3809 20.9294C19.3809 21.0044 19.4436 21.0709 19.4389 21.1458L19.4247 21.3701L19.3829 21.8352C19.3818 21.8477 19.3719 21.8572 19.36 21.8572C19.3473 21.8572 19.3371 21.8681 19.3371 21.8815V22.2631C19.3371 22.2695 19.342 22.2747 19.348 22.2747C19.354 22.2747 19.359 22.2799 19.359 22.2863V24.8957C19.359 25.1135 19.1921 25.29 18.9863 25.29C18.7803 25.29 18.6135 25.1135 18.6135 24.8957V24.1437C18.6135 24.1194 18.6098 24.0953 18.6026 24.0723L18.6012 24.0682C18.5948 24.0479 18.5915 24.0266 18.5915 24.0051V23.8415C18.5915 23.8216 18.5764 23.8055 18.5576 23.8055C18.5397 23.8055 18.5249 23.7908 18.5238 23.7719L18.5039 23.4344L18.4889 23.2442C18.4844 23.1883 18.5258 23.1426 18.5258 23.0865C18.5258 23.0681 18.5189 23.0504 18.5065 23.0373C18.4942 23.0242 18.4774 23.0169 18.46 23.0169C18.4425 23.0169 18.4258 23.0242 18.4135 23.0373C18.4012 23.0504 18.3942 23.0681 18.3942 23.0865C18.3942 23.1408 18.4357 23.1873 18.4314 23.2414L18.4162 23.4344L18.3962 23.7719C18.3951 23.7908 18.3803 23.8055 18.3624 23.8055C18.3436 23.8055 18.3284 23.8216 18.3284 23.8415V23.8519C18.3284 23.8775 18.3088 23.8984 18.2846 23.8984H18.1698C18.1242 23.8984 18.0873 23.8592 18.0873 23.811C18.0873 23.779 18.0708 23.7496 18.0443 23.7343L17.8653 23.6311C17.8527 23.6238 17.8385 23.62 17.8242 23.62C17.8098 23.62 17.7956 23.6238 17.783 23.6311L17.5969 23.7384C17.5748 23.7512 17.561 23.7757 17.561 23.8023C17.561 23.8426 17.5303 23.8751 17.4922 23.8751H17.3637C17.3395 23.8751 17.3199 23.8544 17.3199 23.8288V23.8182C17.3199 23.7985 17.3047 23.7824 17.286 23.7824C17.268 23.7824 17.2532 23.7676 17.2521 23.7487L17.2321 23.4113L17.2172 23.221C17.2128 23.1651 17.2541 23.1194 17.2541 23.0633C17.2541 23.0448 17.2471 23.0271 17.2348 23.0141C17.2225 23.0011 17.2058 22.9937 17.1883 22.9937C17.1709 22.9937 17.1541 23.0011 17.1418 23.0141C17.1294 23.0271 17.1225 23.0448 17.1225 23.0633C17.1225 23.1176 17.1639 23.1641 17.1597 23.2182L17.1444 23.4113L17.1245 23.7487C17.1234 23.7676 17.1086 23.7824 17.0907 23.7824C17.0719 23.7824 17.0568 23.7985 17.0568 23.8182V23.9819C17.0568 24.0034 17.0535 24.0247 17.0471 24.045L17.0457 24.0491C17.0385 24.0721 17.0348 24.0963 17.0348 24.1206V28.0119C17.0348 28.0587 16.999 28.0966 16.9548 28.0966C16.9234 28.0966 16.8949 28.116 16.8819 28.1462L16.8047 28.3261C16.7995 28.3381 16.8078 28.3517 16.8203 28.3517C16.8298 28.3517 16.8375 28.3598 16.8375 28.3699V28.7112C16.8375 28.7817 16.7835 28.8388 16.7169 28.8388H16.6603C16.625 28.8388 16.5963 28.8691 16.5963 28.9065C16.5963 28.9227 16.5908 28.9384 16.5808 28.9506L16.3646 29.2175C16.3447 29.2422 16.3155 29.2563 16.2848 29.2563C16.2268 29.2563 16.1797 29.3061 16.1797 29.3675V29.7666C16.1797 29.7922 16.1601 29.813 16.1358 29.813C16.1116 29.813 16.092 29.8338 16.092 29.8594V29.9405C16.092 29.9726 16.0674 29.9985 16.0372 29.9985C16.0069 29.9985 15.9824 30.0245 15.9824 30.0565V30.5436C15.9824 30.6525 15.8989 30.7408 15.796 30.7408H15.6863C15.644 30.7408 15.6096 30.7771 15.6096 30.822V30.8684C15.6096 30.8876 15.6244 30.9031 15.6425 30.9031C15.6607 30.9031 15.6754 30.9187 15.6754 30.938V31.3293C15.6754 31.5278 15.5453 31.7002 15.3624 31.7451C8.62779 33.4001 4.98368 34.639 0.0390625 36.9232C16.1548 31.4724 35.8254 28.862 60.0757 28.862C61.9303 28.862 63.6287 28.8804 65.4335 28.9172C65.8014 28.9247 66.1044 28.6104 66.1031 28.2205L66.0834 22.1355V21.9964L65.9083 19.329V18.8535C65.9083 18.7702 65.9719 18.7027 66.0506 18.7027H66.0617C66.1339 18.7027 66.1929 18.6404 66.1929 18.5636V18.5056C66.1929 18.4607 66.1588 18.4244 66.1162 18.4244C66.0742 18.4244 66.0395 18.388 66.0395 18.3432V18.0997C66.0395 18.074 66.0591 18.0532 66.0834 18.0532C66.1077 18.0532 66.1273 18.0325 66.1273 18.0068V17.8933C66.1273 17.8151 66.0676 17.7517 65.9935 17.7517C65.9214 17.7517 65.8624 17.6912 65.8598 17.615L65.7981 15.7106V15.4903C65.7981 15.4838 65.8034 15.4786 65.8093 15.4786C65.8152 15.4786 65.8204 15.4735 65.8204 15.467V15.2351C65.8204 15.2159 65.8053 15.2003 65.7876 15.2003C65.7693 15.2003 65.7548 15.1847 65.7548 15.1655V15.0031C65.7548 14.9839 65.7693 14.9684 65.7876 14.9684C65.8053 14.9684 65.8204 14.9527 65.8204 14.9335V14.7255C65.8204 14.7059 65.8053 14.69 65.787 14.69C65.7686 14.69 65.7542 14.675 65.7535 14.6559L65.6925 12.9753C65.6906 12.9237 65.7293 12.8808 65.7784 12.8808C65.8257 12.8808 65.8643 12.8401 65.8643 12.7898V12.6953C65.8643 12.6696 65.884 12.6489 65.9083 12.6489C65.9326 12.6489 65.9522 12.6281 65.9522 12.6025V12.1038C65.9522 12.0846 65.9371 12.069 65.9188 12.069C65.9011 12.069 65.886 12.0534 65.886 12.0342V11.9878C65.886 11.9686 65.8716 11.953 65.8532 11.953C65.8348 11.953 65.8204 11.9374 65.8204 11.9182V11.4775C65.8204 11.4583 65.8348 11.4427 65.8532 11.4427C65.8716 11.4427 65.886 11.4272 65.886 11.408V11.2108C65.886 11.1595 65.8466 11.118 65.7981 11.118C65.7502 11.118 65.7109 11.0765 65.7109 11.0252V10.6193C65.7109 10.6001 65.7253 10.5846 65.7437 10.5846C65.762 10.5846 65.7765 10.5689 65.7765 10.5497V10.3642C65.7765 10.3449 65.762 10.3294 65.7437 10.3294C65.7253 10.3294 65.7109 10.3138 65.7109 10.2946V9.78432C65.7109 9.7651 65.7253 9.74949 65.7437 9.74949C65.762 9.74949 65.7765 9.73395 65.7765 9.71474V9.52916C65.7765 9.50994 65.762 9.4944 65.7437 9.4944C65.7253 9.4944 65.7109 9.47879 65.7109 9.45958V8.97249C65.7109 8.91484 65.7548 8.86815 65.8093 8.86815C65.8637 8.86815 65.9083 8.82139 65.9083 8.76374V8.47383C65.9083 8.44816 65.928 8.42742 65.9522 8.42742C65.9758 8.42742 65.9955 8.40667 65.9955 8.381V7.96352C65.9955 7.95071 65.9857 7.94033 65.9739 7.94033C65.9614 7.94033 65.9522 7.92995 65.9522 7.91714V7.32567C65.9522 7.2424 65.888 7.1749 65.8093 7.1749C65.7306 7.1749 65.667 7.1074 65.667 7.02414V6.49066C65.667 6.47144 65.6814 6.45587 65.6997 6.45587C65.7181 6.45587 65.7325 6.44029 65.7325 6.42108V6.40948C65.7325 6.38386 65.7129 6.36308 65.6886 6.36308H65.667C65.6302 6.36308 65.6014 6.33194 65.6014 6.2935V5.21494C65.6014 5.19573 65.6158 5.18015 65.6342 5.18015C65.6519 5.18015 65.667 5.16458 65.667 5.14536V5.13376C65.667 5.10814 65.6473 5.08737 65.623 5.08737H65.6014C65.5647 5.08737 65.5351 5.05622 65.5351 5.0178V3.99722C65.5351 3.9716 65.5548 3.95083 65.5791 3.95083H65.6014C65.6132 3.95083 65.623 3.94045 65.623 3.92763C65.623 3.91483 65.6132 3.90444 65.6014 3.90444H65.5679C65.5378 3.90444 65.5135 3.87848 65.5135 3.84645V3.13901C65.5135 3.1262 65.5233 3.11582 65.5351 3.11582C65.5476 3.11582 65.5574 3.10544 65.5574 3.09262V3.05783C65.5574 3.03861 65.5424 3.02304 65.5246 3.02304C65.5063 3.02304 65.4912 3.00747 65.4912 2.98825V2.304C65.4912 2.29119 65.501 2.28081 65.5135 2.28081C65.5253 2.28081 65.5351 2.27042 65.5351 2.25761V2.22282C65.5351 2.20361 65.5207 2.18803 65.5023 2.18803C65.484 2.18803 65.4696 2.17245 65.4696 2.15323V1.65455C65.4696 1.64174 65.4794 1.63135 65.4912 1.63135C65.5037 1.63135 65.5135 1.62097 65.5135 1.60816V1.58496C65.5135 1.55934 65.4938 1.53857 65.4696 1.53857C65.4453 1.53857 65.4256 1.55934 65.4256 1.58496V1.60816C65.4256 1.62097 65.4355 1.63135 65.4479 1.63135C65.4597 1.63135 65.4696 1.64174 65.4696 1.65455V2.11845C65.4696 2.14407 65.4499 2.16483 65.4256 2.16483C65.4014 2.16483 65.3817 2.1856 65.3817 2.21122V2.25761C65.3817 2.27042 65.3915 2.28081 65.404 2.28081C65.4158 2.28081 65.4256 2.29119 65.4256 2.304V2.98824C65.4256 3.00746 65.4112 3.02304 65.3928 3.02304C65.3745 3.02304 65.36 3.03861 65.36 3.05783V3.09262C65.36 3.10543 65.3699 3.11582 65.3817 3.11582C65.3941 3.11582 65.404 3.12621 65.404 3.13901V3.80007C65.404 3.83209 65.3791 3.85805 65.3489 3.85805H65.3377C65.3135 3.85805 65.2945 3.87882 65.2945 3.90444C65.2945 3.93006 65.3135 3.95083 65.3377 3.95083C65.362 3.95083 65.3817 3.9716 65.3817 3.99722V4.9946C65.3817 5.03302 65.3522 5.06418 65.3161 5.06418H65.2945C65.2702 5.06418 65.2505 5.08495 65.2505 5.11057V5.12216C65.2505 5.14138 65.2649 5.15696 65.2833 5.15696C65.301 5.15696 65.3161 5.17254 65.3161 5.19175V6.25871C65.3161 6.30355 65.282 6.33989 65.2394 6.33989H65.2066C65.1823 6.33989 65.1626 6.36066 65.1626 6.38628V6.39788C65.1626 6.41709 65.1771 6.43267 65.1954 6.43267C65.2138 6.43267 65.2282 6.44825 65.2282 6.46746V7.00095C65.2282 7.08421 65.1646 7.15171 65.0859 7.15171C65.0072 7.15171 64.9436 7.2192 64.9436 7.30248V7.89394C64.9436 7.90675 64.9338 7.91714 64.9213 7.91714C64.9095 7.91714 64.8997 7.92752 64.8997 7.94034V8.35783C64.8997 8.38343 64.9193 8.40424 64.9436 8.40424C64.9672 8.40424 64.9869 8.42499 64.9869 8.45059V8.74057C64.9869 8.79822 65.0315 8.84491 65.0859 8.84491C65.1403 8.84491 65.1843 8.89167 65.1843 8.94932V9.4364C65.1843 9.45562 65.1699 9.47116 65.1515 9.47116C65.1331 9.47116 65.1187 9.48677 65.1187 9.50599V9.69156C65.1187 9.71078 65.1331 9.72632 65.1515 9.72632C65.1699 9.72632 65.1843 9.74193 65.1843 9.76115V10.2714C65.1843 10.2906 65.1699 10.3062 65.1515 10.3062C65.1331 10.3062 65.1187 10.3218 65.1187 10.341V10.5266C65.1187 10.5458 65.1331 10.5613 65.1515 10.5613C65.1699 10.5613 65.1843 10.5769 65.1843 10.5961V11.0136C65.1843 11.0585 65.1502 11.0948 65.1076 11.0948C65.0656 11.0948 65.0308 11.1312 65.0308 11.176V11.3847C65.0308 11.4039 65.0459 11.4196 65.0636 11.4196C65.082 11.4196 65.0971 11.4351 65.0971 11.4543V11.895C65.0971 11.9143 65.082 11.9298 65.0636 11.9298C65.0459 11.9298 65.0308 11.9454 65.0308 11.9646V11.9994C65.0308 12.0251 65.0111 12.0458 64.9869 12.0458C64.9626 12.0458 64.9436 12.0665 64.9436 12.0922V12.5793C64.9436 12.6049 64.9626 12.6257 64.9869 12.6257C65.0111 12.6257 65.0308 12.6464 65.0308 12.672V12.7666C65.0308 12.8169 65.0695 12.8576 65.1167 12.8576C65.1659 12.8576 65.2046 12.9005 65.2033 12.9521L65.1416 14.6327C65.141 14.6517 65.1266 14.6668 65.1082 14.6668C65.0898 14.6668 65.0748 14.6827 65.0748 14.7023V14.9104C65.0748 14.9296 65.0898 14.9452 65.1076 14.9452C65.1259 14.9452 65.1403 14.9607 65.1403 14.9799V15.1423C65.1403 15.1615 65.1259 15.1771 65.1076 15.1771C65.0898 15.1771 65.0748 15.1926 65.0748 15.2119V15.4438C65.0748 15.4502 65.08 15.4554 65.0859 15.4554C65.0918 15.4554 65.0971 15.4606 65.0971 15.467V15.6874L65.0354 17.5918C65.0328 17.6681 64.9738 17.7285 64.9016 17.7285C64.8275 17.7285 64.7678 17.7919 64.7678 17.8701V17.9837C64.7678 18.0093 64.7875 18.0301 64.8118 18.0301C64.8361 18.0301 64.8557 18.0508 64.8557 18.0764V18.3548C64.8557 18.3932 64.8262 18.4244 64.7901 18.4244C64.7534 18.4244 64.7239 18.4555 64.7239 18.494V18.5636C64.7239 18.6404 64.7829 18.7027 64.8557 18.7027H64.8669C64.9456 18.7027 65.0092 18.7702 65.0092 18.8535V19.329L64.9213 21.9964V22.1355L64.8793 23.5884C64.8787 23.6141 64.8524 23.6308 64.8288 23.6252C64.8085 23.6206 64.7921 23.6395 64.7947 23.6612L64.8262 23.9452C64.8301 23.9819 64.8026 24.0143 64.7678 24.0143C64.7331 24.0143 64.7055 23.9819 64.7101 23.9452L64.7272 23.7898C64.7344 23.7212 64.6577 23.6662 64.5928 23.6662C64.5272 23.6662 64.4504 23.7212 64.4576 23.7898L64.4714 23.9106C64.4773 23.9659 64.4367 24.0143 64.3842 24.0143C64.3317 24.0143 64.2911 23.9659 64.297 23.9106L64.3107 23.7898C64.318 23.7212 64.2412 23.6662 64.1757 23.6662C64.1107 23.6662 64.0334 23.7212 64.0412 23.7898L64.0583 23.9452C64.0629 23.9819 64.0353 24.0143 64.0006 24.0143C63.9658 24.0143 63.9383 23.9819 63.9422 23.9452L63.9599 23.7898C63.9671 23.7212 63.8904 23.6662 63.8248 23.6662C63.7599 23.6662 63.6832 23.7212 63.6904 23.7898L63.7081 23.9452C63.712 23.9819 63.6845 24.0143 63.6497 24.0143C63.6149 24.0143 63.5874 23.9819 63.5913 23.9452L63.609 23.7898C63.6163 23.7212 63.5395 23.6662 63.4739 23.6662C63.409 23.6662 63.3323 23.7212 63.3395 23.7898L63.3552 23.9289C63.3605 23.9744 63.3264 24.0143 63.2834 24.0143C63.2435 24.0143 63.2112 23.9801 63.2112 23.9379V23.1677C63.2112 23.1613 63.2161 23.1561 63.2221 23.1561C63.2282 23.1561 63.2331 23.1509 63.2331 23.1445V23.0517C63.2331 22.994 63.1889 22.9474 63.1344 22.9474H63.0869C63.0186 22.9474 62.9593 22.8972 62.9443 22.8266L62.9399 22.8058C62.8997 22.6171 62.6455 22.6171 62.6054 22.8058L62.5924 22.8669C62.5824 22.9139 62.5429 22.9474 62.4973 22.9474C62.4435 22.9474 62.3999 22.9935 62.3999 23.0505V23.1793C62.3999 23.1921 62.4097 23.2024 62.4218 23.2024C62.4339 23.2024 62.4437 23.2129 62.4437 23.2257V24.0402C62.4437 24.0644 62.4253 24.0839 62.4024 24.0839C62.3778 24.0839 62.3586 24.0611 62.3615 24.0351L62.381 23.8594C62.3887 23.7908 62.3117 23.7357 62.2464 23.7357C62.1811 23.7357 62.1042 23.7908 62.1118 23.8594L62.1291 24.0148C62.1332 24.0516 62.106 24.0839 62.071 24.0839C62.036 24.0839 62.0088 24.0516 62.0129 24.0148L62.0302 23.8594C62.0378 23.7908 61.9609 23.7357 61.8956 23.7357C61.8303 23.7357 61.7534 23.7908 61.761 23.8594L61.777 24.0032C61.7818 24.0462 61.75 24.0839 61.7092 24.0839C61.6684 24.0839 61.6367 24.0462 61.6414 24.0032L61.6574 23.8594C61.665 23.7908 61.5881 23.7357 61.5229 23.7357C61.4576 23.7357 61.3806 23.7908 61.3882 23.8594L61.4042 24.0032C61.409 24.0462 61.3773 24.0839 61.3365 24.0839C61.2956 24.0839 61.264 24.0462 61.2687 24.0032L61.2847 23.8594C61.2924 23.7908 61.2154 23.7357 61.1501 23.7357C61.0848 23.7357 61.0079 23.7908 61.0155 23.8594L61.0328 24.0148C61.0369 24.0516 61.0097 24.0839 60.9747 24.0839C60.9397 24.0839 60.9125 24.0516 60.9166 24.0148L60.9339 23.8594C60.9415 23.7908 60.8646 23.7357 60.7993 23.7357C60.734 23.7357 60.6571 23.7908 60.6647 23.8594L60.682 24.0148C60.6861 24.0516 60.6589 24.0839 60.6239 24.0839C60.5889 24.0839 60.5617 24.0516 60.5658 24.0148L60.583 23.8594C60.5907 23.7908 60.5138 23.7357 60.4485 23.7357C60.3832 23.7357 60.3062 23.7908 60.3139 23.8594L60.3311 24.0148C60.3352 24.0516 60.3081 24.0839 60.273 24.0839C60.238 24.0839 60.2109 24.0516 60.2149 24.0148L60.2455 23.74C60.2485 23.7132 60.2286 23.6937 60.2044 23.7022C60.182 23.7101 60.1635 23.6925 60.1635 23.6676V19.1666L60.1196 18.5172V18.4707C60.1196 18.4451 60.1392 18.4244 60.1635 18.4244C60.1877 18.4244 60.2073 18.4036 60.2073 18.378V18.2736C60.2073 18.2544 60.222 18.2388 60.2402 18.2388C60.2583 18.2388 60.273 18.2232 60.273 18.204V17.7918C60.273 17.7696 60.2561 17.7517 60.2352 17.7517C60.2186 17.7517 60.2039 17.7402 60.1991 17.7234L60.1225 17.4603C60.1206 17.4536 60.1192 17.4467 60.1184 17.4397C60.1034 17.3034 59.9164 17.3034 59.9015 17.4397C59.9007 17.4467 59.8993 17.4536 59.8974 17.4603L59.8208 17.7234C59.8159 17.7402 59.8013 17.7517 59.7847 17.7517H59.7814C59.7623 17.7517 59.7468 17.768 59.7468 17.7882C59.7468 17.8147 59.7211 17.8324 59.6982 17.8217L59.5734 17.763C59.5576 17.7556 59.5406 17.7517 59.5233 17.7517H59.4958C59.3559 17.7517 59.2425 17.6318 59.2425 17.4838V17.0095C59.2425 16.9711 59.2131 16.9399 59.1767 16.9399C59.1404 16.9399 59.111 16.9088 59.111 16.8703V15.6435C59.111 15.6294 59.1001 15.6178 59.0866 15.6178C59.0752 15.6178 59.0654 15.6094 59.0629 15.5977L58.9858 15.2305C58.982 15.2128 58.9673 15.2003 58.9502 15.2003C58.93 15.2003 58.9136 15.183 58.9136 15.1617V14.574C58.9136 14.5612 58.9235 14.5509 58.9356 14.5509C58.9477 14.5509 58.9575 14.5404 58.9575 14.5276V14.2841C58.9575 14.2649 58.9722 14.2493 58.9904 14.2493C59.0085 14.2493 59.0233 14.2337 59.0233 14.2145V13.8666C59.0233 13.8474 59.0085 13.8318 58.9904 13.8318C58.9722 13.8318 58.9575 13.8162 58.9575 13.797V12.901C58.9575 12.8898 58.966 12.8808 58.9765 12.8808C58.989 12.8808 58.9982 12.8682 58.9949 12.8555L58.9136 12.5329L58.8191 12.2473C58.7838 12.1405 58.6886 12.069 58.5815 12.069C58.4573 12.069 58.3516 11.973 58.3327 11.8431L57.7967 8.14695C57.7887 8.0915 57.85 8.05519 57.8904 8.09143C57.9356 8.13182 58.002 8.08235 57.9812 8.02381L57.9489 7.9326C57.936 7.89612 57.9478 7.855 57.9778 7.83235L57.9828 7.8285C58.0558 7.77338 58.0154 7.65164 57.9259 7.6569L57.9023 7.65829C57.8658 7.66044 57.8332 7.63461 57.8248 7.59703C57.8066 7.5152 57.6965 7.5152 57.6783 7.59703C57.67 7.63461 57.6373 7.66044 57.6008 7.65829L57.5772 7.6569C57.4877 7.65164 57.4473 7.77338 57.5202 7.8285L57.5254 7.83235C57.5553 7.855 57.5671 7.89612 57.5542 7.9326L57.5219 8.02381C57.5012 8.08235 57.5675 8.13182 57.6127 8.09143C57.6531 8.05519 57.7144 8.0915 57.7064 8.14695L57.1685 11.8556C57.1508 11.9784 57.051 12.069 56.9336 12.069C56.8325 12.069 56.7425 12.1365 56.7091 12.2374L56.6114 12.5329L56.5301 12.8555C56.5268 12.8682 56.5359 12.8808 56.5485 12.8808C56.559 12.8808 56.5676 12.8898 56.5676 12.901V13.797C56.5676 13.8162 56.5528 13.8318 56.5346 13.8318C56.5165 13.8318 56.5018 13.8474 56.5018 13.8666V14.2145C56.5018 14.2337 56.5165 14.2493 56.5346 14.2493C56.5528 14.2493 56.5676 14.2649 56.5676 14.2841V14.5276C56.5676 14.5404 56.5773 14.5509 56.5895 14.5509C56.6016 14.5509 56.6114 14.5612 56.6114 14.574V15.2313C56.6114 15.2526 56.595 15.2699 56.5749 15.2699C56.5578 15.2699 56.543 15.2824 56.5393 15.3001L56.4643 15.6572C56.4605 15.6748 56.4457 15.6874 56.4287 15.6874C56.4085 15.6874 56.3921 15.7047 56.3921 15.726V16.9631C56.3921 16.9887 56.3725 17.0095 56.3483 17.0095C56.3241 17.0095 56.3045 17.0302 56.3045 17.0558V17.7065C56.3045 17.7699 56.2559 17.8213 56.1959 17.8213C56.1807 17.8213 56.1657 17.8247 56.1518 17.8312L56.0241 17.8913C56.0013 17.902 55.9756 17.8843 55.9756 17.8578C55.9756 17.8377 55.9601 17.8213 55.941 17.8213H55.9377C55.9211 17.8213 55.9064 17.8098 55.9015 17.793L55.825 17.5299C55.823 17.5231 55.8216 17.5163 55.8209 17.5093C55.8059 17.373 55.6189 17.373 55.6039 17.5093C55.6032 17.5162 55.6018 17.5231 55.5999 17.5299L55.5233 17.793C55.5184 17.8098 55.5038 17.8213 55.4871 17.8213C55.4663 17.8213 55.4494 17.8392 55.4494 17.8614V18.2736C55.4494 18.2928 55.464 18.3084 55.4822 18.3084C55.5004 18.3084 55.5151 18.3239 55.5151 18.3432V18.4476C55.5151 18.4732 55.5347 18.494 55.5589 18.494C55.5831 18.494 55.6028 18.5147 55.6028 18.5403V18.5867L55.5589 19.2362V24.0866C55.5589 24.1107 55.5404 24.1303 55.5177 24.1303C55.493 24.1303 55.4738 24.1074 55.4767 24.0815L55.4962 23.9058C55.5039 23.8372 55.4269 23.7821 55.3616 23.7821C55.2963 23.7821 55.2194 23.8372 55.227 23.9058L55.2443 24.0612C55.2484 24.0979 55.2212 24.1303 55.1862 24.1303C55.1512 24.1303 55.124 24.0979 55.1281 24.0612L55.1454 23.9058C55.153 23.8372 55.0761 23.7821 55.0108 23.7821C54.9455 23.7821 54.8686 23.8372 54.8762 23.9058L54.8935 24.0612C54.8976 24.0979 54.8704 24.1303 54.8354 24.1303C54.8004 24.1303 54.7732 24.0979 54.7773 24.0612L54.7946 23.9058C54.8022 23.8372 54.7253 23.7821 54.66 23.7821C54.5947 23.7821 54.5178 23.8372 54.5254 23.9058L54.5426 24.0612C54.5468 24.0979 54.5196 24.1303 54.4846 24.1303C54.4496 24.1303 54.4224 24.0979 54.4265 24.0612L54.4437 23.9058C54.4514 23.8372 54.3745 23.7821 54.3092 23.7821C54.2439 23.7821 54.1669 23.8372 54.1745 23.9058L54.1918 24.0612C54.1959 24.0979 54.1688 24.1303 54.1337 24.1303C54.0987 24.1303 54.0716 24.0979 54.0756 24.0612L54.093 23.9058C54.1006 23.8372 54.0236 23.7821 53.9583 23.7821C53.8931 23.7821 53.8161 23.8372 53.8237 23.9058L53.8359 24.0151C53.8427 24.0764 53.7974 24.1303 53.7391 24.1303C53.6807 24.1303 53.6355 24.0764 53.6423 24.0151L53.6544 23.9058C53.662 23.8372 53.5851 23.7821 53.5198 23.7821C53.4545 23.7821 53.3776 23.8372 53.3852 23.9058L53.4012 24.0497C53.406 24.0926 53.3743 24.1303 53.3335 24.1303C53.2926 24.1303 53.2609 24.0926 53.2657 24.0497L53.2817 23.9058C53.2893 23.8372 53.2124 23.7821 53.1471 23.7821C53.0818 23.7821 53.0049 23.8372 53.0125 23.9058L53.032 24.0815C53.0349 24.1074 53.0157 24.1303 52.991 24.1303C52.9683 24.1303 52.9498 24.1107 52.9498 24.0866V23.2605C52.9498 23.2541 52.9547 23.2489 52.9607 23.2489C52.9667 23.2489 52.9717 23.2437 52.9717 23.2373V23.1213C52.9717 23.0509 52.9177 22.9937 52.8511 22.9937H52.8012C52.7213 22.9937 52.6522 22.9352 52.6347 22.8528C52.5946 22.6641 52.3403 22.6635 52.3001 22.8522L52.2893 22.9032C52.278 22.9562 52.2336 22.9937 52.1823 22.9937C52.1218 22.9937 52.0727 23.0457 52.0727 23.1097V23.2257C52.0727 23.2385 52.0825 23.2489 52.0947 23.2489C52.1067 23.2489 52.1166 23.2593 52.1166 23.2721V24.0866C52.1166 24.1107 52.0981 24.1303 52.0752 24.1303C52.0506 24.1303 52.0314 24.1074 52.0343 24.0815L52.0538 23.9058C52.0615 23.8372 51.9846 23.7821 51.9192 23.7821C51.8539 23.7821 51.777 23.8372 51.7846 23.9058L51.8019 24.0612C51.806 24.0979 51.7788 24.1303 51.7438 24.1303C51.7088 24.1303 51.6816 24.0979 51.6857 24.0612L51.703 23.9058C51.7106 23.8372 51.6337 23.7821 51.5684 23.7821C51.5031 23.7821 51.4262 23.8372 51.4338 23.9058L51.4511 24.0612C51.4552 24.0979 51.428 24.1303 51.393 24.1303C51.358 24.1303 51.3308 24.0979 51.3349 24.0612L51.3522 23.9058C51.3598 23.8372 51.2829 23.7821 51.2176 23.7821C51.1523 23.7821 51.0753 23.8372 51.083 23.9058L51.0964 24.0266C51.1026 24.0818 51.0618 24.1303 51.0093 24.1303C50.9568 24.1303 50.916 24.0818 50.9222 24.0266L50.9356 23.9058C50.9432 23.8372 50.8663 23.7821 50.801 23.7821C50.7357 23.7821 50.6588 23.8372 50.6664 23.9058L50.6837 24.0612C50.6878 24.0979 50.6606 24.1303 50.6256 24.1303C50.5906 24.1303 50.5634 24.0979 50.5675 24.0612L50.5847 23.9058C50.5924 23.8372 50.5155 23.7821 50.4502 23.7821C50.3848 23.7821 50.3079 23.8372 50.3156 23.9058L50.3328 24.0612C50.337 24.0979 50.3098 24.1303 50.2747 24.1303C50.2397 24.1303 50.2126 24.0979 50.2167 24.0612L50.2339 23.9058C50.2416 23.8372 50.1646 23.7821 50.0994 23.7821C50.0341 23.7821 49.9571 23.8372 49.9647 23.9058L49.9821 24.0612C49.9861 24.0979 49.959 24.1303 49.924 24.1303C49.8889 24.1303 49.8618 24.0979 49.8658 24.0612L49.8832 23.9058C49.8908 23.8372 49.8138 23.7821 49.7485 23.7821C49.6833 23.7821 49.6063 23.8372 49.6139 23.9058L49.6312 24.0612C49.6353 24.0979 49.6081 24.1303 49.5731 24.1303C49.5381 24.1303 49.5109 24.0979 49.5151 24.0612L49.5323 23.9058C49.54 23.8372 49.4631 23.7821 49.3977 23.7821C49.3324 23.7821 49.2555 23.8372 49.2631 23.9058L49.2804 24.0612C49.2845 24.0979 49.2573 24.1303 49.2223 24.1303C49.1873 24.1303 49.1601 24.0979 49.1642 24.0612L49.1815 23.9058C49.1891 23.8372 49.1122 23.7821 49.0469 23.7821C48.9816 23.7821 48.9047 23.8372 48.9123 23.9058L48.9296 24.0612C48.9337 24.0979 48.9065 24.1303 48.8715 24.1303C48.8365 24.1303 48.8093 24.0979 48.8134 24.0612L48.8307 23.9058C48.8383 23.8372 48.7613 23.7821 48.6961 23.7821C48.6308 23.7821 48.5539 23.8372 48.5615 23.9058L48.5742 24.0205C48.5807 24.0789 48.5376 24.1303 48.482 24.1303C48.4307 24.1303 48.3891 24.0863 48.3891 24.032V23.7708C48.3891 23.7387 48.3646 23.7128 48.3343 23.7128C48.3041 23.7128 48.2795 23.6868 48.2795 23.6548V23.3996C48.2795 23.3932 48.2844 23.388 48.2905 23.388C48.2965 23.388 48.3014 23.3828 48.3014 23.3764V23.1909C48.3014 23.1716 48.2867 23.1561 48.2685 23.1561C48.2503 23.1561 48.2357 23.1405 48.2357 23.1213V23.0742C48.2357 23.067 48.2347 23.0597 48.2329 23.0527L48.0448 22.3233C48.0415 22.3105 48.0507 22.2979 48.0632 22.2979C48.0737 22.2979 48.0821 22.2889 48.0821 22.2778V22.2283C48.0821 22.2155 48.0724 22.2051 48.0602 22.2051C48.0481 22.2051 48.0383 22.1947 48.0383 22.1819V21.6252C48.0383 21.6124 48.0481 21.602 48.0602 21.602C48.0724 21.602 48.0821 21.5916 48.0821 21.5789V21.5556C48.0821 21.53 48.0625 21.5093 48.0383 21.5093H47.9792C47.9358 21.5093 47.897 21.4804 47.8824 21.437L47.8626 21.3787C47.8039 21.2045 47.5711 21.2045 47.5123 21.3787L47.4926 21.437C47.478 21.4804 47.4392 21.5093 47.3957 21.5093H47.3367C47.3124 21.5093 47.2928 21.53 47.2928 21.5556V21.5789C47.2928 21.5916 47.3026 21.602 47.3147 21.602C47.3268 21.602 47.3367 21.6124 47.3367 21.6252V22.1819C47.3367 22.1947 47.3268 22.2051 47.3147 22.2051C47.3026 22.2051 47.2928 22.2155 47.2928 22.2283V22.2778C47.2928 22.2889 47.3013 22.2979 47.3118 22.2979C47.3243 22.2979 47.3334 22.3105 47.3301 22.3233L47.142 23.0527C47.1403 23.0597 47.1393 23.067 47.1393 23.0742V23.1213C47.1393 23.1405 47.1246 23.1561 47.1064 23.1561C47.0883 23.1561 47.0736 23.1716 47.0736 23.1909V23.3069C47.0736 23.3132 47.0785 23.3184 47.0845 23.3184C47.0906 23.3184 47.0955 23.3237 47.0955 23.33V23.5852C47.0955 23.6172 47.0709 23.6432 47.0407 23.6432C47.0104 23.6432 46.9858 23.6691 46.9858 23.7012V25.2436C46.9858 25.3333 46.9172 25.406 46.8324 25.406H46.7227C46.6985 25.406 46.6789 25.4267 46.6789 25.4523C46.6789 25.478 46.6592 25.4988 46.635 25.4988H46.6021C46.5597 25.4988 46.5254 25.4624 46.5254 25.4176V25.3132C46.5254 25.2491 46.4763 25.1973 46.4158 25.1973C46.3552 25.1973 46.3062 25.2491 46.3062 25.3132V25.5103C46.3062 25.5937 46.2423 25.6612 46.1636 25.6612C46.0849 25.6612 46.0211 25.7287 46.0211 25.8119V26.3222C46.0211 26.4311 45.9377 26.5193 45.8347 26.5193C45.7318 26.5193 45.6484 26.4311 45.6484 26.3222V25.464C45.6484 25.2526 45.4864 25.0813 45.2866 25.0813H45.0673C44.9886 25.0813 44.9248 25.1488 44.9248 25.232V25.2784C44.9248 25.3361 44.8806 25.3828 44.8261 25.3828C44.7716 25.3828 44.7274 25.3361 44.7274 25.2784C44.7274 25.2208 44.6833 25.174 44.6288 25.174H44.3109C44.0808 25.174 43.8942 24.9767 43.8942 24.7333V23.9724C43.8942 23.8675 43.8138 23.7824 43.7146 23.7824C43.6187 23.7824 43.5398 23.7028 43.5351 23.6016L43.0862 13.8996C43.0844 13.8616 43.0548 13.8318 43.0188 13.8318H42.9734C42.9613 13.8318 42.9515 13.8214 42.9515 13.8086C42.9515 13.7958 42.9416 13.7854 42.9295 13.7854H42.8747C42.8323 13.7854 42.7979 13.7491 42.7979 13.7042V13.6694C42.7979 13.6054 42.7489 13.5535 42.6883 13.5535H42.5502C42.4278 13.5535 42.3242 13.4589 42.3035 13.3314C42.2267 12.8606 42.1479 12.5793 42.0525 12.5793C41.9721 12.5793 41.914 12.672 41.8336 12.672H39.9691C39.8908 12.672 39.8285 12.5793 39.7502 12.5793C39.4871 12.5793 39.2898 14.7132 39.2898 17.3342C39.2898 17.9991 39.3063 18.6289 39.3251 19.2085C39.3296 19.3483 39.2204 19.4625 39.0884 19.4558C38.9679 19.4497 38.8732 19.3447 38.8732 19.2171V17.7517C38.8732 17.7261 38.8928 17.7053 38.917 17.7053C38.9413 17.7053 38.9609 17.6846 38.9609 17.6589V14.5044C38.9609 14.4788 38.9413 14.458 38.917 14.458C38.8928 14.458 38.8732 14.4373 38.8732 14.4117V12.1618C38.8732 12.1361 38.8928 12.1154 38.917 12.1154C38.9413 12.1154 38.9609 12.0946 38.9609 12.069V9.4364C38.9609 9.27629 38.8382 9.14649 38.6868 9.14649H38.5662C38.4814 9.14649 38.4128 9.07378 38.4128 8.98408C38.4128 8.89445 38.3441 8.82174 38.2593 8.82174H37.6015C37.5167 8.82174 37.448 8.89445 37.448 8.98408V9.05366C37.448 9.10493 37.4087 9.14649 37.3603 9.14649C37.3119 9.14649 37.2726 9.18797 37.2726 9.23924V19.1782C37.2726 19.2425 37.2391 19.3014 37.1855 19.3317C37.076 19.3935 36.9437 19.3096 36.9437 19.1782V18.7259C36.9437 18.7003 36.9633 18.6795 36.9875 18.6795C37.0118 18.6795 37.0314 18.6587 37.0314 18.6331V15.2583C37.0314 15.2006 36.9873 15.1539 36.9328 15.1539C36.8783 15.1539 36.8341 15.1072 36.8341 15.0495V12.1966C36.8341 12.1773 36.8488 12.1618 36.867 12.1618C36.8852 12.1618 36.8998 12.1462 36.8998 12.127V8.68258C36.8998 8.52884 36.7821 8.40424 36.6367 8.40424H36.5491C36.4521 8.40424 36.3736 8.32115 36.3736 8.21867C36.3736 8.11619 36.2951 8.03311 36.1982 8.03311H35.4527C35.3558 8.03311 35.2773 8.11619 35.2773 8.21867V8.27666C35.2773 8.34708 35.2234 8.40424 35.1567 8.40424C35.0902 8.40424 35.0361 8.46134 35.0361 8.53182V12.0574C35.0361 12.1023 35.0018 12.1386 34.9594 12.1386C34.917 12.1386 34.8827 12.1749 34.8827 12.2198V15.4438C34.8827 15.4758 34.9072 15.5018 34.9375 15.5018C34.9677 15.5018 34.9922 15.5278 34.9922 15.5598V18.4515C34.9922 18.4922 34.972 18.53 34.9391 18.5509C34.866 18.5973 34.773 18.5416 34.773 18.4515V16.3953C34.773 16.0066 34.4655 15.685 34.1145 15.7997C33.8401 15.8894 33.582 16.031 33.3533 16.2188C33.2315 16.3187 33.1626 16.4709 33.1474 16.6331C32.9654 18.5819 32.899 22.1981 32.8888 22.8115C32.888 22.8625 32.8486 22.9009 32.8004 22.9009C32.7516 22.9009 32.712 22.8591 32.712 22.8074V19.52C32.712 19.455 32.7139 19.404 32.6739 19.3544C32.6006 19.2633 32.5314 19.1459 32.4742 19.0427C32.43 18.9632 32.3652 18.8866 32.2785 18.8132C32.0803 18.645 31.9226 18.4152 31.9226 18.1465V10.1902C31.9226 10.139 31.8833 10.0975 31.8349 10.0975C31.7865 10.0975 31.7472 10.0559 31.7472 10.0047V9.86549C31.7472 9.83989 31.7276 9.81907 31.7034 9.81907C31.6791 9.81907 31.6595 9.79833 31.6595 9.77273V9.66118C31.6595 9.60151 31.628 9.54643 31.5763 9.52277C31.5108 9.49287 31.4434 9.4679 31.3744 9.44799C30.8808 9.2638 30.3629 9.1621 29.8397 9.14649Z" fill="white"/>
</svg>
