<svg width="151" height="61" viewBox="0 0 151 61" fill="none" xmlns="http://www.w3.org/2000/svg">
<g clip-path="url(#clip0_615_51150)">
<g clip-path="url(#clip1_615_51150)">
<path d="M100.02 40.0724H99.9994V36.3924H99.218V41.3524H99.9274L102.65 37.6724H102.662V41.3524H103.442V36.3924H102.734L100.02 40.0724ZM104.403 37.0964H105.892V41.3476H106.672V37.0964H108.161V36.3876H104.403V37.0964ZM96.174 40.7092C95.7045 40.6815 95.2632 40.4756 94.9404 40.1337C94.6177 39.7916 94.4381 39.3393 94.4381 38.8692C94.4381 38.3993 94.6177 37.9469 94.9404 37.6049C95.2632 37.2628 95.7045 37.0569 96.174 37.0292C96.4558 37.0253 96.7349 37.0852 96.9903 37.2044C97.2457 37.3236 97.4709 37.4988 97.6488 37.7172L98.1948 37.2708C97.9493 36.9714 97.6398 36.7306 97.289 36.5661C96.9383 36.4017 96.5551 36.3177 96.1676 36.3204C94.6784 36.3204 93.5431 37.4548 93.5431 38.8724C93.5431 40.29 94.6784 41.4228 96.1676 41.4228C96.5609 41.4229 96.9493 41.3361 97.3048 41.1681C97.6605 41.0001 97.9741 40.7554 98.2236 40.4516L97.6776 40.0004C97.4954 40.2244 97.2651 40.4044 97.0036 40.5271C96.7423 40.6498 96.4565 40.7121 96.1676 40.7092H96.174ZM82.4159 38.6836C82.6026 38.5959 82.7601 38.4564 82.8695 38.2815C82.9787 38.1068 83.0354 37.9042 83.0324 37.698C83.0324 36.9892 82.4287 36.3876 81.5432 36.3876H79.5512V41.3476H81.6424C82.6032 41.3476 83.2741 40.674 83.2741 39.8948C83.2661 39.6301 83.1795 39.3738 83.0256 39.1583C82.8717 38.9426 82.6573 38.7775 82.4095 38.6836H82.4159ZM80.3342 37.0612H81.54C81.6312 37.0569 81.7224 37.0709 81.8079 37.1028C81.8935 37.1345 81.9717 37.1834 82.0378 37.2463C82.1039 37.3092 82.1565 37.3849 82.1925 37.4687C82.2285 37.5525 82.2469 37.6428 82.2469 37.734C82.2469 37.8253 82.2285 37.9156 82.1925 37.9994C82.1565 38.0833 82.1039 38.1589 82.0378 38.2218C81.9717 38.2847 81.8935 38.3335 81.8079 38.3653C81.7224 38.3972 81.6312 38.4113 81.54 38.4068H80.3342V37.0612ZM81.6457 40.674H80.3342V39.0404H81.6457C81.8618 39.0404 82.0692 39.1263 82.222 39.2789C82.3749 39.4317 82.4607 39.6388 82.4607 39.8548C82.4607 40.0708 82.3749 40.278 82.222 40.4308C82.0692 40.5834 81.8618 40.6692 81.6457 40.6692V40.674ZM92.7136 37.9812C92.7136 37.0964 92.0043 36.3812 91.0467 36.3812H89.0611V41.3412H89.8426V39.5764H91.0467C92.0107 39.5764 92.7136 38.8676 92.7136 37.9812ZM91.0467 38.8676H89.8426V37.0964H91.0467C91.1663 37.0914 91.2856 37.1105 91.3977 37.1527C91.5097 37.1949 91.6118 37.2594 91.6983 37.3421C91.7846 37.4249 91.8534 37.5242 91.9004 37.6341C91.9473 37.7441 91.9716 37.8625 91.9716 37.982C91.9716 38.1017 91.9473 38.2199 91.9004 38.33C91.8534 38.4399 91.7846 38.5393 91.6983 38.622C91.6118 38.7047 91.5097 38.7692 91.3977 38.8114C91.2856 38.8535 91.1663 38.8727 91.0467 38.8676ZM88.0043 40.6388H85.2021V39.13H87.3654V38.4212H85.2085V37.0964H87.9306V36.3876H84.4287V41.3476H88.0107L88.0043 40.6388ZM77.3094 37.6628H77.3238V41.3428H78.1036V36.3828H77.3943L74.6865 40.0628H74.6641V36.3828H73.8843V41.3428H74.5936L77.3094 37.6628ZM65.0501 40.0372C64.8579 40.426 64.6241 40.6884 64.1501 40.6884C64.0112 40.6873 63.873 40.6685 63.7386 40.6324V41.3124C63.901 41.377 64.0747 41.4081 64.2494 41.4036C64.9444 41.4036 65.4184 41.0004 65.7594 40.2484L67.4968 36.3876H66.6962L65.4776 39.1572H65.4632L63.966 36.3876H63.1013L65.0805 39.9876L65.0501 40.0372ZM69.2134 39.186H71.6585V41.3476H72.4383V36.3876H71.6585V38.4772H69.2246V36.3876H68.4432V41.3476H69.2246L69.2134 39.186ZM112.69 40.6404H109.889V39.1316H112.051V38.4228H109.889V37.098H112.611V36.3892H109.109V41.3492H112.69V40.6404ZM114.931 41.3492H115.711V37.0964H117.2V36.3876H113.442V37.0964H114.931V41.3492ZM83.106 44.5476H82.1132L79.8795 46.9572V44.5476H79.1028V49.5076H79.8827V48.0196L80.6625 47.1684L82.2942 49.5076H83.2549L81.1845 46.602L83.106 44.5476ZM76.1389 47.3172H76.1245L74.6193 44.5476H73.7546L75.7402 48.1476L75.7113 48.1972C75.5192 48.586 75.2854 48.8484 74.8098 48.8484C74.6708 48.8471 74.5326 48.8282 74.3983 48.7924V49.4724C74.5608 49.5365 74.7346 49.5676 74.9091 49.5636C75.6041 49.5636 76.0796 49.1604 76.4207 48.4084L78.1581 44.5476H77.3574L76.1389 47.3172ZM148.536 44.0164C149.245 44.0164 149.685 43.5364 149.685 42.9524H149.09C149.082 43.094 149.02 43.2271 148.918 43.3245C148.815 43.422 148.678 43.4762 148.536 43.4762C148.395 43.4762 148.258 43.422 148.155 43.3245C148.053 43.2271 147.991 43.094 147.983 42.9524H147.387C147.384 43.5348 147.823 44.0164 148.532 44.0164H148.536ZM66.8707 46.6372H64.4176V44.5476H63.6377V49.5076H64.4176V47.346H66.8643V49.5076H67.6441V44.5476H66.8643L66.8707 46.6372ZM70.5761 44.5476L68.5905 49.5076H69.3911L69.8875 48.2276H72.0861L72.5825 49.5076H73.4119L71.4263 44.5476H70.5761ZM70.1661 47.5204L70.9668 45.4404H70.9796L71.7802 47.5204H70.1661ZM149.93 44.5444L147.221 48.2244H147.2V44.5444H146.42V49.5044H147.128L149.85 45.8244H149.863V49.5044H150.644V44.5444H149.93ZM84.9875 48.2244H84.9651V44.5444H84.1853V49.5044H84.8946L87.6168 45.8244H87.6312V49.5044H88.411V44.5444H87.7017L84.9875 48.2244ZM132.894 44.4804C132.554 44.4724 132.214 44.5324 131.897 44.6569C131.58 44.7813 131.291 44.9679 131.046 45.2057C130.802 45.4433 130.608 45.7273 130.475 46.041C130.341 46.3546 130.272 46.6917 130.271 47.0324C130.271 48.45 131.405 49.5828 132.894 49.5828C134.384 49.5828 135.519 48.45 135.519 47.0324C135.519 45.6148 134.384 44.4804 132.894 44.4804ZM132.894 48.874C132.529 48.874 132.173 48.7658 131.869 48.5633C131.566 48.3607 131.33 48.0727 131.19 47.7359C131.051 47.3989 131.014 47.0282 131.085 46.6706C131.157 46.313 131.333 45.9847 131.591 45.7269C131.849 45.4692 132.178 45.2938 132.536 45.2229C132.893 45.1519 133.264 45.1887 133.602 45.3284C133.939 45.4682 134.226 45.7047 134.429 46.0081C134.631 46.3113 134.739 46.6679 134.739 47.0324C134.74 47.2745 134.693 47.5143 134.601 47.7381C134.508 47.9618 134.372 48.165 134.201 48.3359C134.029 48.5068 133.825 48.6418 133.601 48.7335C133.377 48.825 133.137 48.8711 132.894 48.8692V48.874ZM121.434 44.4804C119.945 44.4804 118.81 45.6148 118.81 47.0324C118.81 48.45 119.945 49.5828 121.434 49.5828C122.923 49.5828 124.057 48.45 124.057 47.0324C124.056 46.6917 123.987 46.3546 123.854 46.041C123.721 45.7273 123.527 45.4433 123.282 45.2057C123.038 44.9679 122.749 44.7813 122.431 44.6569C122.114 44.5324 121.775 44.4724 121.434 44.4804ZM121.434 48.874C121.069 48.8743 120.712 48.7665 120.409 48.5641C120.105 48.3617 119.868 48.0738 119.729 47.737C119.589 47.4001 119.552 47.0293 119.623 46.6716C119.694 46.314 119.87 45.9853 120.128 45.7276C120.386 45.4697 120.715 45.294 121.073 45.2229C121.431 45.1519 121.802 45.1885 122.139 45.3282C122.476 45.4679 122.764 45.7044 122.967 46.0077C123.17 46.3111 123.277 46.6677 123.277 47.0324C123.278 47.2743 123.231 47.5141 123.139 47.7377C123.047 47.9613 122.911 48.1645 122.739 48.3353C122.568 48.5061 122.364 48.6413 122.14 48.733C121.916 48.8247 121.676 48.8709 121.434 48.8692V48.874ZM136.646 49.514H137.426V45.2564H139.839V44.5476H136.648L136.646 49.514ZM141.559 48.234H141.538V44.554H140.758V49.514H141.468L144.19 45.834H144.204V49.514H144.984V44.554H144.275L141.559 48.234ZM125.812 46.0372C125.754 48.41 125.386 48.8356 124.925 48.8356C124.792 48.8335 124.661 48.8098 124.536 48.7652V49.474C124.68 49.5439 124.837 49.5799 124.997 49.5796C125.926 49.5796 126.507 48.9396 126.577 46.0372L126.598 45.258H128.36V49.5092H129.139V44.5492H125.849L125.812 46.0372ZM99.0627 45.258H100.56V49.5092H101.34V45.2564H102.829V44.5476H99.0643L99.0627 45.258ZM92.7136 48.2324H92.6912V44.5524H91.913V49.5124H92.6224L95.3445 45.8324H95.359V49.5124H96.1388V44.5524H95.4294L92.7136 48.2324ZM112.569 44.5524H111.655L110.456 46.3444H110.441L109.244 44.5524H108.315L109.945 46.9332L108.172 49.5124H109.087L110.427 47.506H110.441L111.769 49.5076H112.699L110.925 46.906L112.569 44.5524ZM104.563 47.2948H106.726V46.586H104.563V45.2612H107.285V44.5524H103.777V49.5124H107.357V48.8004H104.563V47.2948ZM116.91 46.642H114.457V44.5476H113.678V49.5076H114.457V47.346H116.904V49.5076H117.684V44.5476H116.904L116.91 46.642Z" fill="white"/>
<path d="M30.0239 23.44C28.7254 23.44 27.4561 23.8248 26.3765 24.5456C25.2967 25.2664 24.4553 26.2909 23.9584 27.4896C23.4615 28.6883 23.3315 30.0072 23.5848 31.2798C23.8381 32.5523 24.4634 33.7211 25.3816 34.6386C26.2998 35.556 27.4695 36.1808 28.743 36.4339C30.0167 36.687 31.3366 36.5571 32.5363 36.0606C33.7359 35.5642 34.7612 34.7234 35.4826 33.6445C36.204 32.5658 36.5891 31.2974 36.5891 30C36.5891 28.2602 35.8973 26.5917 34.6661 25.3614C33.4349 24.1312 31.7651 23.44 30.0239 23.44ZM6.64528 30C6.64528 23.8045 9.10837 17.8629 13.4927 13.482C17.8771 9.10114 23.8234 6.64 30.0239 6.64V0C13.4507 0 0 13.44 0 30C0 46.56 13.4507 60 30.0239 60V53.36C23.8234 53.36 17.8771 50.8989 13.4927 46.5181C9.10837 42.1371 6.64528 36.1955 6.64528 30ZM30.0239 38.32C28.377 38.32 26.7672 37.832 25.3978 36.9178C24.0285 36.0037 22.9613 34.7042 22.331 33.184C21.7009 31.6637 21.536 29.9907 21.8572 28.3768C22.1786 26.7629 22.9715 25.2805 24.136 24.1168C25.3006 22.9533 26.7842 22.161 28.3994 21.8398C30.0146 21.5189 31.6889 21.6837 33.2104 22.3133C34.7318 22.943 36.0323 24.0094 36.9471 25.3776C37.8621 26.7459 38.3505 28.3544 38.3505 30H44.9958C44.9958 27.0411 44.1176 24.1488 42.4725 21.6886C40.8273 19.2285 38.4891 17.311 35.7534 16.1787C33.0176 15.0465 30.0072 14.7502 27.103 15.3275C24.1988 15.9047 21.531 17.3294 19.4372 19.4218C17.3432 21.5139 15.9173 24.1795 15.3396 27.0814C14.762 29.9834 15.0584 32.9914 16.1916 35.725C17.3248 38.4586 19.2438 40.7949 21.7059 42.4387C24.168 44.0826 27.0626 44.96 30.0239 44.96V38.32ZM30.0239 6.64V13.28C34.4618 13.28 38.718 15.0416 41.8561 18.1771C44.9942 21.3128 46.7572 25.5656 46.7572 30C46.7572 34.4344 44.9942 38.6872 41.8561 41.8229C38.718 44.9584 34.4618 46.72 30.0239 46.72V53.36C36.2243 53.36 42.1706 50.8989 46.5551 46.5181C50.9394 42.1371 53.4024 36.1955 53.4024 30C53.4024 23.8045 50.9394 17.8629 46.5551 13.482C42.1706 9.10114 36.2243 6.64 30.0239 6.64ZM72.6529 22.16L64.8724 13.8032H63.6506V30H67.0629V20.88L72.1758 26.24H73.1365L78.2494 20.8768V29.9968H81.6617V13.8096H80.4319L72.6529 22.16ZM88.2173 23.6128V14H84.8066V30.1904H86.126L96.0764 20.3824V30H99.4871V13.8096H98.1676L88.2173 23.6128ZM110.015 16.912C111.788 16.912 113.368 17.872 114.406 19.4464L116.808 17.1264C116.032 16.0507 115.012 15.1739 113.831 14.5679C112.65 13.9619 111.343 13.644 110.015 13.64C105.407 13.64 101.529 17.272 101.529 21.9936C101.529 26.7152 105.415 30.3472 110.015 30.3472C111.343 30.3432 112.65 30.0253 113.831 29.4194C115.012 28.8133 116.032 27.9365 116.808 26.8608L114.406 24.5408C113.368 26.1152 111.788 27.0752 110.015 27.0752C107.263 27.0752 105.021 24.9664 105.021 21.9936C105.021 19.0208 107.263 16.9184 110.015 16.9184V16.912ZM122.401 23.6128V14H118.989V30.1904H120.31L130.264 20.3824V30H133.676V13.8096H132.355L122.401 23.6128ZM144.199 27.0752C141.445 27.0752 139.205 24.9664 139.205 21.9936C139.205 19.0208 141.447 16.912 144.199 16.912C145.972 16.912 147.552 17.872 148.588 19.4464L150.99 17.1264C150.214 16.0509 149.194 15.1742 148.013 14.5683C146.832 13.9623 145.525 13.6442 144.198 13.64C139.588 13.64 135.701 17.272 135.701 21.9936C135.701 26.7152 139.588 30.3472 144.198 30.3472C145.526 30.3453 146.835 30.0288 148.017 29.424C149.2 28.819 150.222 27.9429 151 26.8672L148.598 24.5472C147.552 26.1216 145.972 27.0816 144.199 27.0816V27.0752Z" fill="white"/>
</g>
</g>
<defs>
<clipPath id="clip0_615_51150">
<rect width="150.297" height="60" fill="white" transform="translate(0.272949 0.299805)"/>
</clipPath>
<clipPath id="clip1_615_51150">
<rect width="151" height="60" fill="white"/>
</clipPath>
</defs>
</svg>
