<svg width="41" height="40" viewBox="0 0 41 40" fill="none" xmlns="http://www.w3.org/2000/svg">
<path d="M40.3251 14.3141C40.1641 14.0337 39.8042 13.9371 39.5238 14.1L36.2824 15.9718L30.7352 6.3648L33.9766 4.49307C34.257 4.33014 34.3536 3.9721 34.1907 3.69173C34.0278 3.41137 33.6697 3.31474 33.3894 3.47766L29.6402 5.643C29.3598 5.80592 29.2632 6.16396 29.4261 6.44433L29.7008 6.91794L27.7571 8.03946L26.1525 8.1626C25.0519 8.24785 23.9663 8.58317 23.0096 9.13256C22.9547 9.12877 22.8997 9.12498 22.8448 9.12498C22.4792 9.12498 22.1363 9.22539 21.8408 9.39588C21.532 8.67787 20.8177 8.17398 19.988 8.17398C19.8705 8.17398 19.755 8.18534 19.6432 8.20618L19.3685 8.04705C18.2072 7.37642 16.8508 7.18321 15.5493 7.50334L13.5582 7.9921L11.7035 6.92175L11.9782 6.44814C12.1412 6.16776 12.0445 5.80782 11.7642 5.64681L8.01502 3.48147C7.73464 3.32044 7.3747 3.41516 7.21368 3.69555C7.05076 3.97592 7.14738 4.33586 7.42776 4.49688L10.6692 6.36861L5.12197 15.9756L1.88056 14.1038C1.60018 13.9409 1.24024 14.0375 1.07923 14.3179C0.916302 14.5983 1.01292 14.9582 1.2933 15.1193L5.04244 17.2846C5.13337 17.3357 5.23378 17.3623 5.33608 17.3623C5.38723 17.3623 5.43838 17.3566 5.48764 17.3414C5.6373 17.3016 5.76612 17.2031 5.84379 17.0686L6.11849 16.595L8.06219 17.7165L8.97153 19.0445C9.59861 19.9596 10.4378 20.7382 11.3983 21.2914L12.2603 21.7896V24.9779C12.2603 26.3192 12.7718 27.5885 13.6981 28.5566L15.1171 30.038V32.1788H14.5696C14.2457 32.1788 13.9823 32.4421 13.9823 32.766V37.0968C13.9823 37.4207 14.2457 37.684 14.5696 37.684C14.8935 37.684 15.1569 37.4207 15.1569 37.0968V33.3533H26.2488V37.0968C26.2488 37.4207 26.5122 37.684 26.8361 37.684C27.1601 37.684 27.4234 37.4207 27.4234 37.0968V32.766C27.4234 32.4421 27.16 32.1788 26.8361 32.1788H26.2886V29.9357L26.9839 28.4846C27.4632 27.4843 27.717 26.3685 27.717 25.2584V24.2638L30.4791 22.6686C31.6404 21.998 32.4853 20.9219 32.8605 19.6337L33.4345 17.6654L35.2892 16.595L35.5639 17.0686C35.6415 17.2031 35.7704 17.3016 35.92 17.3414C35.9693 17.3547 36.0204 17.3623 36.0716 17.3623C36.1739 17.3623 36.2743 17.3357 36.3652 17.2846L40.1144 15.1193C40.3947 14.9563 40.4913 14.5983 40.3284 14.3179L40.3251 14.3141ZM11.9858 20.2721C11.1769 19.8042 10.4684 19.1506 9.9398 18.3777L8.9547 16.9398C8.90545 16.8678 8.83914 16.8072 8.76336 16.7636L6.70409 15.5758L11.1163 7.93542L13.1756 9.12323C13.3063 9.19901 13.4616 9.21985 13.6094 9.18575L15.8297 8.64204C16.7125 8.42607 17.6294 8.51511 18.4478 8.8921C18.3209 9.04366 18.2148 9.21227 18.1352 9.39794C17.8397 9.22744 17.4968 9.12703 17.1312 9.12703C16.021 9.12703 15.1155 10.0307 15.1155 11.1427V15.9735C14.8597 15.8542 14.5756 15.7879 14.2743 15.7879C13.1642 15.7879 12.2587 16.6916 12.2587 17.8036V20.4369L11.984 20.2777L11.9858 20.2721ZM26.541 25.2543C26.541 26.1901 26.327 27.1298 25.9235 27.9728L25.1695 29.5452C25.1316 29.6248 25.1126 29.7101 25.1126 29.7991V32.1766H16.2904V29.7991C16.2904 29.6475 16.2316 29.5017 16.1274 29.3937L14.5456 27.7417C13.8295 26.9934 13.4335 26.0102 13.4335 24.974V17.7977C13.4335 17.3336 13.8105 16.9566 14.2747 16.9566C14.7388 16.9566 15.1158 17.3336 15.1158 17.7977V22.9167C15.1158 23.2406 15.3792 23.5039 15.7031 23.5039C16.027 23.5039 16.2904 23.2406 16.2904 22.9167V11.137C16.2904 10.6729 16.6673 10.2959 17.1315 10.2959C17.5957 10.2959 17.9726 10.6728 17.9726 11.137V19.0349C17.9726 19.3589 18.236 19.6222 18.5599 19.6222C18.8838 19.6222 19.1472 19.3588 19.1472 19.0349V10.186C19.1472 9.72182 19.5242 9.34481 19.9883 9.34481C20.4525 9.34481 20.8295 9.7218 20.8295 10.186V19.0349C20.8295 19.3589 21.0928 19.6222 21.4167 19.6222C21.7407 19.6222 22.004 19.3588 22.004 19.0349V11.137C22.004 10.6729 22.381 10.2959 22.8451 10.2959C23.3093 10.2959 23.6863 10.6728 23.6863 11.137V19.0349C23.6863 19.3589 23.9496 19.6222 24.2736 19.6222C24.5975 19.6222 24.8608 19.3588 24.8608 19.0349V12.09C24.8608 11.6258 25.2378 11.2488 25.702 11.2488C26.1661 11.2488 26.5431 11.6258 26.5431 12.09V25.2548L26.541 25.2543ZM32.6392 16.7633C32.5085 16.839 32.4118 16.9622 32.3683 17.108L31.7298 19.3037C31.44 20.2983 30.7864 21.1318 29.8884 21.649L27.7136 22.905V12.0914C27.7136 10.9812 26.8099 10.0757 25.6979 10.0757C25.3323 10.0757 24.9894 10.1761 24.6939 10.3466C24.6048 10.1402 24.4817 9.9526 24.3339 9.7897C24.9401 9.54152 25.5861 9.38428 26.2397 9.33313L27.9788 9.19863C28.066 9.19105 28.1512 9.16642 28.227 9.12095L30.2863 7.93314L34.6985 15.5735L32.6392 16.7613L32.6392 16.7633Z" fill="#FF0053"/>
</svg>
