<svg width="94" height="65" viewBox="0 0 94 65" fill="none" xmlns="http://www.w3.org/2000/svg">
<path d="M11.3984 37.5969C10.7984 36.9969 9.99844 36.7969 8.99844 36.7969H4.39844V37.7969C5.19844 37.7969 5.59844 37.7969 5.59844 37.7969H8.99844C9.79844 37.7969 10.1984 37.9969 10.5984 38.1969C10.9984 38.5969 11.1984 38.9969 11.1984 39.5969C11.1984 40.1969 10.9984 40.7969 10.5984 40.9969C10.1984 41.3969 9.59844 41.3969 8.99844 41.3969H4.39844V46.5969H5.39844V42.3969H8.99844C9.99844 42.3969 10.7984 42.1969 11.3984 41.5969C11.9984 40.9969 12.1984 40.3969 12.1984 39.5969C12.1984 38.7969 11.9984 38.1969 11.3984 37.5969Z" fill="white"/>
<path d="M67.1953 37.5969C66.5953 36.9969 65.7953 36.7969 64.7953 36.7969H60.1953V37.7969C60.9953 37.7969 61.9953 37.7969 61.9953 37.7969H64.7953C65.5953 37.7969 65.9953 37.9969 66.3953 38.1969C66.7953 38.5969 66.9953 38.9969 66.9953 39.5969C66.9953 40.1969 66.7953 40.7969 66.3953 40.9969C65.9953 41.3969 65.3953 41.3969 64.7953 41.3969H61.1953H60.1953V46.5969H61.1953V42.3969H64.7953C65.7953 42.3969 66.5953 42.1969 67.1953 41.5969C67.7953 40.9969 67.9953 40.3969 67.9953 39.5969C67.9953 38.7969 67.5953 38.1969 67.1953 37.5969Z" fill="white"/>
<path d="M21.2 37.7969V36.7969H13V37.7969C14.2 37.5969 20.2 37.7969 21.2 37.7969Z" fill="white"/>
<path d="M17.7969 38.7969H16.7969V46.5969H17.7969V38.7969Z" fill="white"/>
<path d="M73.3984 37.5969C74.3984 37.5969 75.3984 37.9969 76.1984 38.5969C76.5984 38.9969 76.9984 39.5969 77.1984 40.1969C77.5984 40.1969 77.9984 40.1969 78.1984 40.1969C77.9984 39.3969 77.5984 38.7969 76.9984 38.1969C75.9984 37.1969 74.7984 36.7969 73.3984 36.7969C72.3984 36.7969 71.5984 36.9969 70.9984 37.3969C70.1984 37.7969 69.7984 38.3969 69.3984 39.1969H70.5984C70.9984 37.9969 71.9984 37.5969 73.3984 37.5969Z" fill="white"/>
<path d="M77.3953 41.1953H71.7953V42.1953H77.3953C77.3953 43.1953 76.7953 44.1953 76.1953 44.7953C75.3953 45.3953 74.5953 45.7953 73.3953 45.7953C71.9953 45.7953 70.9953 45.1953 70.3953 44.1953H69.1953C69.5953 44.9953 70.1953 45.5953 70.7953 45.9953C71.5953 46.3953 72.3953 46.5953 73.1953 46.5953C74.5953 46.5953 75.7953 46.1953 76.7953 45.1953C77.7953 44.1953 78.1953 42.9953 78.1953 41.5953C78.1953 41.3953 78.1953 41.1953 78.1953 41.1953C78.3953 41.1953 77.3953 41.1953 77.3953 41.1953Z" fill="white"/>
<path d="M45 36.7969L40.6 45.5969L36 36.7969H35L35.6 38.1969L39.8 46.5969H41.2L45.4 38.1969V46.5969H46.4V36.7969H45Z" fill="white"/>
<path d="M50 36.7969H49V46.5969H50V36.7969Z" fill="white"/>
<path d="M56.2016 36.7969L51.6016 43.1969V44.7969L56.4016 37.9969V46.5969H57.4016V36.7969H56.2016Z" fill="white"/>
<path d="M25.5969 41.7969L22.9969 36.7969H21.7969L24.9969 42.7969C25.3969 42.3969 25.5969 41.9969 25.5969 41.7969Z" fill="white"/>
<path d="M29.3984 36.7969L25.5984 44.5969C25.3984 44.9969 25.1984 45.3969 24.9984 45.5969C24.7984 45.7969 24.3984 45.7969 23.9984 45.7969H23.3984V46.7969H24.1984C24.5984 46.7969 24.9984 46.7969 25.1984 46.5969C25.3984 46.3969 25.7984 46.1969 25.9984 45.9969C26.1984 45.7969 26.3984 45.1969 26.7984 44.5969L30.5984 36.9969H29.3984V36.7969Z" fill="white"/>
<path d="M85.0031 43.3984H82.6031C82.4031 43.7984 82.4031 43.9984 82.2031 44.3984H85.4031L85.0031 43.3984Z" fill="white"/>
<path d="M84.6 36.7969H83.4L79 46.7969H80L81 44.3969L82.2 41.7969L84 37.7969L86 42.3969C86 42.3969 86 42.5969 86.2 42.5969L86.4 43.1969C86.6 43.3969 86.6 43.7969 86.8 44.1969L87.8 46.5969H89L84.6 36.7969Z" fill="white"/>
<path d="M71.9969 48.7969C66.7969 54.7969 58.9969 58.3969 50.5969 58.3969C44.3969 58.3969 38.5969 56.3969 33.7969 52.9969V54.1969C38.5969 57.5969 44.3969 59.3969 50.5969 59.3969C59.5969 59.3969 67.7969 55.1969 73.1969 48.7969H71.9969Z" fill="white"/>
<path d="M50.6 1.19844C66.4 1.19844 79.4 13.9984 79.4 29.9984C79.4 32.1984 79.2 34.1984 78.6 36.3984H79.6C80 34.3984 80.2 32.1984 80.2 29.9984C80.2 13.5984 67 0.398438 50.6 0.398438C34.2 0.398438 21 13.3984 21 29.7984C21 31.3984 21.2 32.9984 21.4 34.5984H22.4C22.2 32.9984 22 31.3984 22 29.7984C21.8 13.9984 34.8 1.19844 50.6 1.19844Z" fill="white"/>
</svg>
