<svg width="435" height="107" viewBox="0 0 435 107" fill="none" xmlns="http://www.w3.org/2000/svg">
<g clip-path="url(#clip0_1196_1165)">
<path d="M0.0820312 25.3012C0.0820312 20.0795 0.0820313 15.1089 0.107262 10.1383C0.107262 9.83707 0.334337 9.38519 0.586645 9.23456C9.26599 3.48574 18.5509 -0.00374106 28.8451 0.222196C36.5152 0.397923 43.7563 2.55688 50.5938 6.29738C53.0412 7.6279 55.3876 9.15926 57.709 10.7157C58.5164 11.2429 59.0209 11.1927 59.7527 10.6655C65.5809 6.49822 71.8128 3.33511 78.5998 1.60292C89.4239 -1.15853 99.8947 0.197091 109.962 5.26812C112.232 6.3978 114.402 7.77853 116.597 9.10905C116.9 9.28477 117.228 9.78686 117.228 10.1132C117.278 14.9583 117.228 19.7783 117.228 24.6234C117.228 24.7489 117.178 24.8744 117.127 25.1506C116.042 24.2719 115.033 23.4184 113.998 22.615C108.751 18.5231 103.099 15.36 96.7407 13.8788C89.1462 12.0964 81.8042 13.1508 74.6639 16.3892C69.0879 18.9247 64.1427 22.4895 59.5002 26.6568C58.8946 27.209 58.5164 27.2341 57.8856 26.6568C52.5871 21.9121 46.8849 17.9206 40.3755 15.4102C30.7122 11.6697 21.2506 12.3726 12.0161 17.067C8.10539 19.0503 4.47216 21.5858 1.09126 24.4979C0.813721 24.7238 0.536183 24.9497 0.0820312 25.3012Z" fill="white"/>
<path d="M117.178 48.7719C114.856 47.5419 112.661 46.2868 110.416 45.1821C96.4128 38.3539 82.3339 38.4041 68.3057 45.0566C65.278 46.4875 62.3765 48.2701 59.475 49.9519C58.8442 50.3034 58.4405 50.3285 57.8349 49.9519C51.8049 46.0357 45.4467 42.973 38.5841 41.3664C28.4918 38.9814 18.6518 39.9605 9.11462 44.2282C6.08694 45.5839 3.16016 47.1905 0.157723 48.7219C0.157723 48.6213 0.0820312 48.4207 0.0820312 48.1946C0.0820312 44.6299 0.0820312 41.0401 0.0820312 37.4751C0.0820312 36.8727 0.233415 36.5464 0.76326 36.2703C9.31647 31.8269 18.2986 29.2661 27.7852 29.2161C36.2123 29.1909 44.2863 31.1742 52.0571 34.6634C54.0001 35.5422 55.9175 36.5464 57.8349 37.5506C58.4912 37.9021 58.9957 37.8769 59.6264 37.5254C65.8583 34.0359 72.4183 31.5257 79.3316 30.1951C89.5754 28.237 99.617 29.2409 109.381 33.0317C111.778 33.9607 114.074 35.1155 116.421 36.1446C117.026 36.4209 117.278 36.8224 117.278 37.5757C117.228 41.0149 117.278 44.4542 117.278 47.8683C117.278 48.1444 117.253 48.4207 117.228 48.7719H117.178Z" fill="white"/>
<path d="M0.0820312 69.9663C0.0820312 67.0292 0.0820312 64.1674 0.0820312 61.2803C0.0820312 60.5776 0.485723 60.477 0.914643 60.3515C4.69924 59.2719 8.43339 57.9665 12.2684 57.1884C27.1545 54.1006 41.8137 55.4311 56.1446 60.6779C57.9108 61.3306 59.4498 61.3557 61.216 60.6779C69.6179 57.5399 78.272 55.8327 87.1784 55.5818C97.1444 55.3057 106.808 56.9123 116.294 60.251C117.026 60.5021 117.304 60.8788 117.278 61.7321C117.228 64.1171 117.278 66.5019 117.278 68.8869C117.278 69.2133 117.228 69.5648 117.203 70.0166C115.588 69.4393 114.074 68.8618 112.56 68.3597C104.461 65.6486 96.1606 64.2929 87.6828 64.5189C77.9943 64.795 68.659 66.9791 59.6012 70.7196C59.0965 70.9205 58.3901 70.9453 57.8856 70.7196C49.2819 67.1798 40.4259 65.0208 31.2419 64.569C20.8721 64.0669 10.8303 65.9246 1.09126 69.7154C0.889413 69.7906 0.662338 69.866 0.460493 69.9412C0.41003 69.9412 0.334337 69.9412 0.157723 69.9412L0.0820312 69.9663Z" fill="white"/>
<path d="M117.234 88.9651C115.468 88.6636 113.828 88.3124 112.188 88.1366C106.536 87.534 100.884 86.7809 95.2073 86.4797C83.2479 85.8019 71.3897 86.9567 59.6322 89.2914C58.976 89.4169 58.2948 89.3917 57.6389 89.2914C49.7163 87.7349 41.7436 86.7809 33.7203 86.4546C22.7196 86.0028 11.82 86.8561 0.995981 88.8645C0.743676 88.9148 0.491368 88.9399 0.0624467 88.99C0.0624467 87.6094 0.0624467 86.304 0.0624467 84.9986C0.0624467 83.9944 -0.18986 82.7141 0.289523 82.0614C0.718443 81.4839 1.95475 81.5845 2.83781 81.4336C10.2809 80.1282 17.7492 79.4755 25.2931 79.3249C36.3189 79.1243 47.2437 80.1534 58.0678 82.2621C58.4463 82.3375 58.85 82.3375 59.203 82.2621C68.4123 80.4797 77.6972 79.4506 87.0831 79.2998C94.2991 79.1743 101.465 79.6012 108.605 80.53C111.153 80.8564 113.701 81.3584 116.25 81.6848C117.032 81.7851 117.259 82.1366 117.234 82.9651C117.183 84.9232 117.234 86.8813 117.234 88.9651Z" fill="white"/>
<path d="M117.234 101.765C117.234 103.271 117.234 104.702 117.234 106.133C117.234 106.359 116.906 106.635 116.679 106.735C116.452 106.836 116.175 106.76 115.922 106.76H0.164062V101.765C39.1202 101.765 78.1016 101.765 117.234 101.765Z" fill="white"/>
<path d="M144.286 30.7634V6.4209H153.027C154.74 6.4209 156.251 6.72229 157.561 7.32505C158.883 7.91622 159.918 8.77402 160.665 9.8984C161.412 11.0112 161.786 12.35 161.786 13.9149C161.786 15.5261 161.441 16.8882 160.751 18.001C160.061 19.1022 159.056 19.9426 157.734 20.5222C156.424 21.0901 154.826 21.3742 152.941 21.3742H148.148V30.7634H144.286ZM148.148 18.0358H152.993C154.556 18.0358 155.768 17.7054 156.63 17.0447C157.493 16.3724 157.924 15.3581 157.924 14.0019C157.924 12.6572 157.481 11.6256 156.596 10.9069C155.711 10.1882 154.522 9.82885 153.027 9.82885H148.148V18.0358ZM174.394 31.285C172.693 31.285 171.188 30.891 169.877 30.1027C168.578 29.3029 167.555 28.2189 166.808 26.8512C166.073 25.4718 165.705 23.9069 165.705 22.1566C165.705 20.8467 165.917 19.6354 166.343 18.5226C166.768 17.4098 167.366 16.4419 168.136 15.6189C168.906 14.7959 169.826 14.1583 170.895 13.7063C171.963 13.2542 173.13 13.0281 174.394 13.0281C176.072 13.0281 177.475 13.3875 178.601 14.1062C179.739 14.8249 180.607 15.7522 181.205 16.8882L180.67 17.7054V13.5498H184.049V30.7634H180.67V26.6078L181.205 27.425C180.607 28.5611 179.739 29.4882 178.601 30.207C177.475 30.9258 176.072 31.285 174.394 31.285ZM174.894 27.8945C175.929 27.8945 176.854 27.6625 177.67 27.199C178.486 26.7237 179.124 26.0572 179.584 25.1994C180.055 24.3416 180.291 23.3274 180.291 22.1566C180.291 20.9858 180.055 19.9716 179.584 19.1138C179.124 18.2444 178.486 17.5779 177.67 17.1142C176.854 16.6506 175.929 16.4187 174.894 16.4187C173.848 16.4187 172.917 16.6506 172.101 17.1142C171.297 17.5779 170.659 18.2444 170.188 19.1138C169.716 19.9716 169.481 20.9858 169.481 22.1566C169.481 23.3274 169.716 24.3416 170.188 25.1994C170.659 26.0572 171.297 26.7237 172.101 27.199C172.917 27.6625 173.848 27.8945 174.894 27.8945ZM197.155 31.1807C196.201 31.1807 195.282 31.1053 194.396 30.9547C193.511 30.8156 192.678 30.5954 191.897 30.2939C191.115 29.981 190.408 29.5695 189.776 29.0594L191.431 26.4687C192.155 27.0831 193.011 27.5293 194 27.8075C194.988 28.0742 195.994 28.2074 197.017 28.2074C198.408 28.2074 199.506 28.0047 200.31 27.5989C201.115 27.1816 201.517 26.4977 201.517 25.5472C201.517 24.7126 201.092 24.1156 200.241 23.7562C199.402 23.3969 198.178 23.2172 196.569 23.2172H193.431V20.3309H196.465C197.891 20.3309 198.988 20.1686 199.758 19.8441C200.528 19.5079 200.914 18.9399 200.914 18.1401C200.914 17.6648 200.747 17.2707 200.414 16.9577C200.092 16.6448 199.632 16.4071 199.034 16.2448C198.448 16.0825 197.758 16.0014 196.965 16.0014C195.988 16.0014 195.046 16.1463 194.138 16.4361C193.23 16.7259 192.437 17.1722 191.759 17.7749L190.345 15.219C191.218 14.4887 192.276 13.9323 193.517 13.5498C194.759 13.1557 196.011 12.9586 197.276 12.9586C198.747 12.9586 200.011 13.1441 201.069 13.515C202.126 13.8859 202.942 14.4192 203.517 15.1147C204.092 15.8102 204.379 16.6506 204.379 17.6358C204.379 18.5168 204.097 19.2818 203.534 19.931C202.982 20.5801 202.178 21.0496 201.12 21.3394C202.408 21.6292 203.385 22.1392 204.051 22.8695C204.73 23.5998 205.069 24.5155 205.069 25.6167C205.069 26.7758 204.741 27.7728 204.086 28.6074C203.442 29.4305 202.523 30.0679 201.327 30.52C200.143 30.9606 198.753 31.1807 197.155 31.1807ZM211.279 30.7634V13.5498H219.416C221.347 13.5498 222.893 13.9207 224.054 14.6626C225.215 15.4044 225.796 16.5172 225.796 18.001C225.796 18.6965 225.629 19.3166 225.296 19.8614C224.962 20.3946 224.502 20.8409 223.916 21.2003C223.33 21.5596 222.646 21.8204 221.865 21.9827L221.796 21.1307C223.301 21.3394 224.468 21.8436 225.296 22.6434C226.123 23.4433 226.537 24.4575 226.537 25.6863C226.537 26.7295 226.267 27.6337 225.727 28.3987C225.186 29.1523 224.41 29.7375 223.399 30.1548C222.388 30.5606 221.175 30.7634 219.761 30.7634H211.279ZM214.951 27.9292H219.244C220.382 27.9292 221.255 27.738 221.865 27.3555C222.485 26.9729 222.796 26.3991 222.796 25.6341C222.796 24.8806 222.491 24.3184 221.882 23.9475C221.273 23.565 220.393 23.3737 219.244 23.3737H214.451V20.6439H218.847C219.916 20.6439 220.744 20.4816 221.33 20.157C221.916 19.8209 222.209 19.2761 222.209 18.5226C222.209 17.7691 221.916 17.2243 221.33 16.8882C220.744 16.5404 219.916 16.3666 218.847 16.3666H214.951V27.9292ZM232.878 30.7634V13.5498H236.551V25.1646L245.809 13.5498H249.119V30.7634H245.464V19.0095L236.12 30.7634H232.878ZM260.275 30.7634V16.7143H254.672V13.5498H269.688V16.7143H264.068V30.7634H260.275ZM275.236 30.7634V13.5498H278.907V25.1646L288.167 13.5498H291.477V30.7634H287.822V19.0095L278.478 30.7634H275.236ZM306.615 31.285C304.777 31.285 303.161 30.9084 301.769 30.1548C300.379 29.3898 299.294 28.3233 298.512 26.9555C297.742 25.5877 297.355 23.9997 297.355 22.1914C297.355 20.8699 297.581 19.6528 298.029 18.54C298.477 17.4156 299.108 16.4419 299.925 15.6189C300.742 14.7959 301.695 14.1583 302.787 13.7063C303.891 13.2542 305.092 13.0281 306.389 13.0281C307.803 13.0281 309.063 13.2832 310.166 13.7932C311.27 14.2916 312.182 14.9929 312.906 15.8971C313.644 16.8012 314.161 17.8619 314.458 19.079C314.768 20.2845 314.821 21.5944 314.615 23.0086H300.994C300.97 24.0402 301.196 24.9444 301.665 25.721C302.137 26.4861 302.811 27.0831 303.684 27.5119C304.57 27.9407 305.61 28.1553 306.803 28.1553C307.769 28.1553 308.7 28.0103 309.596 27.7206C310.506 27.4191 311.328 26.9788 312.063 26.3991L313.527 29.1464C312.975 29.5984 312.31 29.9869 311.527 30.3113C310.747 30.6243 309.93 30.8618 309.079 31.0242C308.23 31.1981 307.408 31.285 306.615 31.285ZM301.217 20.1918H310.891C310.856 18.8935 310.442 17.8735 309.649 17.1316C308.867 16.3897 307.753 16.0188 306.304 16.0188C304.901 16.0188 303.734 16.3897 302.803 17.1316C301.885 17.8735 301.355 18.8935 301.217 20.1918ZM153.803 65.5384V58.8095C152.999 59.0181 152.234 59.1746 151.51 59.2789C150.798 59.3832 150.044 59.4354 149.251 59.4354C147.723 59.4354 146.436 59.1979 145.389 58.7225C144.344 58.2472 143.556 57.5287 143.027 56.5665C142.499 55.6043 142.234 54.393 142.234 52.9325V48.3248H146.027V52.3935C146.027 53.6221 146.32 54.5554 146.907 55.1928C147.493 55.8303 148.493 56.1492 149.907 56.1492C150.723 56.1492 151.435 56.1144 152.044 56.0448C152.665 55.9638 153.251 55.8651 153.803 55.7492V48.3248H157.596V65.5384H153.803ZM172.741 66.06C170.902 66.06 169.287 65.6834 167.896 64.9298C166.505 64.1648 165.419 63.0983 164.638 61.7305C163.867 60.3628 163.483 58.7747 163.483 56.9664C163.483 55.6449 163.707 54.4278 164.155 53.315C164.603 52.1907 165.235 51.217 166.051 50.3939C166.867 49.5708 167.821 48.9333 168.913 48.4813C170.017 48.0292 171.218 47.8032 172.517 47.8032C173.93 47.8032 175.189 48.0581 176.292 48.5682C177.396 49.0666 178.31 49.7679 179.034 50.6721C179.769 51.5762 180.287 52.6369 180.585 53.854C180.896 55.0596 180.948 56.3693 180.741 57.7836H167.12C167.097 58.8153 167.321 59.7195 167.793 60.496C168.264 61.2611 168.936 61.8582 169.81 62.287C170.695 62.7158 171.735 62.9303 172.931 62.9303C173.896 62.9303 174.827 62.7853 175.724 62.4956C176.631 62.1941 177.453 61.7538 178.189 61.1741L179.654 63.9214C179.103 64.3735 178.436 64.7619 177.655 65.0863C176.873 65.3993 176.057 65.6369 175.206 65.7992C174.356 65.9731 173.534 66.06 172.741 66.06ZM167.344 54.9668H177.017C176.982 53.6686 176.568 52.6484 175.775 51.9066C174.994 51.1648 173.879 50.7938 172.431 50.7938C171.028 50.7938 169.862 51.1648 168.931 51.9066C168.011 52.6484 167.482 53.6686 167.344 54.9668ZM186.129 65.834L184.801 62.3913C185.974 62.0898 186.83 61.6147 187.37 60.9655C187.922 60.3163 188.267 59.4121 188.405 58.2531C188.554 57.094 188.629 55.5986 188.629 53.7671V48.3248H202.508V65.5384H198.715V51.4893H192.163V53.7671C192.163 55.6101 192.077 57.2157 191.904 58.5834C191.744 59.9511 191.445 61.1161 191.008 62.0783C190.571 63.0405 189.956 63.8286 189.163 64.443C188.382 65.0457 187.37 65.5095 186.129 65.834ZM217.64 66.06C215.858 66.06 214.267 65.6486 212.864 64.8255C211.474 63.9909 210.382 62.884 209.589 61.5045C208.795 60.1135 208.399 58.5893 208.399 56.9316C208.399 55.703 208.623 54.5436 209.071 53.4541C209.531 52.3528 210.175 51.3791 211.002 50.533C211.841 49.6869 212.824 49.0203 213.95 48.5334C215.077 48.0466 216.313 47.8032 217.657 47.8032C219.439 47.8032 221.025 48.2205 222.416 49.0551C223.818 49.8782 224.916 50.9851 225.709 52.3761C226.502 53.7556 226.898 55.2739 226.898 56.9316C226.898 58.1487 226.668 59.3078 226.209 60.4091C225.76 61.5104 225.123 62.4841 224.295 63.3302C223.467 64.1763 222.491 64.8429 221.364 65.3298C220.238 65.8166 218.996 66.06 217.64 66.06ZM217.64 62.6695C218.698 62.6695 219.634 62.4376 220.45 61.974C221.278 61.4986 221.927 60.8323 222.399 59.9744C222.87 59.1165 223.105 58.1024 223.105 56.9316C223.105 55.7607 222.87 54.7467 222.399 53.8888C221.927 53.0194 221.278 52.3528 220.45 51.8892C219.634 51.4256 218.698 51.1937 217.64 51.1937C216.583 51.1937 215.64 51.4256 214.813 51.8892C213.996 52.3528 213.353 53.0194 212.882 53.8888C212.422 54.7467 212.192 55.7607 212.192 56.9316C212.192 58.1024 212.427 59.1165 212.899 59.9744C213.37 60.8323 214.014 61.4986 214.83 61.974C215.657 62.4376 216.594 62.6695 217.64 62.6695ZM232.777 65.5384V48.3248H240.915C242.846 48.3248 244.392 48.6958 245.553 49.4376C246.714 50.1794 247.294 51.2922 247.294 52.776C247.294 53.4715 247.127 54.0915 246.794 54.6364C246.461 55.1696 246.001 55.616 245.415 55.9753C244.829 56.3345 244.145 56.5954 243.363 56.7577L243.294 55.9057C244.8 56.1144 245.966 56.6186 246.794 57.4184C247.622 58.2183 248.035 59.2326 248.035 60.4613C248.035 61.5045 247.765 62.4087 247.225 63.1737C246.685 63.9273 245.909 64.5126 244.898 64.9298C243.886 65.3356 242.674 65.5384 241.26 65.5384H232.777ZM236.45 62.7043H240.743C241.88 62.7043 242.754 62.513 243.363 62.1305C243.984 61.7479 244.294 61.1742 244.294 60.4091C244.294 59.6556 243.99 59.0935 243.38 58.7225C242.771 58.34 241.892 58.1487 240.743 58.1487H235.95V55.4189H240.346C241.415 55.4189 242.242 55.2565 242.829 54.932C243.415 54.5958 243.708 54.0512 243.708 53.2976C243.708 52.5441 243.415 51.9994 242.829 51.6632C242.242 51.3154 241.415 51.1416 240.346 51.1416H236.45V62.7043ZM262.17 66.06C260.331 66.06 258.716 65.6834 257.325 64.9298C255.934 64.1648 254.848 63.0983 254.067 61.7305C253.297 60.3628 252.911 58.7747 252.911 56.9664C252.911 55.6449 253.136 54.4278 253.584 53.315C254.032 52.1907 254.664 51.217 255.48 50.3939C256.296 49.5708 257.25 48.9333 258.342 48.4813C259.446 48.0292 260.647 47.8032 261.946 47.8032C263.359 47.8032 264.618 48.0581 265.722 48.5682C266.826 49.0666 267.738 49.7679 268.462 50.6721C269.199 51.5762 269.717 52.6369 270.014 53.854C270.324 55.0596 270.377 56.3693 270.17 57.7836H256.549C256.526 58.8153 256.75 59.7195 257.222 60.496C257.693 61.2611 258.365 61.8582 259.239 62.287C260.124 62.7158 261.164 62.9303 262.359 62.9303C263.325 62.9303 264.256 62.7853 265.152 62.4956C266.062 62.1941 266.881 61.7538 267.619 61.1741L269.083 63.9214C268.531 64.3735 267.865 64.7619 267.083 65.0863C266.303 65.3993 265.486 65.6369 264.635 65.7992C263.785 65.9731 262.963 66.06 262.17 66.06ZM256.773 54.9668H266.446C266.412 53.6686 265.998 52.6484 265.204 51.9066C264.422 51.1648 263.308 50.7938 261.859 50.7938C260.457 50.7938 259.291 51.1648 258.36 51.9066C257.44 52.6484 256.911 53.6686 256.773 54.9668ZM286.533 65.5384V58.8095C285.727 59.0181 284.963 59.1746 284.239 59.2789C283.525 59.3832 282.775 59.4354 281.982 59.4354C280.451 59.4354 279.165 59.1979 278.12 58.7225C277.072 58.2472 276.284 57.5287 275.756 56.5665C275.228 55.6043 274.963 54.393 274.963 52.9325V48.3248H278.756V52.3935C278.756 53.6221 279.051 54.5554 279.637 55.1928C280.223 55.8303 281.223 56.1492 282.637 56.1492C283.451 56.1492 284.165 56.1144 284.775 56.0448C285.395 55.9638 285.981 55.8651 286.533 55.7492V48.3248H290.326V65.5384H286.533ZM305.469 66.06C303.631 66.06 302.015 65.6834 300.626 64.9298C299.233 64.1648 298.148 63.0983 297.366 61.7305C296.597 60.3628 296.212 58.7747 296.212 56.9664C296.212 55.6449 296.435 54.4278 296.883 53.315C297.331 52.1907 297.965 51.217 298.779 50.3939C299.596 49.5708 300.551 48.9333 301.641 48.4813C302.745 48.0292 303.946 47.8032 305.246 47.8032C306.66 47.8032 307.917 48.0581 309.021 48.5682C310.124 49.0666 311.039 49.7679 311.763 50.6721C312.498 51.5762 313.015 52.6369 313.315 53.854C313.625 55.0596 313.676 56.3693 313.469 57.7836H299.848C299.827 58.8153 300.05 59.7195 300.522 60.496C300.992 61.2611 301.665 61.8582 302.538 62.287C303.424 62.7158 304.464 62.9303 305.66 62.9303C306.625 62.9303 307.556 62.7853 308.453 62.4956C309.36 62.1941 310.182 61.7538 310.917 61.1741L312.384 63.9214C311.832 64.3735 311.164 64.7619 310.384 65.0863C309.601 65.3993 308.784 65.6369 307.936 65.7992C307.084 65.9731 306.262 66.06 305.469 66.06ZM300.074 54.9668H309.745C309.71 53.6686 309.296 52.6484 308.503 51.9066C307.724 51.1648 306.607 50.7938 305.159 50.7938C303.758 50.7938 302.591 51.1648 301.66 51.9066C300.74 52.6484 300.212 53.6686 300.074 54.9668ZM327.474 66.06C325.681 66.06 324.084 65.666 322.681 64.8777C321.28 64.0779 320.177 62.994 319.37 61.6262C318.577 60.2467 318.182 58.6819 318.182 56.9316C318.182 55.6101 318.418 54.3989 318.888 53.2976C319.36 52.1848 320.026 51.217 320.888 50.3939C321.75 49.5708 322.763 48.9333 323.922 48.4813C325.094 48.0292 326.365 47.8032 327.734 47.8032C328.882 47.8032 329.946 47.9596 330.922 48.2726C331.911 48.5741 332.818 49.0436 333.646 49.681L331.818 52.6021C331.29 52.1268 330.68 51.7734 329.991 51.5415C329.314 51.3096 328.59 51.1937 327.818 51.1937C326.625 51.1937 325.596 51.4198 324.734 51.8718C323.872 52.3239 323.198 52.9788 322.715 53.8366C322.246 54.6827 322.01 55.7086 322.01 56.9142C322.01 58.711 322.527 60.1194 323.561 61.1394C324.606 62.1594 326.025 62.6695 327.818 62.6695C328.67 62.6695 329.474 62.513 330.232 62.2C330.991 61.8755 331.625 61.4524 332.129 60.9307L333.94 63.8344C333.03 64.5299 332.02 65.0748 330.906 65.4689C329.789 65.8629 328.646 66.06 327.474 66.06ZM350.839 65.5384L345.184 56.3926L350.444 48.3248H354.494L349.271 56.2187L355.375 65.5384H350.839ZM339.494 65.5384V48.3248H343.287V54.9668H348.425V58.1313H343.287V65.5384H339.494ZM368.231 66.06C366.449 66.06 364.857 65.6486 363.454 64.8255C362.064 63.9909 360.971 62.884 360.178 61.5045C359.385 60.1135 358.99 58.5893 358.99 56.9316C358.99 55.703 359.213 54.5436 359.661 53.4541C360.122 52.3528 360.764 51.3791 361.592 50.533C362.433 49.6869 363.414 49.0203 364.541 48.5334C365.669 48.0466 366.902 47.8032 368.247 47.8032C370.029 47.8032 371.615 48.2205 373.005 49.0551C374.409 49.8782 375.507 50.9851 376.3 52.3761C377.093 53.7556 377.488 55.2739 377.488 56.9316C377.488 58.1487 377.26 59.3078 376.798 60.4091C376.35 61.5104 375.714 62.4841 374.886 63.3302C374.058 64.1763 373.082 64.8429 371.955 65.3298C370.828 65.8166 369.586 66.06 368.231 66.06ZM368.231 62.6695C369.289 62.6695 370.226 62.4376 371.04 61.974C371.867 61.4986 372.517 60.8323 372.989 59.9744C373.462 59.1165 373.695 58.1024 373.695 56.9316C373.695 55.7607 373.462 54.7467 372.989 53.8888C372.517 53.0194 371.867 52.3528 371.04 51.8892C370.226 51.4256 369.289 51.1937 368.231 51.1937C367.173 51.1937 366.231 51.4256 365.403 51.8892C364.587 52.3528 363.945 53.0194 363.472 53.8888C363.014 54.7467 362.783 55.7607 362.783 56.9316C362.783 58.1024 363.019 59.1165 363.488 59.9744C363.961 60.8323 364.605 61.4986 365.419 61.974C366.247 62.4376 367.186 62.6695 368.231 62.6695ZM383.368 65.5384V48.3248H394.609V51.4893H387.161V65.5384H383.368ZM407.962 66.06C406.179 66.06 404.588 65.6486 403.185 64.8255C401.795 63.9909 400.702 62.884 399.909 61.5045C399.116 60.1135 398.721 58.5893 398.721 56.9316C398.721 55.703 398.944 54.5436 399.392 53.4541C399.853 52.3528 400.495 51.3791 401.323 50.533C402.164 49.6869 403.145 49.0203 404.272 48.5334C405.4 48.0466 406.633 47.8032 407.978 47.8032C409.76 47.8032 411.346 48.2205 412.736 49.0551C414.139 49.8782 415.237 50.9851 416.031 52.3761C416.824 53.7556 417.219 55.2739 417.219 56.9316C417.219 58.1487 416.991 59.3078 416.529 60.4091C416.081 61.5104 415.444 62.4841 414.617 63.3302C413.789 64.1763 412.813 64.8429 411.686 65.3298C410.559 65.8166 409.317 66.06 407.962 66.06ZM407.962 62.6695C409.02 62.6695 409.956 62.4376 410.771 61.974C411.598 61.4986 412.248 60.8323 412.72 59.9744C413.192 59.1165 413.426 58.1024 413.426 56.9316C413.426 55.7607 413.192 54.7467 412.72 53.8888C412.248 53.0194 411.598 52.3528 410.771 51.8892C409.956 51.4256 409.02 51.1937 407.962 51.1937C406.904 51.1937 405.962 51.4256 405.134 51.8892C404.317 52.3528 403.676 53.0194 403.203 53.8888C402.745 54.7467 402.514 55.7607 402.514 56.9316C402.514 58.1024 402.75 59.1165 403.219 59.9744C403.691 60.8323 404.336 61.4986 405.15 61.974C405.978 62.4376 406.917 62.6695 407.962 62.6695ZM155.131 100.313L149.476 91.1676L154.734 83.0998H158.786L153.562 90.9937L159.665 100.313H155.131ZM143.786 100.313V83.0998H147.579V89.7418H152.717V92.9063H147.579V100.313H143.786ZM171.97 100.835C170.269 100.835 168.763 100.441 167.453 99.6527C166.154 98.8529 165.131 97.769 164.384 96.4012C163.648 95.0217 163.28 93.4569 163.28 91.7066C163.28 90.3967 163.493 89.1854 163.918 88.0726C164.344 86.9598 164.941 85.992 165.711 85.1689C166.481 84.3458 167.401 83.7084 168.47 83.2563C169.539 82.8042 170.705 82.5782 171.97 82.5782C173.648 82.5782 175.05 82.9374 176.177 83.6562C177.314 84.375 178.182 85.3021 178.78 86.4382L178.245 87.2554V83.0998H181.625V100.313H178.245V96.1578L178.78 96.975C178.182 98.1111 177.314 99.0382 176.177 99.757C175.05 100.476 173.648 100.835 171.97 100.835ZM172.47 97.4445C173.504 97.4445 174.429 97.2126 175.246 96.749C176.062 96.2736 176.7 95.6073 177.159 94.7494C177.631 93.8915 177.866 92.8775 177.866 91.7066C177.866 90.5358 177.631 89.5217 177.159 88.6638C176.7 87.7944 176.062 87.1278 175.246 86.6642C174.429 86.2007 173.504 85.9687 172.47 85.9687C171.424 85.9687 170.493 86.2007 169.677 86.6642C168.872 87.1278 168.234 87.7944 167.763 88.6638C167.292 89.5217 167.056 90.5358 167.056 91.7066C167.056 92.8775 167.292 93.8915 167.763 94.7494C168.234 95.6073 168.872 96.2736 169.677 96.749C170.493 97.2126 171.424 97.4445 172.47 97.4445ZM188.972 100.313V83.0998H205.092V100.313H201.299V86.2643H192.765V100.313H188.972ZM212.423 100.313V83.0998H216.096V94.7146L225.354 83.0998H228.664V100.313H225.009V88.5595L215.665 100.313H212.423ZM239.82 100.313V86.2643H234.217V83.0998H249.234V86.2643H243.613V100.313H239.82ZM262.005 100.835C260.304 100.835 258.798 100.441 257.488 99.6527C256.189 98.8529 255.166 97.769 254.419 96.4012C253.683 95.0217 253.315 93.4569 253.315 91.7066C253.315 90.3967 253.528 89.1854 253.953 88.0726C254.379 86.9598 254.976 85.992 255.746 85.1689C256.517 84.3458 257.436 83.7084 258.505 83.2563C259.574 82.8042 260.741 82.5782 262.005 82.5782C263.683 82.5782 265.085 82.9374 266.213 83.6562C267.351 84.375 268.218 85.3021 268.815 86.4382L268.282 87.2554V83.0998H271.661V100.313H268.282V96.1578L268.815 96.975C268.218 98.1111 267.351 99.0382 266.213 99.757C265.085 100.476 263.683 100.835 262.005 100.835ZM262.505 97.4445C263.539 97.4445 264.465 97.2126 265.282 96.749C266.096 96.2736 266.735 95.6073 267.194 94.7494C267.666 93.8915 267.902 92.8775 267.902 91.7066C267.902 90.5358 267.666 89.5217 267.194 88.6638C266.735 87.7944 266.096 87.1278 265.282 86.6642C264.465 86.2007 263.539 85.9687 262.505 85.9687C261.459 85.9687 260.528 86.2007 259.712 86.6642C258.907 87.1278 258.269 87.7944 257.798 88.6638C257.327 89.5217 257.091 90.5358 257.091 91.7066C257.091 92.8775 257.327 93.8915 257.798 94.7494C258.269 95.6073 258.907 96.2736 259.712 96.749C260.528 97.2126 261.459 97.4445 262.505 97.4445ZM278.388 100.609L277.059 97.1663C278.231 96.8648 279.088 96.3897 279.629 95.7405C280.181 95.0913 280.525 94.1871 280.663 93.0281C280.812 91.869 280.886 90.3736 280.886 88.5421V83.0998H294.766V100.313H290.973V86.2643H284.422V88.5421C284.422 90.3852 284.334 91.9907 284.162 93.3584C284 94.7262 283.703 95.8911 283.265 96.8533C282.828 97.8155 282.215 98.6036 281.422 99.218C280.639 99.8207 279.629 100.285 278.388 100.609ZM309.347 100.835C307.644 100.835 306.14 100.441 304.83 99.6527C303.53 98.8529 302.506 97.769 301.761 96.4012C301.023 95.0217 300.657 93.4569 300.657 91.7066C300.657 90.3967 300.87 89.1854 301.294 88.0726C301.718 86.9598 302.318 85.992 303.087 85.1689C303.856 84.3458 304.777 83.7084 305.846 83.2563C306.915 82.8042 308.082 82.5782 309.347 82.5782C311.023 82.5782 312.426 82.9374 313.554 83.6562C314.691 84.375 315.559 85.3021 316.156 86.4382L315.622 87.2554V83.0998H319.002V100.313H315.622V96.1578L316.156 96.975C315.559 98.1111 314.691 99.0382 313.554 99.757C312.426 100.476 311.023 100.835 309.347 100.835ZM309.845 97.4445C310.88 97.4445 311.806 97.2126 312.623 96.749C313.437 96.2736 314.076 95.6073 314.535 94.7494C315.007 93.8915 315.243 92.8775 315.243 91.7066C315.243 90.5358 315.007 89.5217 314.535 88.6638C314.076 87.7944 313.437 87.1278 312.623 86.6642C311.806 86.2007 310.88 85.9687 309.845 85.9687C308.8 85.9687 307.869 86.2007 307.052 86.6642C306.249 87.1278 305.61 87.7944 305.14 88.6638C304.668 89.5217 304.432 90.5358 304.432 91.7066C304.432 92.8775 304.668 93.8915 305.14 94.7494C305.61 95.6073 306.249 96.2736 307.052 96.749C307.869 97.2126 308.8 97.4445 309.845 97.4445Z" fill="white"/>
</g>
<defs>
<clipPath id="clip0_1196_1165">
<rect width="435" height="107" fill="white"/>
</clipPath>
</defs>
</svg>
