<svg width="236" height="55" viewBox="0 0 236 55" fill="none" xmlns="http://www.w3.org/2000/svg">
<path d="M0.5 44.2322C0.5 49.3515 3.74524 52.5348 9.04011 52.5348H14.1032C15.5349 52.473 16.9639 52.7132 18.3081 53.2417C19.6523 53.7702 20.8851 54.5764 21.9357 55.6142L22.3627 56.0559L22.7897 55.6142C23.8295 54.583 25.0501 53.7802 26.3815 53.2518C27.7129 52.7234 29.1291 52.4798 30.549 52.5348H35.6242C40.8337 52.5348 44.0668 49.3515 44.0668 44.2322V0.0559082H0.5V44.2322ZM1.41501 1.06936H43.1517V44.2322C43.1517 48.8188 40.3335 51.5603 35.6242 51.5603H30.549C27.5215 51.4329 24.5654 52.5599 22.3017 54.7046C20.0296 52.5662 17.0723 51.4403 14.0422 51.5603H8.9791C4.24544 51.5603 1.41501 48.8188 1.41501 44.2322V1.06936Z" fill="#F1F3F5"/>
<path d="M7.57523 28.3923C7.78022 28.5602 7.99632 28.7122 8.22184 28.847C8.42924 28.977 8.44144 28.99 8.34384 29.2238L8.25844 29.3668C7.92393 29.9882 7.72112 30.6801 7.66421 31.3938C7.60731 32.1076 7.6977 32.8259 7.92904 33.4986C8.01444 33.7584 8.12423 34.0183 8.24623 34.3431C8.36823 33.7324 8.46584 33.2127 8.57564 32.706C8.62799 32.3625 8.74459 32.0336 8.91854 31.739C9.09249 31.4444 9.32023 31.19 9.58825 30.9909C9.77124 30.8549 9.94643 30.7074 10.1129 30.5491C10.1628 30.5134 10.2159 30.4829 10.2715 30.4582C10.4631 30.7001 10.5783 31.0001 10.6009 31.3157C10.666 31.9618 10.547 32.6137 10.2593 33.1867C10.0519 33.6025 9.84446 34.0183 9.67366 34.486C9.48135 34.9022 9.40555 35.3685 9.4553 35.8293C9.50506 36.29 9.67827 36.7258 9.95426 37.0846C10.1495 37.3575 10.3691 37.5914 10.6009 37.8772L10.3325 38.228C10.2518 38.3195 10.207 38.4403 10.207 38.5658C10.207 38.6913 10.2518 38.8121 10.3325 38.9037C10.407 39.0053 10.4886 39.1008 10.5765 39.1895C10.7082 39.3382 10.8154 39.5095 10.8937 39.6962C11.0923 40.1872 11.1475 40.7305 11.0523 41.2554C11.0107 41.3565 11.0052 41.4703 11.0366 41.5755C11.068 41.6807 11.1343 41.7701 11.2231 41.8271C11.6151 42.064 12.0714 42.1511 12.5163 42.074C12.7115 42.074 12.7359 41.996 12.6993 41.7621C12.6699 41.4788 12.5686 41.2093 12.4065 40.9825L11.7721 40.099C11.6135 39.8654 11.5211 39.5881 11.506 39.3003C11.4908 39.0124 11.5536 38.7259 11.6867 38.4749C12.3052 38.7976 12.9684 39.0125 13.6509 39.1115C13.6571 39.1763 13.6571 39.2416 13.6509 39.3064C13.6057 39.7382 13.6057 40.174 13.6509 40.6057C13.6851 40.9401 13.8027 41.2586 13.9914 41.5282C14.1802 41.7978 14.4334 42.0087 14.7245 42.1389C15.3329 42.3231 15.9846 42.2486 16.5423 41.931C16.8536 41.7712 17.1063 41.5059 17.2608 41.1767C17.4154 40.8476 17.463 40.4731 17.3963 40.112C17.3483 39.8489 17.2873 39.5887 17.2133 39.3324C17.3597 39.1245 17.5794 39.1765 17.799 39.1505C17.8983 39.1363 17.9992 39.1597 18.084 39.2167C18.1687 39.2737 18.2319 39.3607 18.2626 39.4624C18.3602 39.7222 18.4456 39.9691 18.5554 40.216C18.5855 40.2688 18.6015 40.3295 18.6015 40.3914C18.6015 40.4532 18.5855 40.5139 18.5554 40.5668C18.3724 40.9176 18.226 41.2944 18.043 41.6452C17.9953 41.7303 17.9777 41.8307 17.9933 41.9283C18.009 42.026 18.0569 42.1145 18.1284 42.1779C18.2382 42.2818 18.3602 42.3468 18.4578 42.4508C18.5554 42.5547 18.6286 42.7886 18.3846 42.8405C18.1759 42.8926 17.9588 42.8926 17.7502 42.8405C17.5932 42.7864 17.4225 42.7995 17.2745 42.8771C17.1264 42.9548 17.0126 43.0908 16.9571 43.2563C16.9359 43.3162 16.9016 43.3698 16.8571 43.4127C16.8125 43.4557 16.759 43.4867 16.7009 43.5032C16.5518 43.537 16.4145 43.6145 16.3045 43.727C16.1946 43.8395 16.1164 43.9825 16.0787 44.1399C16.0787 44.1399 16.0787 44.2568 16.0787 44.3477L16.4203 44.1788C17.0978 43.9153 17.8357 43.8835 18.531 44.0879C19.2592 44.2664 19.9528 44.5786 20.5806 45.0104C20.6201 45.0252 20.6631 45.0252 20.7026 45.0104C20.7547 44.8578 20.7525 44.6902 20.6962 44.5393C20.64 44.3885 20.5337 44.2648 20.3976 44.1918C20.3105 44.1432 20.2209 44.0998 20.1292 44.0619C19.69 43.906 19.2386 43.776 18.7994 43.6331C18.6774 43.6331 18.5432 43.6331 18.5188 43.3603C18.7796 43.2954 19.0509 43.2954 19.3118 43.3603C19.9828 43.5162 20.6538 43.7111 21.3248 43.88C21.5322 43.88 21.7396 44.0229 21.9592 44.1009C21.9592 44.0099 21.9592 43.9579 21.9592 43.893C21.94 43.5706 21.8568 43.2562 21.7152 42.9705C21.5932 42.7626 21.4834 42.5287 21.3614 42.3208C21.2919 42.19 21.2554 42.0423 21.2554 41.8921C21.2554 41.7418 21.2919 41.5941 21.3614 41.4633C21.9201 41.4897 22.4716 41.608 22.9962 41.8141C23.5452 41.97 24.0698 42.1779 24.6554 42.3728C24.6554 42.0999 24.6554 41.8661 24.6554 41.6452C24.7364 41.5993 24.8225 41.5644 24.9116 41.5412C25.2045 41.4243 25.2045 41.4243 25.4363 41.6972C26.031 42.404 26.8072 42.9099 27.6689 43.1524C27.8684 43.2117 28.0794 43.2117 28.2789 43.1524C28.1447 43.0354 28.0349 42.9575 27.9495 42.8665C27.8641 42.7756 27.7299 42.6716 27.7421 42.5157C27.7543 42.3598 27.7421 42.5157 27.8275 42.5157L28.8035 42.8405C29.0719 42.9185 29.1451 42.8405 29.2549 42.6067C29.3634 42.3411 29.4054 42.0501 29.3769 41.7621C29.3708 41.6713 29.3708 41.5801 29.3769 41.4893C29.5828 41.5275 29.7761 41.6215 29.9381 41.7621C30.3773 42.035 30.3773 42.035 30.7677 41.6582C30.8053 41.6117 30.8461 41.5682 30.8897 41.5282C31.5814 40.7007 32.0531 39.6915 32.2561 38.6048C32.2861 38.4445 32.3311 38.2878 32.3903 38.1371C32.6343 38.1371 32.854 38.254 33.0248 38.1371C33.0248 37.9292 32.7197 37.9032 32.7807 37.6563C33.1101 37.6831 33.4406 37.6251 33.7446 37.4874C33.7061 37.4409 33.6607 37.4015 33.6104 37.3705C33.1785 37.1248 32.8194 36.7559 32.5733 36.3051L31.7803 34.7589C31.5729 34.3561 31.4387 34.3301 31.1093 34.564C31.1093 34.564 31.1093 34.564 30.9873 34.564C30.8409 34.3041 30.6701 34.0053 30.5115 33.7064C30.4092 33.5064 30.3508 33.2843 30.3407 33.0568C30.3339 32.8732 30.2743 32.6963 30.1699 32.5501C30.0601 32.3812 29.9625 32.3812 29.7795 32.5501L29.5599 32.693C29.5599 32.4331 29.5599 32.2122 29.4745 31.9524H29.0719C29.0076 31.9604 28.9425 31.9487 28.8842 31.9188C28.8259 31.8889 28.7767 31.842 28.7425 31.7835C28.6205 31.5626 28.4863 31.3547 28.3765 31.1338C28.2667 30.9129 28.3765 30.861 28.5229 30.822H28.6571C29.7833 30.8249 30.8931 30.535 31.8901 29.9774C32.31 29.6386 32.7693 29.3591 33.2565 29.1459C33.3477 29.1049 33.4481 29.0929 33.5455 29.1114C33.6429 29.1298 33.7332 29.1779 33.8056 29.2498L34.7816 30.3542C34.8596 30.4437 34.9169 30.5515 34.9487 30.6688C34.9805 30.7862 34.9859 30.9099 34.9646 31.0299C34.9523 31.1259 34.9625 31.2236 34.9945 31.3143C35.0264 31.4051 35.079 31.4859 35.1476 31.5496C35.2925 31.7358 35.427 31.9311 35.5502 32.1343C35.6217 32.2502 35.6657 32.3829 35.6784 32.521C35.6912 32.659 35.6723 32.7983 35.6234 32.9269C35.5624 33.1088 35.5258 33.2777 35.4526 33.4466C35.4241 33.4968 35.4052 33.5525 35.3971 33.6106C35.389 33.6686 35.3919 33.7278 35.4055 33.7846C35.4192 33.8415 35.4433 33.8948 35.4765 33.9417C35.5097 33.9885 35.5514 34.0278 35.599 34.0573C35.8645 34.272 36.146 34.4632 36.4408 34.6289C36.6604 34.7589 36.7824 34.629 36.819 34.4081C36.8821 33.961 36.8049 33.5043 36.5994 33.1088C36.3103 32.6041 36.1582 32.0239 36.1602 31.4327C36.1465 30.887 35.9317 30.3689 35.5624 29.9904C35.2904 29.6641 35.0417 29.3167 34.8182 28.951C34.6754 28.7052 34.549 28.449 34.44 28.1844C34.2204 27.7946 33.9642 27.4698 33.4762 27.5218C33.2486 27.535 33.0205 27.535 32.7929 27.5218C32.7929 27.5218 32.6831 27.5218 32.6099 27.5218V27.4568C32.9883 27.2885 33.317 27.0147 33.5616 26.6642C33.891 26.2744 34.2204 25.8976 34.562 25.5338C34.9036 25.17 34.7816 25.3389 34.9646 25.5338C35.0234 25.5834 35.0766 25.6401 35.1232 25.7027C35.3794 26.0016 35.6356 26.3004 35.904 26.5863C35.9893 26.6577 36.0555 26.7516 36.0962 26.8588C36.1368 26.9659 36.1505 27.0825 36.1358 27.1969C36.1176 27.312 36.1416 27.4302 36.2029 27.5269C36.2643 27.6237 36.3582 27.6916 36.4652 27.7167C36.5558 27.7554 36.6327 27.8236 36.6848 27.9116C36.7498 27.9868 36.7991 28.0757 36.8297 28.1726C36.8602 28.2696 36.8712 28.3722 36.862 28.474C36.8528 28.5757 36.8236 28.6742 36.7762 28.7631C36.7289 28.8521 36.6645 28.9293 36.5872 28.99L36.5018 29.0939C36.4147 29.1803 36.3585 29.2962 36.3429 29.4219C36.3273 29.5475 36.3533 29.6751 36.4164 29.7825C36.4877 29.9512 36.5904 30.1027 36.7183 30.2278C36.8462 30.3529 36.9967 30.4489 37.1606 30.5102C37.4412 30.6141 37.5876 30.5101 37.612 30.2373C37.6549 29.9794 37.6549 29.7156 37.612 29.4577C37.4544 28.8713 37.3925 28.2604 37.429 27.6517C37.445 27.4851 37.4235 27.3169 37.3662 27.161C37.3089 27.005 37.2175 26.8659 37.0996 26.7552C36.7458 26.3654 36.4042 25.9626 36.0626 25.5468C35.7035 25.1646 35.4429 24.6903 35.3062 24.1695C35.2832 24.0792 35.2504 23.992 35.2086 23.9097C35.186 23.8441 35.1492 23.7851 35.1011 23.7376C35.0531 23.6901 34.9951 23.6555 34.932 23.6364C34.8689 23.6174 34.8025 23.6146 34.7381 23.6282C34.6738 23.6418 34.6134 23.6715 34.562 23.7148C34.3677 23.8544 34.1913 24.0204 34.0374 24.2085C33.7935 24.5342 33.4797 24.7927 33.1223 24.9621C33.0852 24.9914 33.0418 25.0104 32.9961 25.0175C32.9504 25.0246 32.9038 25.0196 32.8603 25.0028C32.8169 24.9861 32.7779 24.9583 32.747 24.9217C32.7161 24.8851 32.6942 24.841 32.6831 24.7932C32.6283 24.6654 32.5913 24.5297 32.5733 24.3904C32.4703 23.7364 32.2237 23.1176 31.8535 22.5844C31.6949 22.3505 31.5119 22.1426 31.3533 21.9088C31.0295 21.5203 30.7622 21.0823 30.5603 20.6095C30.2431 19.635 29.9015 18.6865 29.5843 17.712C29.5091 17.5092 29.4479 17.3007 29.4013 17.0883H29.9747C30.3774 17.1158 30.7654 17.2595 31.0971 17.5041C31.2557 17.6341 31.4021 17.79 31.5729 17.9069C31.7008 18.0032 31.8463 18.0696 31.9999 18.1018C32.0474 18.1093 32.0959 18.1036 32.1408 18.0854C32.1856 18.0672 32.2253 18.0371 32.2561 17.9979C32.2561 17.9979 32.2561 17.8419 32.1829 17.764C32.1812 17.725 32.1812 17.686 32.1829 17.647C32.282 17.6707 32.3742 17.7197 32.4513 17.79C32.4811 17.8281 32.5184 17.8588 32.5606 17.8799C32.6027 17.901 32.6488 17.9119 32.6953 17.9119C32.7419 17.9119 32.7879 17.901 32.8301 17.8799C32.8723 17.8588 32.9096 17.8281 32.9394 17.79C33.0067 17.677 33.0446 17.5469 33.0492 17.4132C33.0492 17.1923 33.0492 16.9844 33.0492 16.7635C33.0498 16.6583 33.0211 16.5553 32.9668 16.4675C32.9126 16.3796 32.8351 16.3108 32.7441 16.2698C32.6113 16.1921 32.495 16.0859 32.4025 15.9579C31.9877 15.3603 31.5973 14.7366 31.1825 14.1259C31.1016 14.0144 31.0434 13.886 31.0117 13.7491C30.9701 13.4893 30.8552 13.2492 30.6823 13.0605C30.6823 13.0605 30.6823 12.9696 30.6823 12.9176H31.0361C30.9436 12.675 30.8334 12.4404 30.7067 12.216C30.6075 12.0545 30.462 11.9315 30.2919 11.8651C30.0833 11.8131 29.8662 11.8131 29.6575 11.8651C29.4777 11.913 29.289 11.9068 29.1124 11.8472C28.9357 11.7875 28.7781 11.6768 28.6571 11.5273C28.4865 11.3711 28.3027 11.2319 28.1081 11.1116C28.0479 11.0961 27.9852 11.0961 27.9251 11.1116C27.9251 11.2545 27.9251 11.3584 27.9251 11.5273L26.8149 11.3844C26.8149 11.6962 27.0955 11.7872 27.1443 12.047C27.0511 12.0594 26.9568 12.0594 26.8637 12.047C26.4004 12.0359 25.9376 12.0839 25.4851 12.19C25.4851 12.19 25.3265 12.19 25.2533 12.112C25.1501 12.0291 25.0302 11.973 24.9031 11.9482C24.7761 11.9234 24.6453 11.9306 24.5212 11.9691C24.1234 12.0771 23.7444 12.2526 23.3988 12.4888C23.3114 12.549 23.2171 12.597 23.1182 12.6317C23.0926 12.4334 23.0926 12.2324 23.1182 12.0341C23.3377 11.303 23.3377 10.5173 23.1182 9.78626C23.0328 9.47442 22.8864 9.17559 22.7766 8.83777C22.8015 8.79999 22.8302 8.76514 22.862 8.73382C22.9944 8.61327 23.101 8.46393 23.1746 8.29584C23.2483 8.12776 23.2873 7.94482 23.289 7.75934C23.2855 7.55296 23.2308 7.35122 23.1304 7.17465C23.0572 7.01874 22.8742 7.17465 22.74 7.17465C22.5914 7.15953 22.4467 7.11549 22.313 7.04472C22.1433 6.9304 21.9465 6.86972 21.7457 6.86972C21.5449 6.86972 21.3481 6.9304 21.1784 7.04472C20.7001 7.31336 20.1857 7.50181 19.6534 7.60342C19.2547 7.72474 18.8321 7.72474 18.4334 7.60342C18.3358 7.60342 18.226 7.60342 18.0796 7.51247C18.2113 7.97731 18.5033 8.37185 18.897 8.61688C18.7872 8.83776 18.5676 8.61688 18.4578 8.7598C18.348 8.90273 18.4578 8.75981 18.4578 8.83777C18.6202 8.99987 18.8126 9.12405 19.0227 9.20236C19.2328 9.28067 19.4559 9.31138 19.6778 9.29252C19.7779 9.26611 19.8826 9.26611 19.9828 9.29252C20.1057 9.35053 20.2387 9.3805 20.3732 9.3805C20.5077 9.3805 20.6406 9.35053 20.7636 9.29252C20.8612 9.29252 20.9466 9.20157 21.0198 9.29252V9.38347C20.8152 9.56347 20.6542 9.7931 20.5501 10.0531C20.4461 10.3131 20.4022 10.5959 20.422 10.8777C20.4327 11.1909 20.3742 11.5024 20.2512 11.7872C20.2512 11.9041 20.2512 12.034 20.1536 12.151C20.1291 12.2366 20.0964 12.3194 20.056 12.3979C19.8364 12.3979 19.6168 12.2549 19.4094 12.229C19.2653 12.1899 19.1143 12.1899 18.9702 12.229C18.8987 12.2761 18.8163 12.3011 18.7323 12.3011C18.6482 12.3011 18.5658 12.2761 18.4944 12.229C18.3368 12.1121 18.1495 12.0495 17.9576 12.0495C17.7656 12.0495 17.5783 12.1121 17.4208 12.229C17.189 12.3719 16.9693 12.5408 16.7375 12.6967C16.5057 12.8526 16.4081 12.9695 16.2373 13.0735C16.0665 13.1774 15.9811 13.1644 15.9079 12.9825C15.8347 12.8006 15.6273 12.2939 15.4809 11.9431C15.3345 11.5923 15.2613 11.3324 14.8709 11.3454C14.7001 11.3454 14.6513 11.2415 14.6513 11.0726C14.6513 10.9037 14.6513 10.8647 14.6513 10.8127C14.4808 10.6396 14.3692 10.4111 14.3341 10.1631C14.3341 10.0331 14.2365 9.95516 14.1267 10.0071C14.0169 10.0591 14.1267 10.28 14.1267 10.332C14.1267 10.3839 14.2487 10.6958 14.3219 10.8777C14.4683 10.8777 14.4927 11.0466 14.3951 11.1375C14.2783 11.2718 14.1424 11.3858 13.9925 11.4754C13.9065 11.5129 13.8101 11.5129 13.7241 11.4754C13.5411 11.2675 13.2727 11.0856 13.4557 10.7088C13.4377 10.6394 13.4337 10.5668 13.4441 10.4957C13.4545 10.4247 13.479 10.3568 13.5159 10.2965C13.5528 10.2363 13.6014 10.1851 13.6583 10.1465C13.7152 10.1078 13.7793 10.0824 13.8461 10.0721L13.5533 9.66932C13.1507 9.09763 12.7725 8.51294 12.3333 7.92825C12.2462 7.8166 12.1433 7.72015 12.0283 7.6424C11.9696 7.59177 11.8964 7.56414 11.8209 7.56414C11.7454 7.56414 11.6721 7.59177 11.6135 7.6424C11.5655 7.69957 11.5389 7.77359 11.5389 7.8503C11.5389 7.927 11.5655 8.00101 11.6135 8.05818C11.6674 8.15841 11.7286 8.25399 11.7965 8.34403C12.2357 9.01967 12.6749 9.7083 13.1385 10.3839C13.1385 10.4879 13.2727 10.5918 13.2117 10.7218C13.1507 10.8517 13.2117 11.0466 13.2117 11.1895C13.2117 11.3324 13.4435 11.4754 13.5411 11.6183C13.6537 11.7562 13.7333 11.9212 13.7729 12.099C13.8521 12.4444 13.984 12.7736 14.1633 13.0735C14.2609 13.2424 14.3463 13.4113 14.4317 13.5932C14.511 13.719 14.5425 13.8721 14.5199 14.0216C14.4972 14.1712 14.4221 14.306 14.3097 14.3988C14.1587 14.5316 14.0161 14.6749 13.8827 14.8276C13.7129 15.0587 13.558 15.3018 13.4191 15.5552C13.3577 15.6361 13.3242 15.737 13.3242 15.841C13.3242 15.9451 13.3577 16.0459 13.4191 16.1269C13.6293 16.0828 13.837 16.0264 14.0413 15.9579C14.1128 15.9261 14.1913 15.9169 14.2675 15.9314C14.3438 15.946 14.4145 15.9836 14.4711 16.0398C14.5278 16.096 14.568 16.1685 14.587 16.2485C14.606 16.3284 14.6029 16.4125 14.5781 16.4907C14.5665 16.6065 14.5233 16.7161 14.454 16.8061C14.3846 16.8961 14.2921 16.9626 14.1877 16.9974C14.0756 17.0285 13.9655 17.0676 13.8583 17.1143C13.4557 17.2702 13.0653 17.4132 12.6383 17.5821C12.5152 17.6437 12.4065 17.7338 12.3202 17.8458C12.2339 17.9579 12.1721 18.089 12.1394 18.2296C12.1067 18.3703 12.1038 18.5169 12.131 18.6589C12.1582 18.8008 12.2148 18.9346 12.2967 19.0503C12.5651 19.4011 12.5163 19.596 12.1747 19.8948C12.0161 20.0248 11.8575 20.1287 11.6989 20.2457C11.6059 20.3051 11.531 20.3919 11.4834 20.4957C11.4358 20.5994 11.4174 20.7157 11.4305 20.8303C11.4375 20.8993 11.4278 20.969 11.4021 21.0327C11.3765 21.0965 11.3358 21.1521 11.2841 21.1941C11.0844 21.3875 10.937 21.6343 10.8571 21.9088C10.8209 21.9665 10.8016 22.0343 10.8016 22.1037C10.8016 22.173 10.8209 22.2409 10.8571 22.2986C10.9669 22.4025 11.0645 22.2986 11.1621 22.2986C11.3869 22.1885 11.6194 22.0973 11.8575 22.0257C12.4362 21.8762 13.0313 21.8106 13.6265 21.8308C14.1148 21.8193 14.595 21.9642 15.0051 22.2466C15.3101 22.4935 15.6029 22.7663 15.8957 23.0392C16.0145 23.1584 16.1454 23.263 16.2861 23.351C16.4447 23.4289 16.6643 23.351 16.7985 23.4939C16.9327 23.6368 16.9937 23.8187 17.0913 23.9747C17.1464 24.0302 17.1832 24.1031 17.1964 24.1827C17.2096 24.2622 17.1984 24.3442 17.1646 24.4164C17.1646 24.5723 16.9937 24.5593 16.8839 24.5723C16.2467 24.64 15.6173 24.775 15.0051 24.9751C14.9622 25.007 14.9111 25.024 14.8587 25.024C14.8064 25.024 14.7553 25.007 14.7123 24.9751L14.2121 24.5853C13.5663 24.0761 12.8034 23.7619 12.0039 23.6758C11.7178 23.652 11.4303 23.6917 11.1594 23.7924C10.8885 23.893 10.6402 24.0524 10.4301 24.2605C9.91639 24.7868 9.50224 25.4131 9.21005 26.1055C9.05338 26.4331 8.94241 26.7833 8.88065 27.145C8.80745 27.5218 8.70984 27.8856 8.61224 28.2494C8.51464 28.6132 8.47804 28.4962 8.33163 28.3923C7.94565 28.1838 7.60808 27.8864 7.34342 27.5218C7.03842 27.002 7.02622 26.7422 7.50202 26.2225C7.58741 26.1553 7.68208 26.1027 7.78263 26.0665C7.86803 26.2874 7.78263 26.4953 7.95343 26.6512C8.08018 26.788 8.19079 26.9407 8.28283 27.106C8.38208 27.0296 8.46141 26.9276 8.5133 26.8095C8.56519 26.6914 8.58793 26.5611 8.57938 26.431C8.57083 26.301 8.53128 26.1754 8.46444 26.0661C8.3976 25.9569 8.3057 25.8676 8.19743 25.8067C8.10522 25.783 8.00904 25.783 7.91683 25.8067C7.66807 25.792 7.42266 25.8733 7.22552 26.0355C7.02838 26.1977 6.89266 26.4301 6.84321 26.6902C6.71938 27.0389 6.70474 27.4209 6.80149 27.7792C6.89823 28.1374 7.10118 28.4528 7.38002 28.6781L7.57523 28.3923ZM13.1385 9.9032L11.9185 7.98022C11.8331 7.86329 11.6989 7.70738 11.8331 7.59044C11.9673 7.4735 12.0527 7.70737 12.1137 7.81132L13.3337 9.60435C13.4044 9.71525 13.4656 9.83266 13.5167 9.95517C13.3215 10.0591 13.2361 9.95517 13.1751 9.95517L13.1385 9.9032ZM11.0767 36.9417C10.8316 36.6038 10.6229 36.2378 10.4545 35.8503L10.6863 36.0582L11.0279 36.448C11.1987 36.6559 11.2109 36.6429 11.0279 36.9937L11.0767 36.9417ZM11.8087 40.9955L11.5403 41.0865C11.4671 41.2684 11.5403 41.3593 11.6501 41.4763C11.6631 41.5536 11.6631 41.6328 11.6501 41.7102C11.5733 41.7226 11.4951 41.7226 11.4183 41.7102C11.3628 41.6843 11.3131 41.6461 11.2726 41.5982C11.232 41.5503 11.2015 41.4937 11.183 41.4322C11.1645 41.3708 11.1586 41.3059 11.1655 41.2418C11.1724 41.1777 11.192 41.1159 11.2231 41.0605C11.2903 40.8811 11.2903 40.6812 11.2231 40.5018C11.1301 40.2559 11.1301 39.9812 11.2231 39.7352C11.5075 40.1111 11.6965 40.5585 11.7721 41.0345L11.8087 40.9955ZM11.3085 36.1881C11.1778 36.1362 11.0585 36.0564 10.9578 35.9536C10.8571 35.8508 10.7772 35.7272 10.7229 35.5904C10.713 35.4765 10.7388 35.3624 10.7961 35.2656C10.9425 34.9018 11.1255 34.551 11.2597 34.1742C11.5886 33.2421 11.6975 32.2382 11.5769 31.2508C11.4848 30.6892 11.2386 30.1692 10.8693 29.7566C10.8194 29.7144 10.7831 29.6566 10.7656 29.5914C10.7481 29.5261 10.7502 29.4567 10.7717 29.3928C10.9669 28.7171 11.1377 28.0934 11.3329 27.3788C11.4404 26.9767 11.6461 26.6122 11.929 26.3223C12.2119 26.0324 12.5619 25.8276 12.9433 25.7287C13.2916 25.5997 13.6636 25.5597 14.0291 25.6118C14.1022 25.6047 14.1757 25.6047 14.2487 25.6118C14.2131 25.6968 14.1724 25.7793 14.1267 25.8586C13.6518 26.5824 13.3579 27.4231 13.2727 28.3013C13.175 29.0502 13.1383 29.8066 13.1629 30.5621C13.1629 30.861 13.1629 31.1598 13.1629 31.4586C13.2059 31.834 13.2059 32.2136 13.1629 32.589C13.1403 32.7952 13.0777 32.9941 12.979 33.1731C12.8803 33.352 12.7476 33.5071 12.5895 33.6285C12.3999 33.7862 12.2002 33.9294 11.9917 34.0573C11.8906 34.1249 11.8038 34.2141 11.7366 34.3192C11.6694 34.4242 11.6233 34.543 11.6013 34.6679C11.5159 35.1357 11.4061 35.5904 11.2963 36.1231L11.3085 36.1881ZM13.3947 38.4359C12.8828 38.2984 12.3934 38.0794 11.9429 37.7863C11.7599 37.6693 11.7599 37.6044 11.9429 37.3055L13.8705 37.9941C13.8705 38.319 13.6631 38.5009 13.4069 38.4359H13.3947ZM22.2642 30.1334L23.1426 31.2897C23.2622 31.4483 23.3684 31.6179 23.4598 31.7965C23.4598 31.8874 23.533 32.0303 23.4598 32.0823C23.4264 32.1223 23.3849 32.1537 23.3384 32.1739C23.2918 32.1942 23.2416 32.2029 23.1914 32.1992C22.9452 32.185 22.7059 32.108 22.4936 31.9745C22.2812 31.8411 22.1021 31.6553 21.9714 31.4327C21.8738 31.2378 21.7762 31.1208 21.5444 31.1858C21.4845 31.2035 21.4213 31.2035 21.3614 31.1858L20.9466 30.809C20.9278 30.7896 20.9128 30.7664 20.9026 30.7407C20.8924 30.7151 20.8871 30.6875 20.8871 30.6596C20.8871 30.6317 20.8924 30.6041 20.9026 30.5784C20.9128 30.5528 20.9278 30.5295 20.9466 30.5102C21.0498 30.3499 21.1396 30.1804 21.215 30.0034C21.4 29.5834 21.555 29.149 21.6786 28.7041C21.8616 27.9765 21.9958 27.2359 22.1544 26.4563L23.2524 26.1315C23.2622 26.2656 23.2622 26.4002 23.2524 26.5343C23.0206 27.3139 22.7644 28.0805 22.5204 28.847C22.4228 29.1329 22.3374 29.4317 22.2398 29.7306C22.204 29.7908 22.185 29.8607 22.185 29.932C22.185 30.0033 22.204 30.0731 22.2398 30.1334H22.2642ZM23.3256 29.1329C23.533 28.4183 23.7404 27.7037 23.9478 26.9371L24.1552 27.119C24.3748 27.3658 24.6066 27.6387 24.8263 27.9116C24.9185 28.0571 24.9582 28.2334 24.9381 28.4077C24.9179 28.582 24.8392 28.7427 24.7164 28.86C24.2765 29.056 23.8022 29.149 23.3256 29.1329ZM20.7392 29.5097C20.1902 29.6136 19.6412 29.7436 19.0922 29.8735C18.5432 30.0034 18.3846 29.9515 18.3114 29.2888C18.3114 29.0679 18.3114 28.847 18.226 28.6392C18.3358 27.8726 18.4334 27.093 18.5554 26.3264C18.5925 26.0856 18.6414 25.8471 18.7018 25.6118C18.7628 25.3909 18.8116 25.3649 19.0312 25.3909L21.3736 25.7157C21.4451 25.7338 21.5147 25.7599 21.581 25.7937C21.6369 25.8117 21.6848 25.8504 21.7162 25.9029C21.7475 25.9553 21.7601 26.018 21.7518 26.0795C21.6372 27.0823 21.4619 28.0762 21.2272 29.0549C21.209 29.1764 21.1537 29.288 21.0699 29.3726C20.9861 29.4572 20.8784 29.5099 20.7636 29.5227L20.7392 29.5097ZM22.3374 25.248C21.5277 25.0464 20.7389 24.7591 19.9828 24.3904C19.8486 24.3904 19.6656 24.2605 19.6778 24.0786C19.69 23.8967 19.8974 23.8317 20.0316 23.8317C20.3727 23.8055 20.7152 23.8055 21.0564 23.8317C21.1342 23.8418 21.2069 23.8783 21.2638 23.9357C21.737 24.2916 22.1496 24.7311 22.4838 25.235C22.3984 25.235 22.3496 25.235 22.3374 25.235V25.248ZM20.3 22.6364C19.8974 22.8573 19.5192 23.0781 19.08 23.273C18.8697 23.378 18.6486 23.4565 18.4212 23.5069C18.2845 23.5342 18.1434 23.522 18.0125 23.4718C17.8817 23.4215 17.7659 23.335 17.677 23.2211C17.5428 23.0781 17.5428 22.9482 17.677 22.8313C17.8202 22.6838 17.9951 22.5758 18.1865 22.517C18.3779 22.4581 18.58 22.45 18.775 22.4934C18.947 22.557 19.1308 22.576 19.3112 22.5489C19.4915 22.5218 19.6632 22.4494 19.812 22.3375L19.9828 22.2206C20.3122 21.9867 20.361 21.9997 20.5562 22.4415C20.4601 22.5159 20.3581 22.5811 20.2512 22.6364H20.3ZM18.409 33.4206C18.6652 33.0698 18.836 33.0308 19.202 33.2777L19.324 33.3816C19.324 33.3816 19.324 33.3816 19.324 33.4726C18.9092 34.0443 18.2382 34.2651 17.7502 34.7719C17.6038 34.499 17.616 34.3821 17.7502 34.1872L18.348 33.4206H18.409ZM17.4329 34.1222C17.2865 34.3301 17.1035 34.486 16.9571 34.6809C16.8649 34.7679 16.7948 34.8783 16.7533 35.0019C16.7118 35.1254 16.7002 35.2581 16.7197 35.3877C16.7392 35.5172 16.789 35.6395 16.8646 35.743C16.9403 35.8466 17.0392 35.9282 17.1524 35.9802C17.3845 36.1081 17.5662 36.3201 17.6648 36.5779C17.6834 36.6546 17.6834 36.7351 17.6648 36.8118H16.6033C15.8704 36.7755 15.1451 36.9845 14.5293 37.4095C14.4494 37.463 14.3547 37.4859 14.2609 37.4744C13.7142 37.4122 13.1817 37.2496 12.6871 36.9937L12.1503 36.7208C12.2194 36.2927 12.4112 35.8979 12.6993 35.5904C13.1009 35.1938 13.6082 34.9396 14.1511 34.8628C14.4817 34.8012 14.8049 34.7009 15.1149 34.564C15.9101 34.2781 16.6781 33.9126 17.4086 33.4726C17.4483 33.4595 17.4908 33.4595 17.5306 33.4726H17.6282C17.7136 33.7584 17.5428 33.9663 17.3963 34.1742L17.4329 34.1222ZM16.0299 40.6707C15.8789 40.7331 15.7122 40.7374 15.5585 40.6829C15.4048 40.6283 15.2738 40.5183 15.1881 40.3719C15.1706 40.3311 15.1615 40.2868 15.1615 40.2419C15.1615 40.1971 15.1706 40.1528 15.1881 40.112C15.2771 39.9715 15.3838 39.8447 15.5053 39.7352C15.7415 39.5427 16.0176 39.4134 16.3105 39.3584C16.3733 39.4649 16.415 39.5839 16.433 39.7082C16.451 39.8324 16.4449 39.9593 16.4152 40.081C16.3855 40.2026 16.3328 40.3166 16.2602 40.4158C16.1877 40.5149 16.0968 40.5973 15.9933 40.6577L16.0299 40.6707ZM21.1662 43.0614C20.9151 43.1425 20.651 43.167 20.3905 43.1335C20.1301 43.0999 19.8791 43.009 19.6534 42.8665C19.4063 42.7299 19.1921 42.5346 19.0271 42.2959C18.8621 42.0571 18.7508 41.7811 18.7018 41.4893C19.0902 41.5024 19.4687 41.6234 19.7998 41.8401C20.1536 42.1129 20.4708 42.4118 20.8124 42.6976C20.9362 42.8122 21.0543 42.9336 21.1662 43.0614ZM23.6062 40.8136H23.3866C23.0168 40.6828 22.6295 40.6169 22.2398 40.6187C21.7274 40.6187 21.2272 40.6187 20.7148 40.6187C20.3026 40.6463 19.8891 40.5935 19.4948 40.4628C19.1357 40.3281 18.8274 40.0727 18.6164 39.7352C18.5183 39.5675 18.4604 39.3768 18.4476 39.1797C18.4349 38.9826 18.4677 38.7853 18.5432 38.6048C18.6408 38.293 18.6164 38.189 18.3114 38.1111C18.0064 38.0371 17.6963 37.9894 17.3842 37.9682C16.8241 37.9085 16.2587 37.9525 15.7127 38.0981C15.2229 38.2421 14.793 38.558 14.4927 38.9946C14.2721 39.3399 14.1374 39.7391 14.1011 40.155C14.0648 40.5708 14.1282 40.9897 14.2853 41.3723C14.2853 41.3723 14.2853 41.5153 14.2853 41.5802C14.2121 41.4893 14.1145 41.4373 14.0413 41.3463C13.8478 41.0661 13.7166 40.7428 13.6574 40.4007C13.5982 40.0586 13.6127 39.7067 13.6997 39.3714C13.775 39.0411 13.8985 38.7254 14.0657 38.4359C14.397 37.9034 14.9008 37.5195 15.4809 37.3575C16.0945 37.0865 16.7704 37.0186 17.4208 37.1626C17.738 37.1626 18.0552 37.3055 18.3724 37.3575C18.8964 37.4483 19.4324 37.4217 19.9462 37.2795H20.0926C20.242 37.2133 20.4086 37.2057 20.5627 37.258C20.7169 37.3104 20.8486 37.4193 20.9344 37.5654C21.2287 37.8893 21.5381 38.1972 21.8616 38.4879L22.0324 38.6568C22.0324 38.6568 22.0324 38.6568 22.0324 38.7347H21.6542C21.6787 38.8058 21.7072 38.8752 21.7396 38.9426C22.0862 39.4799 22.5744 39.8958 23.1426 40.138L23.4232 40.2809C23.7404 40.4368 23.7404 40.4628 23.6794 40.8656L23.6062 40.8136ZM27.0833 39.9951C26.8142 40.5519 26.4203 41.0294 25.9365 41.3853H25.7779L26.3513 40.086C26.1794 40.211 26.0001 40.3238 25.8145 40.4238C25.6216 40.524 25.4161 40.594 25.2045 40.6317C25.4855 40.1845 25.6766 39.6802 25.7657 39.1505C25.5142 39.2981 25.2483 39.4157 24.9726 39.5013C24.5448 39.5736 24.1126 39.6127 23.6794 39.6183C23.6878 39.593 23.6878 39.5655 23.6794 39.5403C23.6794 39.5403 23.7892 39.4104 23.8624 39.3844C24.1552 39.2285 24.4602 39.0856 24.7774 38.9426L25.0093 38.7997L24.2772 38.7088C24.0574 38.6947 23.8402 38.651 23.6306 38.5788C23.9137 38.4604 24.1906 38.3259 24.4602 38.176C24.7334 37.9967 24.9943 37.7969 25.2411 37.5784H25.0214C24.1694 37.6552 23.3114 37.5537 22.496 37.2795C22.3731 37.2344 22.2578 37.1686 22.1544 37.0846C22.9892 37.1082 23.8197 36.949 24.5944 36.6169C24.184 36.6356 23.7732 36.5918 23.3744 36.487C22.9718 36.357 22.5814 36.2271 22.1544 36.0582V35.9802C22.2271 35.9674 22.3013 35.9674 22.374 35.9802C23.0977 36.0285 23.8239 35.945 24.5212 35.7334C24.8629 35.6424 25.2167 35.5644 25.5583 35.4345C26.2537 35.1876 26.5465 35.8633 26.4855 36.344C26.4245 36.8248 26.3757 37.2795 26.3147 37.7473C26.2927 37.8779 26.3104 38.0126 26.3653 38.1318C26.4201 38.251 26.5092 38.3484 26.6197 38.4099C26.8878 38.5911 27.0933 38.8601 27.2053 39.1765C27.277 39.3253 27.3144 39.49 27.3144 39.6572C27.3144 39.8245 27.277 39.9893 27.2053 40.138L27.0833 39.9951ZM27.0345 36.0972C27.1077 35.7853 27.1809 35.4605 27.2419 35.1357C27.2997 35.1281 27.3584 35.134 27.414 35.153C27.4695 35.1719 27.5205 35.2035 27.5634 35.2455C27.6063 35.2875 27.6401 35.339 27.6626 35.3963C27.685 35.4536 27.6955 35.5154 27.6933 35.5774C27.7179 35.7323 27.7179 35.8904 27.6933 36.0452C27.5713 36.409 27.4249 36.7598 27.2663 37.1236C27.2663 37.2016 27.1687 37.2535 27.0833 37.3575C26.98 36.9314 26.98 36.4843 27.0833 36.0582L27.0345 36.0972ZM31.0117 39.4494C30.6986 40.1151 30.1569 40.6269 29.4989 40.8786C29.3314 40.8804 29.1641 40.8674 28.9987 40.8396C28.8767 41.2684 28.7547 41.6842 28.6205 42.1389C28.297 42.0581 28.0012 41.8826 27.7665 41.6322C27.7207 41.585 27.6844 41.5284 27.6595 41.4659C27.6347 41.4034 27.6219 41.3363 27.6219 41.2684C27.6219 41.2005 27.6347 41.1334 27.6595 41.0709C27.6844 41.0084 27.7207 40.9518 27.7665 40.9046C28.0077 40.6425 28.2734 40.4074 28.5595 40.203C29.1817 39.8392 29.7795 39.5273 30.4627 39.1895L30.9995 38.9037C31.0971 39.0466 30.9995 39.1375 30.9995 39.2415L31.0117 39.4494ZM30.2187 33.3556C30.5359 33.8494 30.6091 34.434 30.9263 34.9278L31.2435 34.7069C31.2865 34.664 31.3432 34.6401 31.4021 34.6401C31.4611 34.6401 31.5178 34.664 31.5607 34.7069C31.5789 34.724 31.5935 34.745 31.6034 34.7685C31.6134 34.792 31.6186 34.8175 31.6186 34.8433C31.6186 34.8691 31.6134 34.8947 31.6034 34.9182C31.5935 34.9417 31.5789 34.9627 31.5607 34.9798C31.3655 35.2916 31.4875 35.5644 31.8657 35.5904C31.9381 35.5891 32.009 35.6123 32.0682 35.6567C32.1274 35.701 32.1719 35.7643 32.1951 35.8373C32.3049 36.1751 32.4269 36.5129 32.5611 36.8767L32.3293 36.9807C32.3293 37.1366 32.3293 37.3055 32.3293 37.4614C32.3293 37.6173 32.1219 37.4614 32.0487 37.4614C31.7681 37.1756 31.4753 36.8897 31.2191 36.5909C30.9629 36.2921 30.9263 36.2011 30.7555 35.9802C30.7555 35.9023 30.8531 35.8633 30.8775 35.8113C31.0605 35.5385 31.0117 35.3566 30.7067 35.2136C30.6218 35.1777 30.5458 35.1216 30.4845 35.0495C30.4232 34.9774 30.3781 34.8913 30.3529 34.7979C30.3529 34.525 30.1821 34.2781 30.1089 34.0183C30.0474 33.9275 30.0143 33.8184 30.0143 33.7064C30.0143 33.5945 30.0474 33.4854 30.1089 33.3946L30.2187 33.3556ZM29.3525 34.0443C29.45 34.1001 29.5299 34.1854 29.582 34.2894C29.6341 34.3935 29.6561 34.5116 29.6453 34.6289L29.4257 34.499C29.3545 34.4389 29.2664 34.4062 29.1756 34.4062C29.0848 34.4062 28.9967 34.4389 28.9255 34.499C28.8978 34.5061 28.8725 34.5209 28.852 34.542C28.8316 34.5631 28.8169 34.5896 28.8094 34.6188C28.8019 34.6481 28.8019 34.6789 28.8095 34.7081C28.817 34.7373 28.8318 34.7638 28.8523 34.7849C28.9603 34.9822 29.0784 35.1731 29.2061 35.3566C29.5628 35.764 29.8186 36.2597 29.9503 36.7988C29.9623 37.0151 29.9623 37.2321 29.9503 37.4484C29.9463 37.5877 29.9829 37.7249 30.0549 37.8412C30.127 37.9575 30.2311 38.0472 30.3529 38.0981C30.3529 38.0981 30.4139 38.0981 30.4871 38.202C30.3651 38.3709 30.2675 38.5399 30.1333 38.6958C29.9847 38.8955 29.8258 39.0863 29.6575 39.2675C29.5131 39.4172 29.3278 39.5142 29.1282 39.5446C28.9287 39.575 28.7253 39.5371 28.5473 39.4364C28.3515 39.3639 28.1829 39.2262 28.0664 39.0437C27.9499 38.8611 27.8918 38.6434 27.9007 38.4229L27.9739 37.5264C28.0471 36.8248 28.0959 36.1102 28.1691 35.3955C28.1868 35.2837 28.1868 35.1695 28.1691 35.0577C28.1719 34.95 28.1525 34.8429 28.1124 34.7439C28.0723 34.645 28.0124 34.5565 27.9369 34.4848C27.8614 34.413 27.7721 34.3597 27.6752 34.3285C27.5784 34.2973 27.4763 34.289 27.3761 34.3041C27.0129 34.33 26.6532 34.3953 26.3025 34.499C26.0707 34.499 25.8511 34.6419 25.6193 34.6939C25.5083 34.7326 25.3886 34.7326 25.2776 34.6939C24.9116 34.473 24.5578 34.2132 24.204 33.9793L22.984 33.2257H22.8986C22.9948 33.5078 23.0643 33.7994 23.106 34.0962C23.0823 34.4012 23.025 34.7021 22.9352 34.9928C22.9352 34.9928 23.0084 35.0707 23.0328 35.1227C23.0572 35.1747 23.167 35.3176 23.1426 35.3306C23.0767 35.4149 22.9867 35.4742 22.8864 35.4995C22.6512 35.5255 22.4141 35.5255 22.1788 35.4995C21.5932 35.3955 20.9588 35.2526 20.4342 35.1357C20.1536 35.1357 19.8852 35.0447 19.5924 35.0187C20.1002 35.5246 20.5359 36.1068 20.8856 36.7468C20.8856 36.7468 20.8246 36.7468 20.8002 36.7468C20.328 36.7896 19.8639 36.9034 19.4216 37.0846C19.3533 37.1166 19.2762 37.1196 19.2059 37.093C19.1356 37.0665 19.0775 37.0123 19.0434 36.9417L18.6408 36.2791C18.5467 36.1151 18.5099 35.9211 18.5366 35.731C18.5634 35.541 18.6521 35.367 18.7872 35.2396C18.898 35.0977 19.025 34.9711 19.1654 34.8628C19.6045 34.4989 19.9838 34.0598 20.2878 33.5635C20.3551 33.4476 20.4328 33.3388 20.5196 33.2387C20.5809 33.1597 20.6682 33.1086 20.7636 33.0958C21.5932 32.9399 22.4228 32.8099 23.2036 32.693C24.4139 32.4644 25.5937 32.0805 26.7173 31.5496C26.7725 31.5161 26.8378 31.5068 26.8993 31.5238C26.9608 31.5408 27.0137 31.5827 27.0467 31.6405C27.2297 31.8874 27.4127 32.1213 27.6201 32.3552C27.6732 32.4174 27.7027 32.4984 27.7027 32.5825C27.7027 32.6666 27.6732 32.7477 27.6201 32.8099C27.4615 33.1088 27.4737 33.1218 27.7543 33.2647C28.2423 33.5505 28.7547 33.8234 29.2549 34.0832L29.3525 34.0443ZM32.0243 26.2874C32.0629 26.1255 32.139 25.9765 32.2455 25.854C32.3521 25.7314 32.4858 25.6392 32.6343 25.5858C32.976 25.4429 33.3054 25.248 33.6348 25.0921C33.9642 24.9361 33.8544 24.9881 34.1472 25.0921C33.952 25.3389 33.7934 25.5858 33.5982 25.8067C33.3662 26.0884 33.1087 26.3452 32.8295 26.5733C32.6784 26.6828 32.5 26.7416 32.3171 26.7422C32.0487 26.7422 31.9389 26.5343 32.0243 26.2744V26.2874ZM25.3265 15.9709C25.3982 15.3375 25.6075 14.7305 25.9379 14.1983C26.2682 13.666 26.7105 13.2231 27.2297 12.9046C27.3511 12.8371 27.4776 12.7806 27.6079 12.7357C27.7075 12.6876 27.8157 12.6627 27.9251 12.6627C28.0345 12.6627 28.1426 12.6876 28.2423 12.7357C28.3521 12.7357 28.4863 12.7357 28.6083 12.8396C28.6578 12.865 28.712 12.8781 28.7669 12.8781C28.8218 12.8781 28.876 12.865 28.9255 12.8396C28.9889 12.789 29.0659 12.7617 29.1451 12.7617C29.2243 12.7617 29.3014 12.789 29.3647 12.8396C29.5843 13.0215 29.8405 13.1774 30.0601 13.3463C30.1921 13.4461 30.3111 13.5641 30.4139 13.6972C30.5725 13.8791 30.5115 14.035 30.2919 14.1129H29.9747C29.9747 14.1129 29.9015 14.1129 29.8161 14.2299H30.0113H30.1455C30.204 14.3525 30.2779 14.4662 30.3651 14.5677C30.4627 14.5677 30.6091 14.5677 30.7433 14.5677C30.812 14.582 30.8779 14.6084 30.9385 14.6456C30.9858 14.6961 31.0268 14.7529 31.0605 14.8146C31.35 15.4377 31.7668 15.9838 32.2805 16.4127L32.3781 16.5166C32.3724 16.5423 32.3724 16.569 32.3781 16.5946C32.3781 16.7245 32.2439 16.7115 32.1463 16.7115C31.8781 16.6883 31.6083 16.7237 31.3533 16.8155C31.2539 16.8477 31.1477 16.8477 31.0483 16.8155L29.5965 16.3218C29.4135 16.3218 29.2061 16.2048 29.0109 16.1269C28.8677 16.0891 28.7351 16.0151 28.6245 15.911C28.514 15.8069 28.4287 15.6759 28.376 15.5291C28.3232 15.3823 28.3046 15.2242 28.3217 15.0681C28.3388 14.912 28.3911 14.7626 28.4741 14.6327L28.6205 14.2948C28.6205 14.2948 28.6205 14.2948 28.6205 14.2299C28.4664 14.3333 28.336 14.4722 28.2389 14.6363C28.1418 14.8005 28.0804 14.9857 28.0593 15.1784C28.0351 15.683 28.1496 16.1842 28.3887 16.6206C28.6285 17.0395 28.8444 17.4734 29.0353 17.9199C29.2915 18.5825 29.4745 19.2842 29.6941 19.9598C29.7517 20.1334 29.7965 20.3115 29.8283 20.4925C30.0165 21.3508 29.9913 22.2464 29.7551 23.0911C29.6573 23.5315 29.535 23.9654 29.3891 24.3904C29.2549 24.7282 29.2061 24.7283 28.8645 24.6373C28.5229 24.5463 28.1935 24.4424 27.8641 24.3774C27.5951 24.2804 27.3035 24.2804 27.0345 24.3774C27.2253 24.5243 27.4476 24.618 27.6811 24.6503C28.1412 24.7321 28.5887 24.8807 29.0109 25.0921C29.0914 25.1274 29.163 25.1822 29.2202 25.2521C29.2774 25.322 29.3185 25.4051 29.3403 25.4948C29.3883 25.7537 29.4494 26.0096 29.5233 26.2614C29.5398 26.2913 29.549 26.3251 29.5501 26.3597C29.5512 26.3943 29.5441 26.4287 29.5296 26.4597C29.515 26.4906 29.4934 26.5173 29.4668 26.5371C29.4401 26.5569 29.4092 26.5694 29.3769 26.5733C29.0963 26.5733 28.8035 26.6902 28.5107 26.7162C28.1897 26.7357 27.8679 26.7357 27.5469 26.7162C27.5469 26.7162 27.5469 26.7162 27.5469 26.7941C27.5995 26.8529 27.6614 26.9013 27.7299 26.9371C28.2911 27.158 28.8523 27.3528 29.4135 27.5607C29.4778 27.5919 29.5358 27.6361 29.5843 27.6907C29.6481 27.777 29.7297 27.8466 29.8228 27.8939C29.9159 27.9412 30.018 27.965 30.1211 27.9635C30.7694 28.0002 31.4194 27.9654 32.0609 27.8596C32.5216 27.7813 32.9911 27.7813 33.4518 27.8596C33.5693 27.8783 33.6819 27.9226 33.7826 27.9896C33.8834 28.0567 33.9701 28.1451 34.0374 28.2494C34.1106 28.3923 34.196 28.5352 34.257 28.6781C34.2678 28.7025 34.2734 28.7291 34.2734 28.7561C34.2734 28.7831 34.2678 28.8097 34.257 28.8341C34.2347 28.8477 34.2095 28.8549 34.1838 28.8549C34.1581 28.8549 34.1328 28.8477 34.1106 28.8341C34.028 28.7718 33.9504 28.7023 33.8788 28.6262C33.7716 28.5587 33.6494 28.5231 33.525 28.5231C33.4005 28.5231 33.2783 28.5587 33.1712 28.6262L31.5363 29.3798C31.0096 29.619 30.4347 29.7128 29.8649 29.6526C29.1287 29.6093 28.3999 29.4742 27.6933 29.2498C27.1325 29.0728 26.635 28.7196 26.2659 28.2364C25.7535 27.5218 25.2411 26.8071 24.7408 26.0795C24.5938 25.8805 24.4928 25.6474 24.4462 25.3991C24.3996 25.1508 24.4086 24.8942 24.4724 24.6503C24.6249 23.8389 24.7348 23.019 24.8018 22.1946C24.9116 21.3501 25.0458 20.5055 25.1556 19.674C25.1556 19.2842 25.1556 18.8944 25.2411 18.5046C25.2411 17.6211 25.3387 16.7635 25.4729 15.906L25.3265 15.9709ZM25.3387 15.0484C25.4241 15.1524 25.3387 15.2693 25.3387 15.3733C24.7471 16.3824 24.4696 17.5646 24.5456 18.7515C24.5456 19.2582 24.6066 19.7649 24.6066 20.2716C24.6147 20.6021 24.5247 20.9269 24.3495 21.1999C24.1743 21.4728 23.9227 21.6799 23.6306 21.7918C23.4493 21.865 23.2612 21.9173 23.0694 21.9477C22.9474 21.9477 22.862 21.9477 22.8986 21.7399C22.9401 21.2057 23.1713 20.7084 23.5452 20.3496C23.6199 20.2913 23.677 20.2111 23.7095 20.1188C23.742 20.0265 23.7485 19.9261 23.7282 19.8299C23.7282 19.583 23.655 19.3102 23.6306 19.0503C23.5995 18.6708 23.6496 18.2888 23.777 17.9329C23.8746 17.5821 24.0332 17.2572 24.1552 16.9194C24.1601 16.8763 24.1601 16.8327 24.1552 16.7895C23.838 16.9064 23.6306 17.1923 23.2646 17.2573C23.2538 17.1972 23.2538 17.1354 23.2646 17.0754C23.523 16.495 23.8692 15.9639 24.2894 15.5032C24.4885 15.3116 24.7051 15.1419 24.936 14.9965C24.9567 14.9716 24.982 14.9517 25.0104 14.938C25.0388 14.9243 25.0696 14.9173 25.1007 14.9173C25.1319 14.9173 25.1627 14.9243 25.1911 14.938C25.2195 14.9517 25.2448 14.9716 25.2655 14.9965L25.3387 15.0484ZM24.57 12.5408C24.57 12.5408 24.57 12.5408 24.6676 12.5408C24.6447 12.5959 24.616 12.6482 24.5822 12.6967C24.3424 12.949 24.1517 13.2493 24.021 13.5802C23.9722 13.7085 23.8922 13.8206 23.7892 13.905C23.1822 14.3612 22.7492 15.0344 22.5692 15.802C22.3862 16.4387 22.3252 17.1013 22.1666 17.764C22.0923 18.0352 21.9814 18.2934 21.8372 18.5306C21.7631 18.63 21.6646 18.7057 21.5527 18.7492C21.4407 18.7928 21.3196 18.8026 21.2028 18.7774C21.3239 19.059 21.5082 19.3045 21.7396 19.4921C21.9628 19.6502 22.1951 19.7934 22.435 19.9208C22.2886 20.2327 22.1422 20.5835 21.9714 20.9473L20.6172 19.0113C20.91 18.5566 21.1662 18.1668 21.4224 17.712C21.7435 17.1609 21.9204 16.5284 21.9348 15.88C21.9531 15.573 22.0277 15.2728 22.1544 14.9965C22.6688 13.8835 23.5318 12.9966 24.5944 12.4888L24.57 12.5408ZM21.7152 11.0076C21.9836 11.0076 22.0202 11.0076 21.9592 11.3454C21.8982 11.6832 21.8738 11.6443 22.13 11.6962L22.2032 11.0986C22.8376 10.9946 22.9474 11.0986 22.7888 11.6962C22.6951 12.0261 22.5597 12.3408 22.3862 12.6317C22.2764 12.8526 22.1666 12.8396 21.9592 12.6317C21.6711 12.3712 21.4664 12.0215 21.3736 11.6313C21.2882 11.3844 21.2516 11.1115 21.1662 10.8647C21.1381 10.7914 21.1324 10.7105 21.1499 10.6335C21.1674 10.5565 21.2073 10.4874 21.2638 10.4359C21.4628 10.2241 21.7327 10.1051 22.0141 10.1051C22.2955 10.1051 22.5654 10.2241 22.7644 10.4359C22.6751 10.5475 22.553 10.6237 22.4178 10.652C22.2827 10.6803 22.1426 10.6591 22.0202 10.5918C21.8864 10.5252 21.7409 10.4898 21.5932 10.4879C21.5078 10.4879 21.4224 10.5788 21.337 10.6308C21.366 10.7104 21.4187 10.7776 21.487 10.8222C21.5553 10.8668 21.6355 10.8863 21.7152 10.8777V11.0076ZM22.3374 8.56492C22.4394 8.78872 22.529 9.01865 22.6058 9.25355C22.6058 9.42246 22.6912 9.59137 22.74 9.81225H22.0202C21.9704 9.81506 21.9208 9.80484 21.8756 9.78249C21.8304 9.76014 21.791 9.72633 21.7609 9.68402C21.7308 9.64172 21.7109 9.5922 21.7029 9.5398C21.695 9.48741 21.6992 9.43374 21.7152 9.38347C21.7502 9.09768 21.8507 8.82546 22.008 8.5909C22.1422 8.396 22.2398 8.38301 22.3374 8.5909V8.56492ZM19.324 8.66885V8.5909L20.4342 8.07117C20.3325 8.27432 20.1757 8.44005 19.9841 8.54669C19.7925 8.65333 19.5752 8.6959 19.3606 8.66885H19.324ZM20.7514 7.60342C20.4217 7.83634 20.0593 8.01179 19.6778 8.12315C19.3942 8.16849 19.1052 8.09389 18.8726 7.91526C18.8726 7.91526 18.7994 7.79832 18.7262 7.69438H19.2874C19.6006 7.7484 19.9215 7.67912 20.1902 7.49948L21.1662 6.88881C21.2775 6.81914 21.4017 6.77607 21.5302 6.76261C21.6588 6.74915 21.7885 6.76561 21.9104 6.81085C21.9627 6.84956 22.0116 6.89304 22.0568 6.94079C22.0568 6.94079 22.0568 7.03174 21.9836 7.03174C21.5444 7.10113 21.1266 7.27911 20.7636 7.55145L20.7514 7.60342ZM18.409 12.7487C18.775 13.0475 19.1288 13.3723 19.4704 13.6972C19.7672 14.0355 20.1293 14.3015 20.5318 14.4767C20.7679 14.544 21.0086 14.5918 21.2516 14.6197C21.0326 14.7772 20.7714 14.8547 20.5074 14.8405C20.2508 14.8034 19.9977 14.7425 19.751 14.6586C20.0068 14.9162 20.3148 15.1075 20.6512 15.2179C20.9875 15.3284 21.3433 15.3548 21.6908 15.2953C21.709 15.3983 21.709 15.5041 21.6908 15.6071C21.5991 15.8525 21.4847 16.0876 21.3492 16.3088C21.2498 16.4753 21.1009 16.6017 20.9262 16.6676C20.7515 16.7336 20.5611 16.7353 20.3854 16.6726C19.6781 16.4925 19.0194 16.1408 18.4607 15.645C17.902 15.1491 17.4584 14.5225 17.1646 13.8141C17.1039 13.6649 17.0628 13.5075 17.0425 13.3463C17.0403 13.2381 17.0136 13.132 16.9647 13.0371C16.9159 12.9421 16.8464 12.861 16.7619 12.8006C16.7619 12.8006 16.6887 12.6967 16.6399 12.6187C16.9201 12.4753 17.2305 12.4118 17.5406 12.4346C17.8507 12.4574 18.15 12.5656 18.409 12.7487ZM14.8587 11.6053L15.5419 12.5928L19.934 19.0893L23.0694 23.7148C24.1674 25.3389 25.2899 26.9501 26.4001 28.5612L28.4863 31.6535C28.5243 31.7404 28.5823 31.8156 28.6547 31.8724C28.7272 31.9291 28.8119 31.9656 28.9011 31.9784C29.0475 31.9784 29.0963 32.1083 29.1085 32.2382C29.1207 32.3682 29.1695 32.8489 29.2183 33.2387L28.1447 33.0438C28.1682 32.9578 28.201 32.875 28.2423 32.7969C28.299 32.7263 28.3302 32.6365 28.3302 32.5436C28.3302 32.4507 28.299 32.3608 28.2423 32.2902C27.4859 31.1728 26.7417 30.0554 25.9853 28.951C24.9848 27.4438 23.9722 25.9496 22.9718 24.4554C22.1422 23.247 21.3248 22.0257 20.5318 20.8044L15.2003 12.8916L14.8587 12.3979C14.8281 12.371 14.8034 12.3373 14.7864 12.2991C14.7695 12.2609 14.7607 12.2192 14.7607 12.177C14.7607 12.1347 14.7695 12.093 14.7864 12.0548C14.8034 12.0166 14.8281 11.9829 14.8587 11.9561V11.6053ZM16.2251 21.1812C15.5014 21.1033 14.7935 20.906 14.1267 20.5965C13.7755 20.4415 13.3952 20.3761 13.016 20.4054C12.6368 20.4347 12.2694 20.558 11.9429 20.7654H11.8453C11.7111 20.6095 11.7599 20.4795 11.8453 20.3496C12.0783 20.0587 12.3889 19.8503 12.7359 19.7519L15.3345 18.9074L15.8347 18.6995C15.9201 18.657 15.9984 18.5999 16.0665 18.5306C14.9558 18.3343 13.8157 18.4692 12.7725 18.9204C12.4797 18.3876 12.5285 18.1278 12.9677 17.79C13.3266 17.5286 13.7529 17.3923 14.1877 17.4002C14.8256 17.3918 15.4616 17.4748 16.0787 17.647L17.7502 18.1928C17.5916 18.3876 17.3476 18.4006 17.1646 18.5176C16.9816 18.6345 16.7741 18.7385 16.5911 18.8424L15.9811 19.1542L15.3955 19.4401C15.1881 19.531 14.9685 19.596 14.7611 19.7129C14.9223 19.7778 15.1001 19.7778 15.2613 19.7129H15.8103L16.3593 19.622L16.8961 19.4921C16.7985 19.8299 16.6033 19.9598 15.8225 20.3106C15.8225 20.3106 15.9079 20.3106 15.9445 20.3106C16.5296 20.3406 17.1114 20.2014 17.6282 19.9078C17.7637 19.8129 17.9066 19.7303 18.0552 19.661C18.0552 19.661 18.2016 19.661 18.226 19.661C18.2381 19.6895 18.2444 19.7205 18.2444 19.7519C18.2444 19.7833 18.2381 19.8143 18.226 19.8429C18.0998 20.1864 17.8785 20.4809 17.5916 20.6874C17.1386 21.0076 16.5951 21.15 16.0543 21.0902L16.2251 21.1812ZM15.7493 25.7417C16.2649 25.52 16.8069 25.3757 17.3598 25.3129C17.5916 25.3129 17.6282 25.3129 17.6526 25.5988C17.677 25.8846 17.7136 26.4693 17.7502 26.8981C17.7991 27.9775 17.4975 29.042 16.8961 29.9125C16.5605 30.4973 16.1061 30.9945 15.5663 31.3677C15.3529 31.5176 15.1491 31.6825 14.9563 31.8614C14.8709 31.9394 14.8099 32.0303 14.6879 32.1603C15.0769 32.3249 15.4896 32.4171 15.9079 32.4331C15.922 32.4589 15.9303 32.4878 15.9323 32.5176C15.9342 32.5474 15.9297 32.5772 15.9191 32.6048C15.9085 32.6324 15.892 32.6571 15.8711 32.6769C15.8501 32.6967 15.8252 32.7111 15.7981 32.719C15.5663 32.8099 15.3345 32.9139 15.1027 32.9918C14.8709 33.0698 14.2853 33.2777 13.8827 33.4466C13.1228 33.792 12.4951 34.401 12.1015 35.1747C12.0039 35.3695 11.8941 35.5514 11.7965 35.7593C11.6989 35.9672 11.6623 35.9672 11.5525 35.9023C11.4874 35.8328 11.4483 35.7404 11.4427 35.6424C11.4589 35.2855 11.5548 34.9378 11.7224 34.6282C11.89 34.3187 12.1245 34.0561 12.4065 33.8624C12.723 33.6516 12.9899 33.3663 13.1866 33.0284C13.3833 32.6905 13.5046 32.309 13.5411 31.9134C13.6399 30.4866 13.8438 29.0704 14.1511 27.6777C14.2494 27.2504 14.4393 26.8532 14.7061 26.5173C14.9728 26.1814 15.309 25.9159 15.6883 25.7417H15.7493ZM8.85624 30.4582C9.18397 30.0982 9.401 29.6405 9.47845 29.1459C9.51302 28.2381 9.73814 27.3502 10.1373 26.5473L10.7473 25.3649C10.6834 25.3936 10.6222 25.4284 10.5643 25.4689L9.80785 26.1705C9.73047 26.2292 9.64889 26.2813 9.56385 26.3264C9.56385 26.2354 9.56385 26.1835 9.56385 26.1575C10.0068 25.2235 10.7042 24.4536 11.5647 23.9487C11.8018 23.8058 12.074 23.7424 12.3455 23.7668C13.1761 23.8396 13.949 24.2488 14.5049 24.9102C14.5491 24.942 14.581 24.9899 14.5944 25.0449C14.6079 25.0999 14.6021 25.1582 14.5781 25.209C14.5539 25.275 14.5093 25.3303 14.4517 25.3658C14.394 25.4012 14.3267 25.4146 14.2609 25.4039C13.9071 25.4039 13.5655 25.3259 13.1995 25.2999C12.7758 25.2683 12.3533 25.3759 11.9889 25.6083C11.6245 25.8407 11.3359 26.1866 11.1621 26.5993C10.8059 27.2095 10.5694 27.8901 10.4667 28.6002C10.3465 29.4346 9.94273 30.1929 9.33205 30.731C9.26456 30.788 9.19082 30.836 9.11244 30.874C9.1072 30.8221 9.1072 30.7699 9.11244 30.718" fill="#F1F3F5"/>
<path d="M22.3861 12.1665C22.2156 11.9716 22.0208 12.0106 21.7773 12.0625C21.9478 12.4523 22.1304 12.4783 22.3861 12.1665Z" fill="#F1F3F5"/>
<path d="M54.9992 8.04991H59.3424V9.66105H60.721V6.67264H59.7938V0.565918H55.4628V1.86522C55.4628 4.58077 54.9748 5.90606 54.072 6.69863H53.5352V9.66105H54.9626V8.04991H54.9992ZM56.878 1.99515H58.4152V6.67264H55.6946C56.5939 5.30911 57.0247 3.6573 56.9146 1.99515" fill="#F1F3F5"/>
<path d="M67.1316 6.66926H63.7277V4.78527H66.1312V3.49896H63.7277V1.99176H66.9974V0.614502H62.3125V8.04652H67.1316V6.66926Z" fill="#F1F3F5"/>
<path d="M70.236 1.99176H73.0908V8.04652H74.5061V0.614502H68.8086V8.04652H70.236V1.99176Z" fill="#F1F3F5"/>
<path d="M77.7978 7.05701H80.6526L81.0552 8.03149H82.6778L79.5668 0.456543H79.0178L75.8945 8.03149H77.4317L77.7978 7.05701ZM79.2252 3.30202L80.1524 5.80968H78.298L79.2252 3.30202Z" fill="#F1F3F5"/>
<path d="M85.4343 5.42271H86.6543C86.9704 5.45776 87.2899 5.42171 87.5921 5.31688C87.8943 5.21205 88.1724 5.04077 88.4085 4.81417C88.6446 4.58756 88.8333 4.31067 88.9625 4.00143C89.0917 3.69218 89.1585 3.35747 89.1585 3.019C89.1585 2.68052 89.0917 2.34583 88.9625 2.03658C88.8333 1.72733 88.6446 1.45044 88.4085 1.22383C88.1724 0.997224 87.8943 0.825959 87.5921 0.721128C87.2899 0.616297 86.9704 0.580237 86.6543 0.615288H84.0312V8.04731H85.4587V5.4487L85.4343 5.42271ZM85.4343 1.95357H86.6543C86.7958 1.93695 86.939 1.95229 87.0745 1.99858C87.21 2.04488 87.3349 2.12109 87.4409 2.22224C87.5469 2.32339 87.6317 2.4472 87.6898 2.58561C87.7479 2.72401 87.7779 2.8739 87.7779 3.02549C87.7779 3.17708 87.7479 3.32698 87.6898 3.46539C87.6317 3.60379 87.5469 3.72761 87.4409 3.82875C87.3349 3.9299 87.21 4.00611 87.0745 4.0524C86.939 4.09869 86.7958 4.11404 86.6543 4.09742H85.4343V1.95357Z" fill="#F1F3F5"/>
<path d="M92.4631 8.04652H93.8905V1.99176H96.1231V0.614502H90.2305V1.99176H92.4631V8.04652Z" fill="#F1F3F5"/>
<path d="M97.5905 8.04369L97.9931 7.06922H100.848L101.238 8.04369H102.763L99.6645 0.46875H99.1887L96.0898 8.04369H97.5905ZM99.4205 3.31423L100.348 5.82189H98.5299L99.4205 3.31423Z" fill="#F1F3F5"/>
<path d="M105.591 4.08003L107.348 6.41878H107.811L109.568 4.08003V8.04291H110.996V0.480957H110.532L107.58 4.49581L104.639 0.480957H104.176V8.04291H105.591V4.08003Z" fill="#F1F3F5"/>
<path d="M117.898 6.66926H114.494V4.78527H116.897V3.49896H114.494V1.99176H117.763V0.614502H113.066V8.04652H117.898V6.66926Z" fill="#F1F3F5"/>
<path d="M120.998 4.83724H124.084V8.04652H125.512V0.614502H124.084V3.45998H120.998V0.614502H119.57V8.04652H120.998V4.83724Z" fill="#F1F3F5"/>
<path d="M129.131 8.04652H130.558V1.99176H132.803V0.614502H126.898V1.99176H129.131V8.04652Z" fill="#F1F3F5"/>
<path d="M59.8542 21.5622V14.1172H54.1445V21.5622H55.5842V15.5074H58.4268V21.5622H59.8542Z" fill="#F1F3F5"/>
<path d="M63.3283 18.9318H64.5483C64.8651 18.9623 65.1843 18.9227 65.4859 18.8154C65.7876 18.7082 66.0651 18.5357 66.3012 18.3087C66.5372 18.0818 66.7266 17.8053 66.8575 17.4966C66.9883 17.1879 67.0578 16.8537 67.0616 16.5151C67.06 16.1768 66.9918 15.8426 66.8613 15.5342C66.7308 15.2258 66.5409 14.95 66.304 14.7247C66.0671 14.4993 65.7885 14.3294 65.486 14.226C65.1836 14.1226 64.8641 14.088 64.5483 14.1244H61.9375V21.5434H63.3649V18.9448L63.3283 18.9318ZM63.3283 15.4626H64.5483C64.6844 15.4476 64.8219 15.4639 64.9515 15.5105C65.0811 15.5572 65.1997 15.633 65.2993 15.7329C65.3989 15.8328 65.4771 15.9544 65.5285 16.0894C65.58 16.2243 65.6035 16.3695 65.5975 16.5151C65.6069 16.6632 65.5861 16.8118 65.5363 16.9505C65.4865 17.0893 65.4091 17.2148 65.3094 17.3186C65.2096 17.4224 65.0899 17.5018 64.9585 17.5515C64.8271 17.6012 64.6872 17.62 64.5483 17.6065H63.3283V15.4626Z" fill="#F1F3F5"/>
<path d="M73.3464 20.1719H69.9548V18.3009H72.3582V17.0016H69.9548V15.5074H73.2244V14.1172H68.5273V21.5622H73.3464V20.1719Z" fill="#F1F3F5"/>
<path d="M76.0227 21.5492H80.3659V23.1344H81.7933V20.1719H80.8661V14.1172H76.5839V15.3385C76.5839 18.0671 76.0959 19.3794 75.1931 20.1719H74.6562V23.1344H76.0837V21.5492H76.0227ZM77.9015 15.4944H79.4387V20.1719H76.7181C77.6192 18.8093 78.0502 17.1568 77.9381 15.4944" fill="#F1F3F5"/>
<path d="M84.7394 15.5074H87.5943V21.5622H89.0217V14.1172H83.3242V21.5622H84.7394V15.5074Z" fill="#F1F3F5"/>
<path d="M93.6582 14.1172H91.0352V21.5492H92.4626V18.9506H93.6826C93.9987 18.9857 94.3182 18.9496 94.6204 18.8448C94.9226 18.7399 95.2007 18.5687 95.4368 18.3421C95.6729 18.1154 95.8616 17.8386 95.9908 17.5293C96.12 17.2201 96.1868 16.8854 96.1868 16.5469C96.1868 16.2084 96.12 15.8737 95.9908 15.5645C95.8616 15.2552 95.6729 14.9783 95.4368 14.7517C95.2007 14.5251 94.9226 14.3538 94.6204 14.249C94.3182 14.1442 93.9987 14.1081 93.6826 14.1432L93.6582 14.1172ZM93.6826 17.6383H92.4626V15.4685H93.6826C93.8241 15.4519 93.9672 15.4672 94.1028 15.5135C94.2383 15.5598 94.3632 15.636 94.4692 15.7371C94.5752 15.8383 94.66 15.9621 94.7181 16.1005C94.7762 16.2389 94.8062 16.3888 94.8062 16.5404C94.8062 16.692 94.7762 16.8419 94.7181 16.9803C94.66 17.1187 94.5752 17.2425 94.4692 17.3436C94.3632 17.4448 94.2383 17.521 94.1028 17.5673C93.9672 17.6136 93.8241 17.6289 93.6826 17.6123" fill="#F1F3F5"/>
<path d="M99.1227 14.1136H97.6953V21.6885H98.1589L102.307 16.985V21.5586H103.734V13.9836H103.271L99.1227 18.6481V14.1136Z" fill="#F1F3F5"/>
<path d="M110.307 16.9757H107.22V14.1172H105.805V21.5622H107.22V18.3529H110.307V21.5622H111.734V14.1172H110.307V16.9757Z" fill="#F1F3F5"/>
<path d="M115.197 18.6481V14.1136H113.77V21.6885H114.245L118.393 16.985V21.5586H119.821V13.9836H119.345L115.197 18.6481Z" fill="#F1F3F5"/>
<path d="M125.295 18.0115L122.343 13.9836H121.879V21.5456H123.306V17.5827L125.063 19.9215H125.527L127.284 17.5827V21.5456H128.699V13.9836H128.235L125.295 18.0115Z" fill="#F1F3F5"/>
<path d="M131.634 21.5456L132.025 20.5841H134.88L135.27 21.5456H136.807L133.696 13.9836H133.233L130.109 21.5456H131.634ZM133.452 16.8161L134.379 19.3238H132.513L133.452 16.8161Z" fill="#F1F3F5"/>
<path d="M139.006 21.5622H140.433V15.5074H142.666V14.1172H136.773V15.5074H139.006V21.5622Z" fill="#F1F3F5"/>
<path d="M148.874 20.1719H145.47V18.3009H147.874V17.0016H145.47V15.5074H148.74V14.1172H144.043V21.5622H148.874V20.1719Z" fill="#F1F3F5"/>
<path d="M154.77 21.5484H156.209V14.1294H151.671V15.5067C151.671 18.7549 151.122 20.0412 150.012 20.1841V21.6134C151.769 21.4834 152.989 20.3141 153.025 15.5067H154.77V21.5484Z" fill="#F1F3F5"/>
<path d="M163.66 19.1025C163.658 18.7591 163.589 18.4199 163.457 18.1068C163.325 17.7937 163.132 17.5136 162.892 17.2846C162.651 17.0557 162.369 16.8829 162.062 16.7775C161.755 16.6722 161.431 16.6365 161.11 16.6728H159.683V14.0742H158.316V21.4932H161.171C161.493 21.5297 161.818 21.4937 162.126 21.3875C162.434 21.2814 162.717 21.1075 162.957 20.8771C163.198 20.6467 163.39 20.365 163.522 20.0504C163.653 19.7357 163.721 19.395 163.721 19.0506L163.66 19.1025ZM161.171 20.155H159.744V17.9461H161.171C161.446 17.9461 161.71 18.0625 161.905 18.2696C162.099 18.4767 162.208 18.7576 162.208 19.0506C162.208 19.3435 162.099 19.6244 161.905 19.8315C161.71 20.0386 161.446 20.155 161.171 20.155Z" fill="#F1F3F5"/>
<path d="M168.663 21.6916C169.285 21.7043 169.898 21.5385 170.439 21.2116C170.98 20.8847 171.429 20.4087 171.737 19.8336L170.664 19.028C170.474 19.4189 170.187 19.7468 169.834 19.9759C169.481 20.205 169.076 20.3266 168.663 20.3274C168.362 20.3403 168.062 20.2865 167.782 20.1695C167.502 20.0524 167.248 19.8747 167.035 19.6474C166.823 19.4202 166.658 19.1485 166.549 18.8495C166.441 18.5505 166.392 18.2308 166.406 17.9106C166.392 17.5882 166.441 17.2662 166.549 16.9645C166.657 16.6629 166.822 16.3879 167.033 16.1567C167.245 15.9254 167.498 15.7427 167.779 15.6198C168.059 15.4968 168.36 15.4363 168.663 15.442C169.076 15.4442 169.48 15.5663 169.833 15.7953C170.185 16.0242 170.473 16.3513 170.664 16.7413L171.737 15.9227C171.426 15.351 170.977 14.8784 170.436 14.5539C169.896 14.2295 169.283 14.0651 168.663 14.0777C168.141 13.9921 167.608 14.0276 167.101 14.1819C166.593 14.3362 166.123 14.6055 165.723 14.9714C165.322 15.3374 165 15.7912 164.78 16.3019C164.559 16.8126 164.445 17.3681 164.445 17.9301C164.445 18.4922 164.559 19.0476 164.78 19.5583C165 20.069 165.322 20.5229 165.723 20.8888C166.123 21.2548 166.593 21.5241 167.101 21.6784C167.608 21.8326 168.141 21.8682 168.663 21.7826" fill="#F1F3F5"/>
<path d="M172.906 15.5074H175.139V21.5622H176.554V15.5074H178.799V14.1172H172.906V15.5074Z" fill="#F1F3F5"/>
<path d="M185.584 19.3657C185.599 18.9599 185.487 18.5604 185.266 18.2292C185.046 17.898 184.729 17.6535 184.364 17.5337C184.69 17.1899 184.874 16.7226 184.877 16.2344C184.874 15.9419 184.815 15.6532 184.704 15.3861C184.592 15.119 184.429 14.8792 184.227 14.6818C184.024 14.4843 183.786 14.3334 183.526 14.2384C183.266 14.1434 182.991 14.1063 182.717 14.1295H180.277V21.5485H183.376C183.664 21.5792 183.955 21.5458 184.23 21.4504C184.505 21.355 184.758 21.1997 184.974 20.9945C185.19 20.7892 185.363 20.5384 185.483 20.258C185.602 19.9776 185.666 19.6737 185.67 19.3657H185.584ZM181.644 15.4678H182.632C183.218 15.4678 183.535 15.7926 183.535 16.3123C183.535 16.8321 183.218 17.1569 182.632 17.1569H181.644V15.4678ZM181.644 20.2882V18.3782H183.279C183.403 18.3593 183.53 18.3695 183.651 18.4082C183.771 18.4468 183.882 18.513 183.976 18.602C184.07 18.6911 184.145 18.8008 184.195 18.9238C184.245 19.0467 184.27 19.1798 184.267 19.3137C184.267 19.8984 183.901 20.2492 183.279 20.2492L181.644 20.2882Z" fill="#F1F3F5"/>
<path d="M189.576 13.9836L186.453 21.5456H187.99L188.381 20.5841H191.26L191.65 21.5456H193.188L190.04 13.9836H189.576ZM188.881 19.3238L189.808 16.8161L190.735 19.3238H188.881Z" fill="#F1F3F5"/>
<path d="M60.208 35.0588V27.4968H59.72L55.5841 32.1483V27.6268H54.1445V35.1887H54.6203L58.7684 30.4982V35.0588H60.208Z" fill="#F1F3F5"/>
<path d="M65.8906 27.6268V35.1887H66.3542L70.5023 30.4982V35.0588H71.9297V27.4968H71.4539L67.318 32.1483V27.6268H65.8906Z" fill="#F1F3F5"/>
<path d="M75.3884 31.8534H78.475V35.0626H79.9024V27.6306H78.475V30.4761H75.3884V27.6306H73.9609V35.0626H75.3884V31.8534Z" fill="#F1F3F5"/>
<path d="M87.9024 35.0626V27.6306H86.475V30.4761H83.3884V27.6306H81.9609V35.0626H83.3884V31.8534H86.475V35.0626H87.9024Z" fill="#F1F3F5"/>
<path d="M96.9529 31.3464C96.9529 30.5755 96.7383 29.8219 96.3361 29.1808C95.9339 28.5398 95.3623 28.0402 94.6935 27.7452C94.0247 27.4502 93.2888 27.373 92.5788 27.5234C91.8688 27.6738 91.2167 28.045 90.7048 28.5902C90.1929 29.1353 89.8444 29.8298 89.7031 30.586C89.5619 31.3421 89.6344 32.1258 89.9114 32.8381C90.1884 33.5503 90.6576 34.1591 91.2595 34.5874C91.8613 35.0157 92.569 35.2443 93.2929 35.2443C94.2636 35.2443 95.1945 34.8336 95.8809 34.1026C96.5673 33.3716 96.9529 32.3802 96.9529 31.3464ZM91.0114 31.3464C91.0211 30.8754 91.1612 30.4178 91.4141 30.0313C91.6671 29.6448 92.0217 29.3465 92.4333 29.1739C92.845 29.0013 93.2953 28.9621 93.7278 29.0612C94.1603 29.1602 94.5557 29.3932 94.8643 29.7309C95.1729 30.0685 95.3809 30.4957 95.4623 30.9588C95.5436 31.4219 95.4947 31.9003 95.3216 32.3339C95.1485 32.7675 94.8589 33.1369 94.4893 33.3958C94.1197 33.6547 93.6865 33.7915 93.2441 33.7891C92.9437 33.7967 92.6451 33.7381 92.367 33.6172C92.0889 33.4963 91.8372 33.3155 91.6276 33.0862C91.4181 32.857 91.2552 32.5841 91.1492 32.2848C91.0431 31.9854 90.9962 31.6659 91.0114 31.3464Z" fill="#F1F3F5"/>
<path d="M102.745 31.0437C102.909 30.875 103.039 30.6732 103.13 30.4502C103.22 30.2271 103.267 29.9872 103.269 29.7444C103.262 29.4505 103.198 29.1613 103.081 28.895C102.965 28.6287 102.797 28.391 102.59 28.197C102.382 28.0029 102.139 27.8567 101.876 27.7675C101.613 27.6782 101.336 27.648 101.061 27.6785H98.6211V35.1106H101.732C102.02 35.1412 102.311 35.1078 102.586 35.0124C102.861 34.917 103.114 34.7618 103.33 34.5565C103.546 34.3512 103.719 34.1004 103.839 33.82C103.958 33.5396 104.022 33.2358 104.026 32.9277C104.037 32.5212 103.924 32.1217 103.704 31.7892C103.484 31.4566 103.169 31.2088 102.806 31.0827L102.745 31.0437ZM100.012 28.9649H100.976C101.561 28.9649 101.879 29.3027 101.879 29.8094C101.881 29.932 101.859 30.0537 101.813 30.1662C101.768 30.2787 101.7 30.3792 101.614 30.4608C101.528 30.5424 101.426 30.6032 101.316 30.6387C101.206 30.6743 101.09 30.6839 100.976 30.6669H99.9875L100.012 28.9649ZM101.647 33.7853H100.012V31.8753H101.647C102.269 31.8753 102.647 32.2391 102.647 32.8108C102.647 33.3825 102.269 33.7463 101.647 33.7463" fill="#F1F3F5"/>
<path d="M107.967 27.4968L104.844 35.0588H106.381L106.771 34.0973H109.626L110.029 35.0588H111.554L108.455 27.4968H107.967ZM107.272 32.837L108.199 30.3293L109.126 32.837H107.272Z" fill="#F1F3F5"/>
<path d="M118.614 27.6306H117.187V33.6854H114.369V27.6306H112.941V35.0626H118.114V36.6478H119.542V33.6854H118.614V27.6306Z" fill="#F1F3F5"/>
<path d="M121.113 27.6268V35.1887H121.577L125.725 30.4982V35.0588H127.152V27.4968H126.677L122.541 32.1483V27.6268H121.113Z" fill="#F1F3F5"/>
<path d="M132.47 27.4976C131.749 27.5104 131.047 27.7499 130.454 28.1859C129.86 28.6219 129.4 29.235 129.132 29.9483C128.865 30.6616 128.801 31.4432 128.949 32.195C129.097 32.9468 129.45 33.6352 129.965 34.1739C130.479 34.7126 131.131 35.0774 131.839 35.2226C132.548 35.3678 133.28 35.2869 133.946 34.9901C134.611 34.6933 135.179 34.1937 135.578 33.5542C135.978 32.9147 136.191 32.1637 136.191 31.3955C136.191 30.8781 136.095 30.3659 135.907 29.8887C135.719 29.4115 135.444 28.9789 135.098 28.6161C134.751 28.2532 134.341 27.9675 133.89 27.7755C133.438 27.5834 132.956 27.489 132.47 27.4976ZM132.47 33.7862C132.014 33.7992 131.565 33.667 131.18 33.4065C130.795 33.1461 130.491 32.7693 130.308 32.3242C130.125 31.8792 130.071 31.3861 130.152 30.9081C130.234 30.43 130.447 29.9887 130.766 29.6406C131.084 29.2925 131.492 29.0533 131.939 28.9536C132.385 28.854 132.85 28.8984 133.272 29.0812C133.695 29.2641 134.057 29.577 134.312 29.98C134.566 30.3829 134.703 30.8577 134.703 31.3435C134.718 31.6631 134.671 31.9825 134.565 32.2819C134.459 32.5813 134.296 32.8541 134.087 33.0834C133.877 33.3127 133.625 33.4934 133.347 33.6143C133.069 33.7353 132.77 33.7938 132.47 33.7862Z" fill="#F1F3F5"/>
<path d="M143.758 35.0626V27.6306H142.33V30.4761H139.244V27.6306H137.816V35.0626H139.244V31.8534H142.33V35.0626H143.758Z" fill="#F1F3F5"/>
<path d="M150.319 30.4761H147.232V27.6306H145.805V35.0626H147.232V31.8534H150.319V35.0626H151.746V27.6306H150.319V30.4761Z" fill="#F1F3F5"/>
<path d="M157.101 27.4968C156.378 27.4968 155.67 27.7254 155.068 28.1537C154.466 28.582 153.997 29.1908 153.72 29.9031C153.443 30.6153 153.371 31.3991 153.512 32.1552C153.653 32.9113 154.002 33.6058 154.513 34.151C155.025 34.6961 155.677 35.0673 156.387 35.2177C157.097 35.3681 157.833 35.291 158.502 34.9959C159.171 34.7009 159.743 34.2013 160.145 33.5603C160.547 32.9193 160.761 32.1657 160.761 31.3947C160.761 30.3609 160.376 29.3695 159.689 28.6385C159.003 27.9075 158.072 27.4968 157.101 27.4968ZM157.101 33.7855C156.493 33.7855 155.91 33.5281 155.48 33.07C155.049 32.6119 154.808 31.9906 154.808 31.3428C154.808 30.6949 155.049 30.0736 155.48 29.6155C155.91 29.1574 156.493 28.9001 157.101 28.9001C157.71 28.9001 158.293 29.1574 158.723 29.6155C159.153 30.0736 159.395 30.6949 159.395 31.3428C159.395 31.9906 159.153 32.6119 158.723 33.07C158.293 33.5281 157.71 33.7855 157.101 33.7855Z" fill="#F1F3F5"/>
<path d="M162.426 35.0626H163.853V29.0079H166.915V27.6306H162.426V35.0626Z" fill="#F1F3F5"/>
<path d="M171.535 27.4968C170.811 27.4968 170.104 27.7254 169.502 28.1537C168.9 28.582 168.431 29.1908 168.154 29.9031C167.877 30.6153 167.804 31.3991 167.945 32.1552C168.087 32.9113 168.435 33.6058 168.947 34.151C169.459 34.6961 170.111 35.0673 170.821 35.2177C171.531 35.3681 172.267 35.291 172.936 34.9959C173.604 34.7009 174.176 34.2013 174.578 33.5603C174.98 32.9193 175.195 32.1657 175.195 31.3947C175.195 30.3609 174.809 29.3695 174.123 28.6385C173.437 27.9075 172.506 27.4968 171.535 27.4968ZM171.535 33.7855C170.927 33.7855 170.343 33.5281 169.913 33.07C169.483 32.6119 169.241 31.9906 169.241 31.3428C169.241 30.6949 169.483 30.0736 169.913 29.6155C170.343 29.1574 170.927 28.9001 171.535 28.9001C172.143 28.9001 172.727 29.1574 173.157 29.6155C173.587 30.0736 173.829 30.6949 173.829 31.3428C173.829 31.9906 173.587 32.6119 173.157 33.07C172.727 33.5281 172.143 33.7855 171.535 33.7855Z" fill="#F1F3F5"/>
<path d="M183.154 27.6306H180.531V35.0626H181.959V32.464H183.179C183.495 32.4991 183.814 32.463 184.116 32.3582C184.419 32.2534 184.697 32.0821 184.933 31.8555C185.169 31.6289 185.358 31.352 185.487 31.0427C185.616 30.7335 185.683 30.3988 185.683 30.0603C185.683 29.7218 185.616 29.3871 185.487 29.0779C185.358 28.7686 185.169 28.4917 184.933 28.2651C184.697 28.0385 184.419 27.8673 184.116 27.7624C183.814 27.6576 183.495 27.6215 183.179 27.6566L183.154 27.6306ZM183.179 31.1257H181.959V28.9689H183.179C183.444 28.9689 183.698 29.0811 183.886 29.281C184.074 29.4808 184.179 29.7518 184.179 30.0343C184.179 30.3169 184.074 30.5879 183.886 30.7877C183.698 30.9875 183.444 31.0998 183.179 31.0998" fill="#F1F3F5"/>
<path d="M189.065 27.4968L185.941 35.0588H187.479L187.869 34.0973H190.724L191.114 35.0588H192.651L189.54 27.4968H189.065ZM188.357 32.837L189.284 30.3293L190.211 32.837H188.357Z" fill="#F1F3F5"/>
<path d="M197.957 31.1364C198.163 30.9663 198.329 30.7473 198.441 30.4969C198.553 30.2465 198.609 29.9716 198.604 29.6941C198.586 29.3767 198.507 29.0665 198.373 28.7822C198.239 28.4979 198.053 28.2456 197.825 28.0403C197.597 27.835 197.332 27.6812 197.046 27.588C196.761 27.4949 196.46 27.4643 196.164 27.4983C195.652 27.5079 195.153 27.6669 194.721 27.9579C194.288 28.2489 193.939 28.6607 193.711 29.1484L194.7 29.902C194.858 29.6215 195.079 29.387 195.343 29.2193C195.607 29.0515 195.905 28.9558 196.212 28.9405C196.81 28.9405 197.201 29.3043 197.201 29.8111C197.201 29.933 197.178 30.0537 197.131 30.1652C197.085 30.2766 197.017 30.3762 196.931 30.4574C196.846 30.5385 196.745 30.5994 196.636 30.6358C196.527 30.6722 196.411 30.6834 196.298 30.6686H195.224V31.9679H196.591C196.713 31.9494 196.838 31.959 196.957 31.9961C197.075 32.0333 197.185 32.0971 197.279 32.1832C197.373 32.2694 197.448 32.376 197.5 32.4957C197.551 32.6155 197.578 32.7456 197.579 32.8774C197.579 33.5141 197.018 33.8779 196.359 33.8779C196.005 33.8775 195.657 33.7776 195.35 33.5882C195.044 33.3989 194.79 33.1268 194.614 32.7995L193.602 33.5531C193.865 34.0873 194.265 34.5316 194.755 34.835C195.244 35.1384 195.805 35.2885 196.371 35.2681C197.011 35.3298 197.648 35.1202 198.144 34.6847C198.639 34.2493 198.954 33.6232 199.018 32.9424C199.025 32.5792 198.931 32.2219 198.749 31.9148C198.567 31.6077 198.304 31.3641 197.994 31.2143" fill="#F1F3F5"/>
<path d="M204.788 31.044C204.952 30.8752 205.082 30.6735 205.172 30.4504C205.263 30.2274 205.31 29.9875 205.312 29.7447C205.305 29.4508 205.241 29.1615 205.124 28.8952C205.007 28.6289 204.84 28.3912 204.633 28.1972C204.425 28.0032 204.182 27.8569 203.919 27.7677C203.656 27.6785 203.379 27.6482 203.104 27.6788H200.664V35.1108H203.775C204.063 35.1414 204.354 35.108 204.629 35.0126C204.904 34.9173 205.157 34.762 205.373 34.5567C205.588 34.3515 205.762 34.1007 205.882 33.8203C206.001 33.5399 206.065 33.236 206.069 32.928C206.082 32.5209 205.969 32.1205 205.749 31.7875C205.529 31.4545 205.213 31.2072 204.849 31.083L204.788 31.044ZM202.067 28.9651H203.043C203.641 28.9651 203.958 29.3029 203.958 29.8096C203.958 30.3164 203.641 30.6672 203.043 30.6672H202.067V28.9651ZM203.69 33.7855H201.994V31.8755H203.629C203.753 31.8566 203.88 31.8668 204.001 31.9055C204.121 31.9441 204.232 32.0103 204.326 32.0993C204.42 32.1884 204.495 32.2981 204.545 32.4211C204.596 32.544 204.62 32.6771 204.617 32.811C204.617 33.4087 204.251 33.7465 203.629 33.7465" fill="#F1F3F5"/>
<path d="M209.048 32.1483V27.6268H207.633V35.1887H208.096L212.244 30.4982V35.0588H213.672V27.4968H213.196L209.048 32.1483Z" fill="#F1F3F5"/>
<path d="M215.074 29.0079H217.307V35.0626H218.734V29.0079H220.967V27.6306H215.074V29.0079Z" fill="#F1F3F5"/>
<path d="M223.782 32.1483V27.6268H222.367V35.1887H222.831L226.979 30.4982V35.0588H228.418V27.4968H227.93L223.782 32.1483Z" fill="#F1F3F5"/>
<path d="M233.065 27.6274C232.724 27.589 232.379 27.6277 232.052 27.741C231.726 27.8543 231.426 28.0396 231.172 28.2849C230.917 28.5301 230.714 28.8298 230.576 29.1643C230.437 29.4987 230.367 29.8605 230.369 30.226C230.36 30.6573 230.46 31.0832 230.657 31.46C230.854 31.8368 231.142 32.1508 231.491 32.3699L229.832 35.0854H231.43L232.845 32.7856H234.065V35.0724H235.493V27.6274H233.065ZM234.102 31.4344H233.053C232.892 31.4521 232.728 31.4335 232.574 31.3799C232.42 31.3262 232.278 31.2387 232.158 31.123C232.037 31.0072 231.941 30.8659 231.875 30.708C231.809 30.5501 231.775 30.3793 231.775 30.2065C231.775 30.0338 231.809 29.8629 231.875 29.7051C231.941 29.5472 232.037 29.4058 232.158 29.2901C232.278 29.1744 232.42 29.0868 232.574 29.0332C232.728 28.9796 232.892 28.961 233.053 28.9787H234.102V31.4344Z" fill="#F1F3F5"/>
<path d="M54.1445 48.5704H55.5842V42.5157H58.6464V41.1384H54.1445V48.5704Z" fill="#F1F3F5"/>
<path d="M63.2655 40.9983C62.5416 40.9983 61.834 41.2269 61.2321 41.6552C60.6302 42.0835 60.1611 42.6923 59.8841 43.4045C59.6071 44.1168 59.5346 44.9005 59.6758 45.6566C59.817 46.4128 60.1656 47.1073 60.6775 47.6524C61.1893 48.1976 61.8415 48.5688 62.5515 48.7192C63.2615 48.8696 63.9974 48.7924 64.6662 48.4974C65.3349 48.2024 65.9066 47.7028 66.3087 47.0618C66.7109 46.4208 66.9256 45.6671 66.9256 44.8962C66.9256 43.8624 66.5399 42.871 65.8536 42.14C65.1672 41.409 64.2362 40.9983 63.2655 40.9983ZM63.2655 47.2869C62.6877 47.2419 62.1472 46.9658 61.7528 46.5138C61.3583 46.0619 61.1391 45.4677 61.1391 44.8507C61.1391 44.2337 61.3583 43.6395 61.7528 43.1876C62.1472 42.7357 62.6877 42.4595 63.2655 42.4145C63.8434 42.4595 64.3838 42.7357 64.7783 43.1876C65.1727 43.6395 65.392 44.2337 65.392 44.8507C65.392 45.4677 65.1727 46.0619 64.7783 46.5138C64.3838 46.9658 63.8434 47.2419 63.2655 47.2869Z" fill="#F1F3F5"/>
<path d="M71.2246 41.1384H68.6016V48.6354H70.029V46.0368H71.249C71.5651 46.0719 71.8846 46.0358 72.1868 45.931C72.489 45.8261 72.7671 45.6549 73.0032 45.4283C73.2393 45.2016 73.4281 44.9248 73.5573 44.6155C73.6865 44.3063 73.7532 43.9716 73.7532 43.6331C73.7532 43.2946 73.6865 42.9599 73.5573 42.6507C73.4281 42.3414 73.2393 42.0645 73.0032 41.8379C72.7671 41.6113 72.489 41.44 72.1868 41.3352C71.8846 41.2304 71.5651 41.1943 71.249 41.2294L71.2246 41.1384ZM71.249 44.6985H70.029V42.5547H71.249C71.3905 42.538 71.5337 42.5534 71.6692 42.5997C71.8048 42.646 71.9296 42.7222 72.0356 42.8233C72.1417 42.9245 72.2265 43.0483 72.2845 43.1867C72.3426 43.3251 72.3726 43.475 72.3726 43.6266C72.3726 43.7782 72.3426 43.9281 72.2845 44.0665C72.2265 44.2049 72.1417 44.3287 72.0356 44.4298C71.9296 44.531 71.8048 44.6072 71.6692 44.6535C71.5337 44.6998 71.3905 44.7151 71.249 44.6985Z" fill="#F1F3F5"/>
<path d="M78.6913 40.9983C77.9674 40.9983 77.2598 41.2269 76.6579 41.6552C76.056 42.0835 75.5869 42.6923 75.3099 43.4045C75.0328 44.1168 74.9604 44.9005 75.1016 45.6566C75.2428 46.4128 75.5914 47.1073 76.1033 47.6524C76.6151 48.1976 77.2673 48.5688 77.9773 48.7192C78.6872 48.8696 79.4232 48.7924 80.0919 48.4974C80.7607 48.2024 81.3323 47.7028 81.7345 47.0618C82.1367 46.4208 82.3513 45.6671 82.3513 44.8962C82.3513 43.8624 81.9657 42.871 81.2793 42.14C80.5929 41.409 79.662 40.9983 78.6913 40.9983ZM78.6913 47.2869C78.1135 47.2419 77.573 46.9658 77.1786 46.5138C76.7841 46.0619 76.5648 45.4677 76.5648 44.8507C76.5648 44.2337 76.7841 43.6395 77.1786 43.1876C77.573 42.7357 78.1135 42.4595 78.6913 42.4145C79.2691 42.4595 79.8096 42.7357 80.204 43.1876C80.5985 43.6395 80.8178 44.2337 80.8178 44.8507C80.8178 45.4677 80.5985 46.0619 80.204 46.5138C79.8096 46.9658 79.2691 47.2419 78.6913 47.2869Z" fill="#F1F3F5"/>
<path d="M89.5951 41.1384H85.264V42.3598C85.264 45.0753 84.776 46.4006 83.861 47.1932H83.3242V50.1426H84.7516V48.6354H89.0949V50.2076H90.5223V47.2581H89.5951V41.1384ZM88.1799 47.1932H85.4592C86.3622 45.8315 86.7934 44.1783 86.6793 42.5157H88.2287V47.1932H88.1799Z" fill="#F1F3F5"/>
<path d="M94.7751 40.9983L91.6641 48.6382H93.2013L93.5795 47.6637H96.4343L96.8369 48.6382H98.3741L95.2631 41.0633L94.7751 40.9983ZM94.0797 46.3514L95.0069 43.8438L95.9219 46.3514H94.0797Z" fill="#F1F3F5"/>
<path d="M106.814 45.0261L103.862 40.9983H103.398V48.5732H104.826V44.5974L106.583 46.9491H107.046L108.803 44.5974V48.5732H110.218V40.9983H109.755L106.814 45.0261Z" fill="#F1F3F5"/>
<path d="M115.617 40.9983C114.893 40.9983 114.186 41.2269 113.584 41.6552C112.982 42.0835 112.513 42.6923 112.236 43.4045C111.959 44.1168 111.886 44.9005 112.027 45.6566C112.169 46.4128 112.517 47.1073 113.029 47.6524C113.541 48.1976 114.193 48.5688 114.903 48.7192C115.613 48.8696 116.349 48.7924 117.018 48.4974C117.687 48.2024 118.258 47.7028 118.66 47.0618C119.062 46.4208 119.277 45.6671 119.277 44.8962C119.277 43.8624 118.892 42.871 118.205 42.14C117.519 41.409 116.588 40.9983 115.617 40.9983ZM115.617 47.2869C115.039 47.2419 114.499 46.9658 114.104 46.5138C113.71 46.0619 113.491 45.4677 113.491 44.8507C113.491 44.2337 113.71 43.6395 114.104 43.1876C114.499 42.7357 115.039 42.4595 115.617 42.4145C116.195 42.4595 116.735 42.7357 117.13 43.1876C117.524 43.6395 117.744 44.2337 117.744 44.8507C117.744 45.4677 117.524 46.0619 117.13 46.5138C116.735 46.9658 116.195 47.2419 115.617 47.2869Z" fill="#F1F3F5"/>
<path d="M124.349 42.4145C124.763 42.4153 125.168 42.5368 125.521 42.766C125.873 42.9951 126.16 43.3229 126.35 43.7138L127.424 42.9083C127.116 42.3323 126.668 41.8555 126.127 41.5285C125.586 41.2014 124.972 41.0362 124.349 41.0503C123.826 40.9582 123.289 40.9887 122.777 41.1396C122.265 41.2905 121.791 41.5582 121.386 41.9241C120.981 42.29 120.655 42.7454 120.432 43.2586C120.209 43.7719 120.094 44.3306 120.094 44.8962C120.094 45.4618 120.209 46.0205 120.432 46.5338C120.655 47.047 120.981 47.5024 121.386 47.8683C121.791 48.2342 122.265 48.5019 122.777 48.6528C123.289 48.8037 123.826 48.8342 124.349 48.7421C124.972 48.7571 125.587 48.5938 126.13 48.2692C126.673 47.9447 127.124 47.4708 127.436 46.8971L126.363 46.0786C126.172 46.4685 125.884 46.7956 125.532 47.0246C125.179 47.2535 124.775 47.3757 124.362 47.3779C123.784 47.3329 123.243 47.0567 122.849 46.6048C122.454 46.1529 122.235 45.5587 122.235 44.9417C122.235 44.3246 122.454 43.7305 122.849 43.2786C123.243 42.8266 123.784 42.5504 124.362 42.5055" fill="#F1F3F5"/>
<path d="M134.759 41.1384H133.064L130.404 44.5816V41.1384H128.977V48.5704H130.404V44.6855L133.393 48.5704H135.113L132.088 44.6465L134.759 41.1384Z" fill="#F1F3F5"/>
<path d="M140.667 44.545C140.832 44.3771 140.963 44.1755 141.053 43.9523C141.143 43.729 141.19 43.4887 141.191 43.2457C141.184 42.9517 141.12 42.6625 141.003 42.3962C140.886 42.1299 140.719 41.8922 140.512 41.6982C140.304 41.5041 140.061 41.3579 139.798 41.2687C139.535 41.1795 139.258 41.1492 138.983 41.1798H136.543V48.6378H139.654C139.941 48.6683 140.232 48.6352 140.507 48.5407C140.781 48.4463 141.035 48.2924 141.252 48.0887C141.468 47.885 141.643 47.6359 141.764 47.357C141.886 47.0781 141.953 46.7755 141.96 46.4679C141.973 46.0592 141.862 45.6568 141.642 45.3216C141.422 44.9864 141.105 44.7366 140.74 44.6099L140.667 44.545ZM137.958 42.505H138.946C139.532 42.505 139.849 42.8299 139.849 43.3496C139.852 43.4722 139.83 43.5939 139.784 43.7064C139.738 43.8189 139.67 43.9194 139.584 44.001C139.498 44.0826 139.397 44.1434 139.287 44.1789C139.177 44.2145 139.06 44.2241 138.946 44.2071H137.958V42.505ZM139.593 47.3255H137.958V45.3895H139.593C139.721 45.3668 139.851 45.3739 139.976 45.4105C140.101 45.447 140.217 45.5121 140.315 45.6011C140.414 45.6902 140.493 45.801 140.548 45.9261C140.602 46.0511 140.631 46.1872 140.631 46.325C140.631 46.4628 140.602 46.5989 140.548 46.724C140.493 46.849 140.414 46.9599 140.315 47.0489C140.217 47.1379 140.101 47.203 139.976 47.2395C139.851 47.2761 139.721 47.2832 139.593 47.2605" fill="#F1F3F5"/>
<path d="M146.34 43.7007H144.9V41.1021H143.473V48.638H146.327C146.652 48.6818 146.982 48.6516 147.295 48.5492C147.608 48.4468 147.896 48.2746 148.142 48.0442C148.387 47.8137 148.584 47.5303 148.719 47.2126C148.854 46.8949 148.923 46.5504 148.923 46.2018C148.923 45.8533 148.854 45.5087 148.719 45.191C148.584 44.8734 148.387 44.5899 148.142 44.3595C147.896 44.129 147.608 43.9569 147.295 43.8545C146.982 43.7521 146.652 43.7218 146.327 43.7656L146.34 43.7007ZM146.327 47.2867H144.9V45.0909H146.327C146.472 45.0741 146.619 45.09 146.757 45.1375C146.896 45.185 147.024 45.2631 147.132 45.3667C147.241 45.4703 147.327 45.597 147.387 45.7387C147.446 45.8803 147.477 46.0337 147.477 46.1888C147.477 46.344 147.446 46.4973 147.387 46.639C147.327 46.7806 147.241 46.9074 147.132 47.011C147.024 47.1145 146.896 47.1926 146.757 47.2402C146.619 47.2877 146.472 47.3035 146.327 47.2867Z" fill="#F1F3F5"/>
<path d="M151.524 41.1384H150.098V48.5704H151.524V41.1384Z" fill="#F1F3F5"/>
</svg>
