<svg width="94" height="65" viewBox="0 0 94 65" fill="none" xmlns="http://www.w3.org/2000/svg">
<g clip-path="url(#clip0_8574_7129)">
<path d="M18.3318 58.2402H19.5294L20.727 61.2657C20.8531 61.6439 21.0421 62.1481 21.0421 62.1481C21.0421 62.1481 21.2313 61.6439 21.3573 61.2657L22.5548 58.2402H23.7525L24.2567 64.2911H23.1221L22.87 60.8875C22.807 60.5094 22.87 59.9421 22.87 59.9421C22.87 59.9421 22.6809 60.5094 22.5548 60.8875L21.5464 63.2196H20.6009L19.5925 60.8875C19.4664 60.5094 19.2773 59.9421 19.2773 59.9421C19.2773 59.9421 19.2773 60.5094 19.2773 60.8875L19.0251 64.2911H17.8906L18.3318 58.2402Z" fill="white"/>
<path d="M26.7115 58.2402H30.1781V59.1857H27.783V64.2911H26.6484V58.2402H26.7115Z" fill="white"/>
<path d="M32.3247 58.2402H37.2411V64.2911H36.1066V59.1857H33.3962V64.2911H32.2617V58.2402H32.3247Z" fill="white"/>
<path d="M40.3293 63.1566C40.4553 63.2827 40.7075 63.4717 41.0227 63.4717C41.3378 63.4717 41.5269 63.2826 41.653 62.9675L39.2578 58.2402H40.4553L41.779 60.9506C41.9681 61.3287 42.0942 61.7699 42.0942 61.7699C42.0942 61.7699 42.2202 61.3917 42.3463 60.9506L43.2917 58.2402H44.4263L42.5353 63.0306C42.2832 63.6609 41.842 64.4172 40.9596 64.4172C40.5184 64.4172 40.1402 64.2281 39.762 63.976L40.3293 63.1566Z" fill="white"/>
<path d="M29.4874 21.6191C31.2523 21.6191 32.639 23.0058 32.639 24.7076C32.639 26.4725 31.3153 27.8591 29.4874 27.8591C27.7226 27.8591 26.3359 26.4725 26.3359 24.7076C26.3359 23.0058 27.7226 21.6191 29.4874 21.6191ZM29.4874 26.9137C30.622 26.9137 31.5044 25.9682 31.5044 24.7706C31.5044 23.5731 30.622 22.6906 29.4874 22.6906C28.3529 22.6906 27.4705 23.5731 27.4705 24.7706C27.4705 25.9682 28.3529 26.9137 29.4874 26.9137Z" fill="white"/>
<path d="M43.5408 21.7461H42.4062V27.797H43.5408V21.7461Z" fill="white"/>
<path d="M47.0075 21.7461H45.81L43.793 24.6455L45.936 27.86H47.2596L44.9905 24.6455L47.0075 21.7461Z" fill="white"/>
<path d="M72.5369 21.7461H71.4023V27.797H72.5369V21.7461Z" fill="white"/>
<path d="M75.9997 21.7461H74.8021L72.7852 24.6455L74.9282 27.86H76.2518L73.9828 24.6455L75.9997 21.7461Z" fill="white"/>
<path d="M62.4509 33.9102H61.3164V39.961H62.4509V33.9102Z" fill="white"/>
<path d="M65.9137 33.9102H64.6532L62.6992 36.8095L64.8422 39.961H66.1659L63.8968 36.7465L65.9137 33.9102Z" fill="white"/>
<path d="M18.3318 21.7461H19.5294L20.727 24.7715C20.8531 25.1497 21.0421 25.6539 21.0421 25.6539C21.0421 25.6539 21.2313 25.1497 21.3573 24.7715L22.5548 21.7461H23.7525L24.2567 27.797H23.1221L22.87 24.3933C22.807 24.0151 22.87 23.4478 22.87 23.4478C22.87 23.4478 22.6809 24.0151 22.5548 24.3933L21.5464 26.7255H20.6009L19.5925 24.3933C19.4664 24.0151 19.2773 23.4478 19.2773 23.4478C19.2773 23.4478 19.2773 24.0151 19.2773 24.3933L19.0251 27.797H17.8906L18.3318 21.7461Z" fill="white"/>
<path d="M37.8055 21.6191C38.6249 21.6191 39.4442 21.8713 40.0745 22.4385L39.5703 23.258C39.1291 22.8798 38.4988 22.6276 37.9315 22.6276C36.6079 22.6276 35.9145 23.5731 35.9145 24.7076C35.9145 25.8422 36.6709 26.8506 37.9315 26.8506C38.5618 26.8506 39.2552 26.5355 39.6964 26.0943L40.2637 26.9137C39.7594 27.418 38.94 27.9222 37.8685 27.9222C35.9776 27.9222 34.717 26.5355 34.717 24.7706C34.654 23.0058 35.9776 21.6191 37.8055 21.6191Z" fill="white"/>
<path d="M51.7999 21.6191C53.5648 21.6191 54.9515 23.0058 54.9515 24.7076C54.9515 26.4725 53.6278 27.8591 51.7999 27.8591C50.0351 27.8591 48.6484 26.4725 48.6484 24.7076C48.6484 23.0058 50.0351 21.6191 51.7999 21.6191ZM51.7999 26.9137C52.9345 26.9137 53.8169 25.9682 53.8169 24.7706C53.8169 23.5731 52.9345 22.6906 51.7999 22.6906C50.6654 22.6906 49.783 23.5731 49.783 24.7706C49.783 25.9682 50.6654 26.9137 51.7999 26.9137Z" fill="white"/>
<path d="M57.3438 21.7461H59.4868C60.6213 21.7461 61.3777 22.3133 61.3777 23.3218C61.3777 23.8891 61.1256 24.3933 60.6213 24.6455C61.3146 24.8345 61.6298 25.4648 61.6298 26.0951C61.6298 27.2927 60.6844 27.86 59.5498 27.86H57.3438V21.7461ZM59.4868 24.2043C59.9911 24.2043 60.2431 23.8891 60.2431 23.4478C60.2431 23.0066 59.9911 22.6915 59.4868 22.6915H58.4153V24.2043H59.4868ZM59.6129 26.8515C60.1801 26.8515 60.4953 26.4733 60.4953 25.9691C60.4953 25.4648 60.1801 25.0866 59.6129 25.0866H58.4153V26.8515H59.6129Z" fill="white"/>
<path d="M66.8016 21.6191C67.6209 21.6191 68.4403 21.8713 69.0706 22.4385L68.5664 23.258C68.1252 22.8798 67.4949 22.6276 66.9276 22.6276C65.604 22.6276 64.9106 23.5731 64.9106 24.7076C64.9106 25.8422 65.667 26.8506 66.9276 26.8506C67.5579 26.8506 68.2513 26.5355 68.6925 26.0943L69.2598 26.9137C68.7555 27.418 67.9361 27.9222 66.8646 27.9222C64.9737 27.9222 63.7131 26.5355 63.7131 24.7706C63.6501 23.0058 64.9737 21.6191 66.8016 21.6191Z" fill="white"/>
<path d="M78.1445 21.7461H79.2791V25.2758C79.2791 25.6539 79.216 26.2212 79.216 26.2212C79.216 26.2212 79.5312 25.6539 79.7203 25.2758L81.9894 21.7461H83.0609V27.797H81.9894V24.2673C81.9894 23.8891 82.0524 23.3218 82.0524 23.3218C82.0524 23.3218 81.8003 23.8891 81.5482 24.2673L79.216 27.797H78.1445V21.7461Z" fill="white"/>
<path d="M85.8984 21.7457H87.033V25.2754C87.033 25.6536 86.9699 26.2208 86.9699 26.2208C86.9699 26.2208 87.2851 25.6536 87.4742 25.2754L89.7433 21.7457H90.8148V27.7966H89.7433V24.2669C89.7433 23.8887 89.8063 23.3214 89.8063 23.3214C89.8063 23.3214 89.5542 23.8887 89.3021 24.2669L86.9699 27.7966H85.8984V21.7457ZM87.033 20.296V20.1699H87.8524V20.296C87.8524 20.6741 88.1676 20.8633 88.4196 20.8633C88.6718 20.8633 88.9869 20.6741 88.9869 20.296V20.1699H89.8063V20.296C89.8063 21.0524 89.176 21.4936 88.4196 21.4936C87.6633 21.4936 87.033 21.0524 87.033 20.296Z" fill="white"/>
<path d="M18.0747 33.9102H21.5414V34.8555H19.1462V39.961H18.0117V33.9102H18.0747Z" fill="white"/>
<path d="M26.2726 33.7832C28.0374 33.7832 29.4241 35.1699 29.4241 36.8717C29.4241 38.6365 28.1005 40.0232 26.2726 40.0232C24.5078 40.0232 23.1211 38.6365 23.1211 36.8717C23.1211 35.1699 24.4447 33.7832 26.2726 33.7832ZM26.2726 39.0777C27.4071 39.0777 28.2895 38.1323 28.2895 36.9347C28.2895 35.7372 27.4071 34.8547 26.2726 34.8547C25.1381 34.8547 24.2556 35.7372 24.2556 36.9347C24.2556 38.1323 25.1381 39.0777 26.2726 39.0777Z" fill="white"/>
<path d="M31.7544 33.9102H34.0866C35.2211 33.9102 36.0405 34.7295 36.0405 35.864C36.0405 37.0617 35.2211 37.881 34.0866 37.881H32.8259V39.961H31.6914V33.9102H31.7544ZM33.8974 36.9355C34.5278 36.9355 34.9059 36.4944 34.9059 35.864C34.9059 35.2337 34.5278 34.8555 33.8974 34.8555H32.8259V36.9355H33.8974Z" fill="white"/>
<path d="M41.0812 33.7832C42.846 33.7832 44.2327 35.1699 44.2327 36.8717C44.2327 38.6365 42.909 40.0232 41.0812 40.0232C39.3164 40.0232 37.9297 38.6365 37.9297 36.8717C37.9297 35.1699 39.3164 33.7832 41.0812 33.7832ZM41.0812 39.0777C42.2157 39.0777 43.0982 38.1323 43.0982 36.9347C43.0982 35.7372 42.2157 34.8547 41.0812 34.8547C39.9467 34.8547 39.0642 35.7372 39.0642 36.9347C39.0642 38.1323 39.9467 39.0777 41.0812 39.0777Z" fill="white"/>
<path d="M46.3803 39.0155C47.1367 37.881 47.2627 36.4313 47.2627 35.2337V33.9102H51.0445V39.0155H51.7379V41.1586H50.7294V39.961H46.7585V41.1586H45.75V39.0155H46.3803ZM49.91 39.0155V34.8555H48.2712V35.2968C48.2712 36.4944 48.1452 38.0071 47.5148 39.0155H49.91Z" fill="white"/>
<path d="M56.7156 33.7832C57.535 33.7832 58.3544 34.0354 58.9847 34.6027L58.4804 35.422C58.0392 35.0438 57.4089 34.7917 56.8417 34.7917C55.518 34.7917 54.8247 35.7372 54.8247 36.8717C54.8247 38.0062 55.581 39.0147 56.8417 39.0147C57.472 39.0147 58.1653 38.6996 58.6065 38.2584L59.1737 39.0777C58.6695 39.582 57.8502 40.0862 56.7787 40.0862C54.8877 40.0862 53.6272 38.6996 53.6272 36.9347C53.5641 35.1699 54.8877 33.7832 56.7156 33.7832Z" fill="white"/>
<path d="M70.7101 33.7832C72.4749 33.7832 73.8616 35.1699 73.8616 36.8717C73.8616 38.6365 72.538 40.0232 70.7101 40.0232C68.9453 40.0232 67.5586 38.6365 67.5586 36.8717C67.5586 35.1699 68.8822 33.7832 70.7101 33.7832ZM70.7101 39.0777C71.8446 39.0777 72.7271 38.1323 72.7271 36.9347C72.7271 35.7372 71.8446 34.8547 70.7101 34.8547C69.5756 34.8547 68.6931 35.7372 68.6931 36.9347C68.6931 38.1323 69.5756 39.0777 70.7101 39.0777Z" fill="white"/>
<path d="M76.2539 33.9098H77.3884V37.4395C77.3884 37.8176 77.3254 38.3849 77.3254 38.3849C77.3254 38.3849 77.6406 37.8176 77.8296 37.4395L80.0987 33.9728H81.1703V40.0237H80.0987V36.494C80.0987 36.1158 80.1618 35.5485 80.1618 35.5485C80.1618 35.5485 79.9096 36.1158 79.6576 36.494L77.3254 40.0237H76.2539V33.9098ZM77.3254 32.4601V32.334H78.1448V32.4601C78.1448 32.8383 78.4599 33.0273 78.7121 33.0273C78.9642 33.0273 79.2793 32.8383 79.2793 32.4601V32.334H80.0987V32.4601C80.0987 33.2164 79.4684 33.6576 78.7121 33.6576C78.0187 33.6576 77.3254 33.2164 77.3254 32.4601Z" fill="white"/>
<path d="M18.3957 50.992C18.5218 51.118 18.7739 51.3072 19.0891 51.3072C19.4042 51.3072 19.5933 51.118 19.7193 50.8029L17.3242 46.1387H18.5218L19.8454 48.849C20.0344 49.2272 20.1606 49.6684 20.1606 49.6684C20.1606 49.6684 20.2866 49.2902 20.4126 48.849L21.3581 46.1387H22.4926L20.6018 50.929C20.3496 51.5592 19.9084 52.3156 19.026 52.3156C18.5848 52.3156 18.2066 52.1265 17.8284 51.8744L18.3957 50.992Z" fill="white"/>
<path d="M24.5703 46.0742H25.7048V48.6585H28.4782V46.0742H29.5497V52.1251H28.4782V49.6039H25.7048V52.1251H24.5703V46.0742Z" fill="white"/>
<path d="M32.3242 46.0742H33.4587V49.6039C33.4587 49.9821 33.3957 50.5494 33.3957 50.5494C33.3957 50.5494 33.7109 49.9821 33.8999 49.6039L36.1691 46.0742H37.2406V52.1251H36.1691V48.6585C36.1691 48.2803 36.2321 47.713 36.2321 47.713C36.2321 47.713 35.9799 48.2803 35.7279 48.6585L33.3957 52.1251H32.3242V46.0742Z" fill="white"/>
<path d="M40.0742 46.0742H42.2172C43.3518 46.0742 44.1081 46.6415 44.1081 47.65C44.1081 48.2172 43.856 48.7215 43.3518 48.9737C44.0451 49.1627 44.3602 49.793 44.3602 50.4234C44.3602 51.6209 43.4148 52.1882 42.2802 52.1882H40.0742V46.0742ZM42.2172 48.5324C42.7214 48.5324 42.9736 48.2172 42.9736 47.776C42.9736 47.3349 42.7214 47.0197 42.2172 47.0197H41.1457V48.5324H42.2172ZM42.3433 51.1797C42.9106 51.1797 43.2257 50.8015 43.2257 50.2972C43.2257 49.793 42.9106 49.4149 42.3433 49.4149H41.1457V51.1797H42.3433Z" fill="white"/>
<path d="M46.7578 46.0742H50.4135V47.0197H47.8923V48.5955H49.9093V49.5409H47.8923V51.1797H50.5396V52.1251H46.7578V46.0742Z" fill="white"/>
<path d="M52.8677 46.0742H55.1998C56.3344 46.0742 57.1537 46.8937 57.1537 48.0282C57.1537 49.2257 56.3344 50.0452 55.1998 50.0452H53.9392V52.1251H52.8047V46.0742H52.8677ZM55.0107 49.0997C55.641 49.0997 56.0192 48.6585 56.0192 48.0282C56.0192 47.3979 55.641 47.0197 55.0107 47.0197H53.9392V49.0997H55.0107Z" fill="white"/>
<path d="M62.2 45.9473C63.0194 45.9473 63.8388 46.1994 64.4691 46.7667L63.9649 47.5861C63.5237 47.2079 62.8934 46.9558 62.3261 46.9558C61.0025 46.9558 60.3092 47.9012 60.3092 49.0358C60.3092 50.1703 61.0655 51.1788 62.3261 51.1788C62.9564 51.1788 63.6497 50.8636 64.0909 50.4224L64.6582 51.2419C64.1539 51.7461 63.3345 52.2503 62.263 52.2503C60.3722 52.2503 59.1115 50.8636 59.1115 49.0988C59.0485 47.3339 60.3722 45.9473 62.2 45.9473Z" fill="white"/>
<path d="M66.8008 46.0742H67.9353V49.6039C67.9353 49.9821 67.8723 50.5494 67.8723 50.5494C67.8723 50.5494 68.1874 49.9821 68.3765 49.6039L70.6455 46.0742H71.7171V52.1251H70.6455V48.6585C70.6455 48.2803 70.7086 47.713 70.7086 47.713C70.7086 47.713 70.4565 48.2803 70.2043 48.6585L67.8723 52.1251H66.8008V46.0742Z" fill="white"/>
<path d="M75.9389 47.0197H73.9219V46.0742H79.0274V47.0197H77.0104V52.1251H75.9389V47.0197Z" fill="white"/>
<path d="M81.1724 46.0742H84.8281V47.0197H82.3069V48.5955H84.3239V49.5409H82.2439V51.1797H84.8911V52.1251H81.1094V46.0742H81.1724Z" fill="white"/>
<path d="M88.6693 47.0197H86.6523V46.0742H91.7577V47.0197H89.7408V52.1251H88.6693V47.0197Z" fill="white"/>
<path d="M12.9087 39.772C9.31603 35.8011 7.10999 30.5696 7.10999 24.7708C7.10999 12.4169 17.1317 2.39514 29.4856 2.39514C38.8771 2.39514 46.945 8.25693 50.2225 16.4509L52.4916 15.5684C48.8359 6.49209 39.8856 0 29.4856 0C15.8081 0 4.71484 11.1563 4.71484 24.7708C4.71484 31.1368 7.10999 36.9986 11.1439 41.3477L12.9087 39.772Z" fill="white"/>
</g>
<defs>
<clipPath id="clip0_8574_7129">
<rect width="87.5694" height="65" fill="white" transform="translate(4.71484)"/>
</clipPath>
</defs>
</svg>
