<svg width="32" height="33" viewBox="0 0 32 33" fill="none" xmlns="http://www.w3.org/2000/svg">
<path d="M29.3326 24.982H22.9594V21.5576V21.0741C26.5389 18.004 28.8621 13.3485 28.9702 8.12451H23.3139C23.2862 8.98535 23.1651 9.82703 22.9594 10.6365V7.74023H29.3326V24.982Z" fill="white"/>
<path d="M13.1728 23.4313H12.8128V21.0767L13.1728 20.7787V23.4313Z" fill="white"/>
<path d="M19.1863 16.5977C18.3065 17.3102 17.311 17.883 16.2241 18.2798L15.1594 18.6688L15.8149 17.6978C17.716 14.8814 18.7527 11.5793 18.8237 8.12451H13.1674C13.1397 8.9924 13.018 9.83544 12.8128 10.6425V7.74023H19.1863V16.1053V16.5977Z" fill="white"/>
<path fill-rule="evenodd" clip-rule="evenodd" d="M22.9594 21.5576V21.0741C26.5389 18.004 28.8621 13.3485 28.9702 8.12451H23.3139C23.2862 8.98535 23.1651 9.82703 22.9594 10.6365V7.74023C22.9594 11.1156 21.4864 14.1317 19.1863 16.1053V16.5977C18.3065 17.3102 17.311 17.883 16.2241 18.2798L15.1594 18.6688L15.8149 17.6978C17.716 14.8814 18.7527 11.5793 18.8237 8.12451H13.1674C13.1397 8.9924 13.018 9.83544 12.8128 10.6425V7.74023C12.8128 13.6739 8.26201 18.5014 2.66699 18.5014V25.2602C6.48889 25.2602 10.0116 23.8763 12.8135 21.5567L12.8128 21.0767L13.1728 20.7787V23.4313H12.8128L12.8135 25.2602C16.6352 25.2602 20.1577 23.8769 22.9594 21.5576ZM13.5323 24.4808C21.6746 24.0924 28.2324 17.1376 28.5987 8.50255H23.6558C23.3688 13.1037 20.502 17.1182 16.341 18.6371L14.2116 19.4146L15.5227 17.4725C17.3098 14.8253 18.3156 11.7387 18.4522 8.50255H13.5093C13.1538 14.2511 8.80632 18.8618 3.3858 19.2387V24.4812C6.66859 24.327 9.76162 23.116 12.3712 20.9557L13.5323 19.9946V24.4808Z" fill="white"/>
</svg>
